# vtk DataFile Version 3.0
this file was written using fslvtkio
ASCII
DATASET POLYDATA
POINTS 642 float
118.862 88.9239 16.8003
134.282 98.0476 25.1035
131.102 111.336 34.6024
113.053 99.7923 27.1627
120.05 87.0619 30.4758
115.633 104.202 16.9496
126.781 108.347 23.0822
132.303 93.0997 35.536
133.224 84.4061 22.105
119.727 103.156 36.9699
117.385 115.335 29.6416
129.352 96.2364 11.4225
134.152 86.6207 29.5605
126.574 83.2943 26.5577
126.584 88.4068 34.319
126.402 97.934 38.4382
119.3 94.5201 34.8426
127.164 101.109 17.0269
121.243 106.611 19.8027
121.539 99.9161 10.7468
123.607 115.844 25.9296
116.238 109.374 24.5928
115.402 93.0817 28.9251
119.599 85.7555 23.4067
114.325 93.8632 21.3719
112.164 102.578 21.9264
117.41 96.1227 13.935
134.701 94.9198 30.4416
132.171 102.306 37.0124
133.354 105.171 30.4694
130.744 103.105 23.4466
129.431 112.782 28.9687
123.799 91.1592 10.2904
125.861 84.439 17.9749
133.042 88.7462 15.2155
133.108 95.4465 18.2109
136.761 90.1815 23.5879
112.332 108.487 29.582
119.21 111.923 35.3567
113.624 102.181 33.5038
126.416 118.514 32.01
126.362 108.569 37.8578
130.598 84.1069 28.341
126.571 85.1197 30.8768
130.494 86.7172 32.4939
123.076 87.5566 32.7088
123.192 84.4142 28.7215
129.941 83.1832 24.3065
134.2 85.0242 26.0431
133.255 89.2866 32.8267
129.542 90.3596 35.6745
126.298 92.4908 36.9343
122.706 90.7412 34.9222
122.793 95.5184 36.9955
119.379 90.8269 32.6366
129.344 95.3733 37.606
122.93 100.222 37.7378
119.089 98.6021 35.984
124.021 103.942 17.8484
121.321 102.985 14.8716
124.849 101.236 13.2447
118.305 102.308 13.511
118.551 105.318 18.246
124.07 107.622 21.203
126.795 104.145 20.4463
128.257 98.7651 13.9847
125.744 98.6674 10.1378
119.286 113.774 24.7132
118.908 108.031 22.0692
122.006 111.01 23.6738
115.751 106.225 21.1705
115.931 113.019 26.615
120.377 116.349 27.4779
124.858 111.893 24.7492
116.844 88.8357 26.1133
116.142 89.4519 22.4662
114.143 92.8258 25.2152
116.506 91.4495 19.0581
118.841 87.0436 20.1854
119.527 86.037 27.0802
117.296 90.1201 29.8019
113.953 96.4684 28.1863
112.696 96.4026 24.0521
112.953 98.1668 21.1972
115.744 95.0932 17.7422
114.456 99.1361 17.7877
118.184 92.5917 15.0867
112.043 101.027 24.5026
113.456 103.457 19.2893
115.76 100.224 15.0677
133.89 98.431 33.9655
133.577 103.531 33.8931
133.761 99.92 30.8209
132.37 108.109 32.7238
131.821 106.727 36.1357
132.425 97.5582 36.4129
134.194 93.5474 33.0168
134.789 96.592 27.7979
132.477 101.386 28.1125
131.76 104.553 27.2266
131.477 109.215 29.9785
130.241 107.979 26.6003
130.737 112.957 31.7457
132.525 100.768 24.1678
128.29 105.349 23.7112
128.323 110.633 25.966
124.591 87.3126 13.9094
129.723 85.9735 15.9303
128.268 90.2849 11.8786
134.041 85.7409 18.5418
129.575 83.7903 20.0744
121.707 86.034 17.1946
120.819 89.4211 13.3491
126.455 94.8512 8.96178
131.424 92.7209 12.788
133.842 92.1611 16.1387
135.985 88.7371 19.137
135.446 92.6917 20.6073
136.282 86.6539 22.9758
131.223 96.0936 14.8782
134.112 96.9346 21.6269
135.783 94.1106 24.2801
113.997 111.009 33.0106
115.178 107.39 34.9714
112.078 105.703 31.8045
116.48 102.609 35.3937
118.907 107.563 36.58
117.562 114.341 32.7136
114.155 112.383 29.5088
112.329 103.762 28.4093
112.557 100.789 30.7163
126.658 114.565 35.7957
122.597 110.098 37.2649
122.452 115.693 34.207
123.044 105.526 37.775
129.191 110.293 36.8567
129.468 115.942 33.3928
121.701 117.327 31.1036
122.629 83.5691 25.2638
126.228 83.0549 22.3264
122.393 84.3372 20.4995
120.247 93.2731 11.7242
122.647 95.9222 9.08264
118.238 98.7298 11.8568
115.973 98.2943 34.1973
116.944 94.0723 32.1356
114.09 97.5344 31.3511
112.926 104.681 25.7813
113.12 106.253 22.7088
113.802 109.025 26.7171
136.513 87.9323 26.6062
135.586 90.4555 30.4122
136.267 92.5537 27.0255
132.487 99.6435 20.5765
129.392 102.435 20.3237
130.464 98.744 17.3369
129.641 105.7 38.1669
129.799 99.6505 38.3277
125.969 103.155 38.6243
124.454 117.933 28.5602
126.723 114.189 27.4538
129.371 117.216 30.1425
128.684 84.4526 29.7853
128.67 85.6961 31.6337
130.576 85.0804 30.5835
128.494 87.1684 33.3799
126.87 86.514 32.6068
126.916 84.1307 28.905
128.514 83.6808 27.809
132.245 85.2541 29.2749
132.173 86.1999 31.01
124.925 86.1019 31.8877
124.978 84.6363 29.7388
123.343 85.6828 30.8699
125.088 83.767 27.7083
125.059 87.6192 33.4003
121.668 87.049 31.5898
121.705 85.5761 29.8849
130.209 83.3651 26.5104
132.538 84.3926 27.4041
131.995 83.9205 25.4842
134.284 85.4251 28.0668
128.274 83.1271 25.562
131.64 83.7245 23.3761
133.542 84.5901 24.2035
132.224 87.5685 32.6123
130.064 88.1518 34.1288
131.574 89.3697 34.4388
128.249 88.9957 35.0083
133.735 87.6036 31.2454
132.764 90.8812 34.3115
131.05 91.4663 35.5632
124.55 91.4313 35.8743
122.702 92.9904 36.0547
124.463 93.8251 37.0103
121.196 94.581 36.0035
121.107 92.615 35.1296
124.671 89.4632 34.6944
126.383 90.2901 35.7354
126.18 94.9775 37.7683
124.683 96.211 37.7505
120.873 90.8475 33.9768
122.995 89.0259 33.8832
120.997 88.8777 32.6902
119.488 92.6012 33.9569
119.686 88.751 31.5703
127.811 91.1891 36.3604
127.765 93.9754 37.3861
129.561 92.7402 36.6567
127.736 96.4586 38.1999
130.9 94.0126 36.6709
123.031 97.7156 37.4735
120.817 96.6895 36.6132
121.077 99.0893 36.9167
119.327 96.355 35.6076
124.762 98.9197 38.0161
121.096 101.352 37.4962
119.32 100.57 36.7443
122.797 103.421 16.3423
123.051 102.099 14.063
124.34 102.192 15.6593
123.145 100.987 11.9746
121.482 101.625 12.7756
121.424 104.518 17.0474
122.51 105.213 18.36
125.444 102.408 17.1277
125.868 101.214 15.3175
119.975 102.623 14.0542
120.013 104.274 16.5081
118.439 104.057 15.6849
120.184 105.609 18.5938
119.886 101.049 12.0679
116.951 103.548 15.1529
117.153 104.849 17.537
123.83 105.802 19.4536
125.463 103.943 18.9913
125.235 105.693 20.7966
126.812 102.536 18.656
122.542 107.138 20.4133
125.481 107.918 22.0438
126.43 105.901 21.9758
126.663 100.258 13.6687
125.225 100.303 11.5729
127.3 99.4048 11.8332
123.625 99.6133 10.419
127.581 99.9786 15.436
128.846 97.8907 12.4695
127.894 97.9191 10.6766
119.088 110.536 23.8584
120.502 109.505 22.7449
120.661 112.316 24.4331
121.641 108.82 21.7211
120.204 107.537 20.8553
117.717 109.231 23.4862
117.887 111.453 24.4985
121.274 114.888 25.0789
122.388 113.45 24.9289
118.974 106.489 19.9329
117.496 107.179 21.7831
116.957 106.006 19.5847
116.095 107.864 22.9519
115.475 105.263 18.9602
117.486 113.563 25.1833
119.596 115.842 25.4108
117.976 114.986 26.6539
121.928 116.63 26.2953
116.257 111.399 25.4637
116.513 114.418 27.9014
118.618 115.785 28.3258
123.352 111.426 23.9142
123.071 109.193 21.9535
124.676 109.654 22.8018
123.867 113.574 25.6596
125.924 110.115 23.7648
116.383 89.0442 24.333
114.922 90.9639 23.8477
115.411 90.7629 25.68
113.991 92.922 23.3947
114.857 91.6609 22.2827
117.684 87.6819 23.1782
117.989 87.4057 24.656
115.852 90.8436 27.2891
114.937 92.4244 26.9845
116.008 90.4813 20.9693
117.453 88.0298 21.4805
117.196 89.0993 19.8641
119.207 86.4119 21.9321
115.425 92.5123 20.4468
117.559 90.116 18.057
118.388 88.168 18.6196
118.057 87.3281 26.4423
116.869 89.4239 28.008
118.213 87.7845 28.4594
116.277 91.5253 29.1255
119.557 85.8718 25.1211
119.776 86.2952 28.8867
118.478 88.4645 30.1563
114.082 94.396 26.7118
113.248 94.5035 24.6739
113.365 96.2524 26.19
113.386 94.9118 22.6812
114.657 94.5576 28.3886
113.536 98.1414 27.5014
112.715 97.9143 25.4673
114.372 96.4158 19.5148
114.971 97.1328 17.7675
113.538 98.5403 19.481
115.699 97.4944 16.0932
116.416 95.9364 16.1
114.986 94.6419 19.6441
113.752 95.9516 20.9836
112.742 100.28 21.131
113.344 100.475 19.7005
116.949 94.04 16.3439
116.001 93.3359 18.5575
117.15 92.0647 17.0859
117.707 94.5317 14.5601
118.294 90.7201 16.1567
112.714 96.9773 22.478
112.297 99.6017 22.6109
112.293 98.6795 24.0192
111.977 101.705 23.0845
112.639 100.171 25.693
113.988 101.257 18.5242
115.128 99.4136 16.3216
114.797 101.674 17.0224
116.476 97.9942 14.5017
112.927 102.617 20.4894
114.479 103.693 18.0177
115.474 102.487 15.8667
133.84 100.967 33.9978
133.913 101.727 32.4147
134.142 99.3187 32.4606
133.834 102.472 31.0585
133.669 103.935 32.1437
133.173 102.513 35.3748
133.227 100.394 35.4174
134.145 97.0442 32.2788
134.043 97.5712 30.9276
133.354 105.685 33.2926
132.747 104.912 35.0592
132.29 107.133 34.3382
132.23 104.333 36.4478
133.09 106.318 31.747
131.814 109.53 33.796
131.654 108.849 35.3422
133.332 98.0968 35.3234
134.006 96.1048 33.4798
133.399 95.4422 34.7848
134.524 94.5496 31.8282
132.422 99.9956 36.8233
132.437 95.2242 35.9564
133.341 93.1174 34.3008
133.792 98.0381 29.4319
133.217 100.886 29.5918
133.456 98.981 28.134
133.186 103.213 29.5692
134.79 95.8233 29.2439
134.324 97.7396 26.6659
133.137 99.7365 26.7514
132.431 107.13 28.5256
131.148 108.68 28.2202
131 106.34 27.0287
129.969 110.003 27.8433
130.37 110.621 29.3401
132.671 107.258 30.0529
132.732 105.207 28.8152
130.969 104.171 25.4699
130.181 105.625 25.4928
130.638 110.796 30.9072
132.276 108.483 31.2914
131.541 110.411 32.2888
130.293 113.004 30.2811
131.08 111.991 33.1895
132.204 103.072 27.9373
131.494 102.778 25.844
132.255 101.101 26.1834
131.582 102.078 23.8719
133.365 99.5323 24.8481
129.278 106.575 25.0604
129.357 109.207 26.2487
128.549 108.26 24.602
129.026 111.408 27.4536
129.652 104.3 23.6723
127.448 106.88 23.4918
127.721 109.71 24.3119
127.262 86.8472 14.5162
128.872 87.8698 13.7882
126.653 88.4278 12.7638
130.428 89.2508 13.5689
131.146 87.3314 15.1324
127.684 85.2901 16.5531
125.601 85.8984 15.7529
124.327 88.9995 12.1279
126.012 90.3635 10.9586
131.81 85.7459 17.0173
129.63 84.6251 17.9508
131.896 84.4876 19.1588
127.692 84.0244 18.8018
133.543 86.9931 16.6432
133.832 84.9616 20.3867
131.413 83.8919 21.1219
123.188 86.3751 15.5745
122.407 87.9066 13.4791
120.767 87.4967 15.3293
122.289 89.7876 11.74
123.993 85.28 17.2406
119.819 87.2061 17.1087
119.684 89.1531 15.098
127.461 92.386 10.2357
130.056 91.4438 12.0969
129.133 93.8062 10.7026
132.227 90.5553 13.7792
125.327 92.6992 9.29929
128.418 95.7494 9.95616
130.57 94.4134 12.3775
135.027 90.3811 17.4949
135.808 90.8038 19.5761
134.863 92.0877 18.3516
136.262 91.3202 21.7832
136.529 89.6197 21.1873
134.792 88.4671 17.1702
133.898 90.4029 15.5398
133.698 93.6153 17.4028
134.439 93.8062 19.2266
136.378 87.8092 20.9861
135.223 87.1385 18.6228
135.358 85.9894 20.7648
136.833 88.4893 22.9445
134.977 85.2419 22.621
132.911 92.151 14.4142
132.558 93.977 15.7267
131.7 94.4008 13.8545
132.26 95.4951 16.6192
130.172 96.3473 13.1758
134.594 94.8514 21.0081
135.685 93.4355 22.3792
135.179 95.7264 22.9976
136.381 92.1003 23.777
133.764 95.9346 19.8233
134.389 97.6252 23.3759
135.181 96.1445 24.7389
114.181 109.136 34.1023
113.183 106.755 33.4487
112.473 108.475 32.4788
112.98 104.36 32.9916
114.274 105.169 34.2615
116.611 109.656 35.1979
116.21 111.18 34.3129
112.68 110.061 31.455
111.892 107.417 30.8548
115.856 104.994 35.2412
116.994 107.589 35.7666
117.641 104.967 36.2464
118.752 109.802 36.106
114.969 102.834 34.4406
118.09 102.627 36.2296
119.451 105.301 36.9907
115.612 112.674 32.9523
113.68 112.057 31.2802
115.384 113.98 31.1048
112.941 110.573 29.7964
118.165 113.012 34.1149
117.374 115.274 31.1725
115.419 114.035 29.2649
111.744 104.774 30.1713
111.979 103.327 31.4889
112.322 102.234 29.6366
112.481 101.676 32.2873
112.064 106.127 29.1478
112.76 101.688 27.8431
113.005 100.113 28.9892
124.452 112.755 36.6898
122.463 113.179 35.8584
124.439 115.343 35.2154
120.803 113.872 34.9312
120.98 111.163 36.3726
124.599 109.955 37.5114
126.233 111.841 36.9751
126.533 117.01 34.337
124.481 117.296 33.4168
120.256 108.903 36.7906
122.89 108.189 37.652
121.003 106.434 37.3861
124.594 107.162 37.9716
121.381 104.138 37.5488
127.951 112.644 36.3263
128.205 115.658 34.7682
129.363 113.321 35.2918
128.211 117.814 32.9102
127.747 109.929 37.3621
130.321 110.824 35.8079
130.246 113.555 34.1128
122.051 116.516 32.8918
119.652 114.629 33.5933
119.432 116.007 31.9591
123.964 118.018 31.6957
119.471 116.361 30.3548
124.332 83.1078 23.6626
124.253 83.399 21.4428
122.658 83.5993 22.8174
124.06 84.1572 19.1797
125.936 83.4402 20.1111
126.27 82.9132 24.4827
124.585 83.1841 25.7722
121.245 84.425 24.0994
121.108 84.7238 22.1077
127.747 83.4558 20.9339
127.981 82.9899 23.4624
129.865 83.3594 22.1973
123.03 83.8321 26.981
120.909 84.7827 26.029
121.169 85.1203 28.092
120.484 85.5168 20.5052
122.247 85.1253 18.7458
120.018 86.4583 18.6836
121.299 94.4846 10.302
120.407 96.9936 10.2565
119.345 95.9871 11.2844
119.573 99.4077 11.0168
121.839 98.2404 9.50487
122.987 93.3243 9.37975
121.743 91.8344 10.9787
118.893 94.8049 12.7727
117.722 97.4328 12.7288
123.837 97.9515 9.46168
124.271 94.9698 8.62385
126.873 97.0952 9.43629
120.529 91.2617 12.5259
119.089 93.0353 13.4612
119.249 90.8753 14.3993
116.638 99.4491 13.6175
117.871 100.752 12.6453
116.356 101.956 14.4873
116.404 96.1026 33.2155
115.454 95.7447 31.6689
114.667 97.9393 32.94
114.886 95.2432 30.1947
115.926 93.6948 30.6404
117.933 94.3484 33.5957
117.677 96.4056 34.425
114.421 100.115 33.9309
113.282 99.6704 32.6284
116.984 92.2369 30.7938
118.181 92.625 32.5502
118.185 90.3813 31.3083
117.602 98.3037 35.0283
115.746 100.542 34.8095
117.52 100.445 35.8906
113.106 99.2608 31.2209
114.18 96.7517 29.7816
113.514 98.5896 29.351
112.518 105.563 24.0813
113.53 107.33 24.7286
113.229 106.761 26.2618
114.797 109.092 25.4018
114.624 107.77 23.713
111.932 104.44 22.2666
111.693 103.699 23.8557
112.711 106.551 27.8332
113.014 108.715 28.111
114.356 106.548 21.9327
112.895 104.704 21.0459
114.146 105.226 19.8377
112.089 102.784 25.158
112.84 104.44 27.271
112.961 102.109 26.6283
113.66 110.588 28.2065
114.726 110.874 26.4533
114.81 112.632 27.8659
136.19 89.2045 28.5015
136.182 91.4399 28.7115
136.797 90.2094 26.9554
135.797 93.5055 28.7979
135.461 92.6501 30.2468
135.182 88.4218 29.9984
135.684 87.1603 28.2459
136.856 89.1903 25.1783
136.811 91.3113 25.3846
134.815 92.1564 31.5778
134.524 89.5858 31.6105
133.861 91.4164 33.1238
135.719 86.1919 26.6804
136.53 87.541 24.748
135.246 85.7012 24.4673
136.286 93.3431 25.5873
135.653 94.6568 27.5868
135.338 95.6846 26.04
130.921 100.974 20.2962
129.93 100.453 18.768
131.524 99.1257 18.9306
128.791 100.135 17.2957
128.409 101.646 18.8157
130.461 102.777 21.6835
131.708 101.438 21.8186
132.82 97.6168 19.3665
131.883 97.1781 17.8328
128.067 103.252 20.3624
129.158 103.784 22.1569
127.623 104.9 22.2359
132.672 100.467 22.3809
133.476 98.2867 20.94
133.641 99.0296 22.9251
130.873 97.2051 16.2927
129.022 98.8776 16.0236
129.802 97.6295 14.4819
129.67 102.68 38.4783
128.038 101.574 38.6859
127.94 104.28 38.6894
126.329 100.509 38.5942
128.178 98.8912 38.6129
131.045 101.049 37.8653
131.074 103.841 37.8595
127.949 107.068 38.2007
126.135 105.825 38.4517
129.525 97.4481 38.0256
131.432 98.5673 37.5937
131.195 96.1017 36.9421
131.058 105.871 37.2412
129.104 107.987 37.6475
130.753 108.531 36.4842
124.408 104.284 38.3199
124.537 101.309 38.2102
122.615 102.619 38.0135
126.215 116.793 27.3421
128.312 116.147 28.3508
127.173 118.281 29.1036
129.604 114.952 29.359
128.026 113.196 28.0635
125.141 114.436 26.6266
124.54 117.471 26.5015
125.199 118.546 30.3037
127.982 118.282 31.028
127.631 112.435 26.6327
125.817 112.923 25.9221
126.831 111.36 25.0565
122.521 117.186 27.7283
122.843 117.757 29.9914
120.436 116.687 29.2087
129.287 116.762 31.825
130.341 114.95 30.6495
130.366 114.157 32.6767
POLYGONS 1280  5120
3 164 162 163
3 163 44 164
3 162 43 163
3 164 42 162
3 166 165 163
3 163 43 166
3 165 44 163
3 166 14 165
3 168 167 162
3 162 42 168
3 167 43 162
3 168 13 167
3 170 169 164
3 164 44 170
3 169 42 164
3 170 12 169
3 173 171 172
3 172 46 173
3 171 43 172
3 173 45 171
3 167 174 172
3 172 43 167
3 174 46 172
3 167 13 174
3 175 166 171
3 171 45 175
3 166 43 171
3 175 14 166
3 177 176 173
3 173 46 177
3 176 45 173
3 177 4 176
3 180 178 179
3 179 48 180
3 178 42 179
3 180 47 178
3 169 181 179
3 179 42 169
3 181 48 179
3 169 12 181
3 182 168 178
3 178 47 182
3 168 42 178
3 182 13 168
3 184 183 180
3 180 48 184
3 183 47 180
3 184 8 183
3 187 185 186
3 186 50 187
3 185 44 186
3 187 49 185
3 165 188 186
3 186 44 165
3 188 50 186
3 165 14 188
3 189 170 185
3 185 49 189
3 170 44 185
3 189 12 170
3 191 190 187
3 187 50 191
3 190 49 187
3 191 7 190
3 194 192 193
3 193 53 194
3 192 52 193
3 194 51 192
3 196 195 193
3 193 52 196
3 195 53 193
3 196 16 195
3 198 197 192
3 192 51 198
3 197 52 192
3 198 14 197
3 200 199 194
3 194 53 200
3 199 51 194
3 200 15 199
3 203 201 202
3 202 45 203
3 201 52 202
3 203 54 201
3 197 175 202
3 202 52 197
3 175 45 202
3 197 14 175
3 204 196 201
3 201 54 204
3 196 52 201
3 204 16 196
3 176 205 203
3 203 45 176
3 205 54 203
3 176 4 205
3 208 206 207
3 207 55 208
3 206 51 207
3 208 50 206
3 199 209 207
3 207 51 199
3 209 55 207
3 199 15 209
3 188 198 206
3 206 50 188
3 198 51 206
3 188 14 198
3 210 191 208
3 208 55 210
3 191 50 208
3 210 7 191
3 213 211 212
3 212 57 213
3 211 53 212
3 213 56 211
3 195 214 212
3 212 53 195
3 214 57 212
3 195 16 214
3 215 200 211
3 211 56 215
3 200 53 211
3 215 15 200
3 217 216 213
3 213 57 217
3 216 56 213
3 217 9 216
3 220 218 219
3 219 60 220
3 218 59 219
3 220 58 218
3 222 221 219
3 219 59 222
3 221 60 219
3 222 19 221
3 224 223 218
3 218 58 224
3 223 59 218
3 224 18 223
3 226 225 220
3 220 60 226
3 225 58 220
3 226 17 225
3 229 227 228
3 228 62 229
3 227 59 228
3 229 61 227
3 223 230 228
3 228 59 223
3 230 62 228
3 223 18 230
3 231 222 227
3 227 61 231
3 222 59 227
3 231 19 222
3 233 232 229
3 229 62 233
3 232 61 229
3 233 5 232
3 236 234 235
3 235 64 236
3 234 58 235
3 236 63 234
3 225 237 235
3 235 58 225
3 237 64 235
3 225 17 237
3 238 224 234
3 234 63 238
3 224 58 234
3 238 18 224
3 240 239 236
3 236 64 240
3 239 63 236
3 240 6 239
3 243 241 242
3 242 66 243
3 241 60 242
3 243 65 241
3 221 244 242
3 242 60 221
3 244 66 242
3 221 19 244
3 245 226 241
3 241 65 245
3 226 60 241
3 245 17 226
3 247 246 243
3 243 66 247
3 246 65 243
3 247 11 246
3 250 248 249
3 249 69 250
3 248 68 249
3 250 67 248
3 252 251 249
3 249 68 252
3 251 69 249
3 252 18 251
3 254 253 248
3 248 67 254
3 253 68 248
3 254 21 253
3 256 255 250
3 250 69 256
3 255 67 250
3 256 20 255
3 259 257 258
3 258 70 259
3 257 68 258
3 259 62 257
3 253 260 258
3 258 68 253
3 260 70 258
3 253 21 260
3 230 252 257
3 257 62 230
3 252 68 257
3 230 18 252
3 261 233 259
3 259 70 261
3 233 62 259
3 261 5 233
3 264 262 263
3 263 72 264
3 262 67 263
3 264 71 262
3 255 265 263
3 263 67 255
3 265 72 263
3 255 20 265
3 266 254 262
3 262 71 266
3 254 67 262
3 266 21 254
3 268 267 264
3 264 72 268
3 267 71 264
3 268 10 267
3 271 269 270
3 270 63 271
3 269 69 270
3 271 73 269
3 251 238 270
3 270 69 251
3 238 63 270
3 251 18 238
3 272 256 269
3 269 73 272
3 256 69 269
3 272 20 256
3 239 273 271
3 271 63 239
3 273 73 271
3 239 6 273
3 276 274 275
3 275 76 276
3 274 75 275
3 276 74 274
3 278 277 275
3 275 75 278
3 277 76 275
3 278 24 277
3 280 279 274
3 274 74 280
3 279 75 274
3 280 23 279
3 282 281 276
3 276 76 282
3 281 74 276
3 282 22 281
3 285 283 284
3 284 78 285
3 283 75 284
3 285 77 283
3 279 286 284
3 284 75 279
3 286 78 284
3 279 23 286
3 287 278 283
3 283 77 287
3 278 75 283
3 287 24 278
3 289 288 285
3 285 78 289
3 288 77 285
3 289 0 288
3 292 290 291
3 291 80 292
3 290 74 291
3 292 79 290
3 281 293 291
3 291 74 281
3 293 80 291
3 281 22 293
3 294 280 290
3 290 79 294
3 280 74 290
3 294 23 280
3 296 295 292
3 292 80 296
3 295 79 292
3 296 4 295
3 299 297 298
3 298 82 299
3 297 76 298
3 299 81 297
3 277 300 298
3 298 76 277
3 300 82 298
3 277 24 300
3 301 282 297
3 297 81 301
3 282 76 297
3 301 22 282
3 303 302 299
3 299 82 303
3 302 81 299
3 303 3 302
3 306 304 305
3 305 85 306
3 304 84 305
3 306 83 304
3 308 307 305
3 305 84 308
3 307 85 305
3 308 26 307
3 310 309 304
3 304 83 310
3 309 84 304
3 310 24 309
3 312 311 306
3 306 85 312
3 311 83 306
3 312 25 311
3 315 313 314
3 314 77 315
3 313 84 314
3 315 86 313
3 309 287 314
3 314 84 309
3 287 77 314
3 309 24 287
3 316 308 313
3 313 86 316
3 308 84 313
3 316 26 308
3 288 317 315
3 315 77 288
3 317 86 315
3 288 0 317
3 320 318 319
3 319 87 320
3 318 83 319
3 320 82 318
3 311 321 319
3 319 83 311
3 321 87 319
3 311 25 321
3 300 310 318
3 318 82 300
3 310 83 318
3 300 24 310
3 322 303 320
3 320 87 322
3 303 82 320
3 322 3 303
3 325 323 324
3 324 89 325
3 323 85 324
3 325 88 323
3 307 326 324
3 324 85 307
3 326 89 324
3 307 26 326
3 327 312 323
3 323 88 327
3 312 85 323
3 327 25 312
3 329 328 325
3 325 89 329
3 328 88 325
3 329 5 328
3 332 330 331
3 331 92 332
3 330 91 331
3 332 90 330
3 334 333 331
3 331 91 334
3 333 92 331
3 334 29 333
3 336 335 330
3 330 90 336
3 335 91 330
3 336 28 335
3 338 337 332
3 332 92 338
3 337 90 332
3 338 27 337
3 341 339 340
3 340 94 341
3 339 91 340
3 341 93 339
3 335 342 340
3 340 91 335
3 342 94 340
3 335 28 342
3 343 334 339
3 339 93 343
3 334 91 339
3 343 29 334
3 345 344 341
3 341 94 345
3 344 93 341
3 345 2 344
3 348 346 347
3 347 96 348
3 346 90 347
3 348 95 346
3 337 349 347
3 347 90 337
3 349 96 347
3 337 27 349
3 350 336 346
3 346 95 350
3 336 90 346
3 350 28 336
3 352 351 348
3 348 96 352
3 351 95 348
3 352 7 351
3 355 353 354
3 354 98 355
3 353 92 354
3 355 97 353
3 333 356 354
3 354 92 333
3 356 98 354
3 333 29 356
3 357 338 353
3 353 97 357
3 338 92 353
3 357 27 338
3 359 358 355
3 355 98 359
3 358 97 355
3 359 1 358
3 362 360 361
3 361 101 362
3 360 100 361
3 362 99 360
3 364 363 361
3 361 100 364
3 363 101 361
3 364 31 363
3 366 365 360
3 360 99 366
3 365 100 360
3 366 29 365
3 368 367 362
3 362 101 368
3 367 99 362
3 368 30 367
3 371 369 370
3 370 93 371
3 369 100 370
3 371 102 369
3 365 343 370
3 370 100 365
3 343 93 370
3 365 29 343
3 372 364 369
3 369 102 372
3 364 100 369
3 372 31 364
3 344 373 371
3 371 93 344
3 373 102 371
3 344 2 373
3 376 374 375
3 375 103 376
3 374 99 375
3 376 98 374
3 367 377 375
3 375 99 367
3 377 103 375
3 367 30 377
3 356 366 374
3 374 98 356
3 366 99 374
3 356 29 366
3 378 359 376
3 376 103 378
3 359 98 376
3 378 1 359
3 381 379 380
3 380 105 381
3 379 101 380
3 381 104 379
3 363 382 380
3 380 101 363
3 382 105 380
3 363 31 382
3 383 368 379
3 379 104 383
3 368 101 379
3 383 30 368
3 385 384 381
3 381 105 385
3 384 104 381
3 385 6 384
3 388 386 387
3 387 108 388
3 386 107 387
3 388 106 386
3 390 389 387
3 387 107 390
3 389 108 387
3 390 34 389
3 392 391 386
3 386 106 392
3 391 107 386
3 392 33 391
3 394 393 388
3 388 108 394
3 393 106 388
3 394 32 393
3 397 395 396
3 396 110 397
3 395 107 396
3 397 109 395
3 391 398 396
3 396 107 391
3 398 110 396
3 391 33 398
3 399 390 395
3 395 109 399
3 390 107 395
3 399 34 390
3 401 400 397
3 397 110 401
3 400 109 397
3 401 8 400
3 404 402 403
3 403 112 404
3 402 106 403
3 404 111 402
3 393 405 403
3 403 106 393
3 405 112 403
3 393 32 405
3 406 392 402
3 402 111 406
3 392 106 402
3 406 33 392
3 408 407 404
3 404 112 408
3 407 111 404
3 408 0 407
3 411 409 410
3 410 114 411
3 409 108 410
3 411 113 409
3 389 412 410
3 410 108 389
3 412 114 410
3 389 34 412
3 413 394 409
3 409 113 413
3 394 108 409
3 413 32 394
3 415 414 411
3 411 114 415
3 414 113 411
3 415 11 414
3 418 416 417
3 417 117 418
3 416 116 417
3 418 115 416
3 420 419 417
3 417 116 420
3 419 117 417
3 420 36 419
3 422 421 416
3 416 115 422
3 421 116 416
3 422 34 421
3 424 423 418
3 418 117 424
3 423 115 418
3 424 35 423
3 427 425 426
3 426 109 427
3 425 116 426
3 427 118 425
3 421 399 426
3 426 116 421
3 399 109 426
3 421 34 399
3 428 420 425
3 425 118 428
3 420 116 425
3 428 36 420
3 400 429 427
3 427 109 400
3 429 118 427
3 400 8 429
3 432 430 431
3 431 119 432
3 430 115 431
3 432 114 430
3 423 433 431
3 431 115 423
3 433 119 431
3 423 35 433
3 412 422 430
3 430 114 412
3 422 115 430
3 412 34 422
3 434 415 432
3 432 119 434
3 415 114 432
3 434 11 415
3 437 435 436
3 436 121 437
3 435 117 436
3 437 120 435
3 419 438 436
3 436 117 419
3 438 121 436
3 419 36 438
3 439 424 435
3 435 120 439
3 424 117 435
3 439 35 424
3 441 440 437
3 437 121 441
3 440 120 437
3 441 1 440
3 444 442 443
3 443 124 444
3 442 123 443
3 444 122 442
3 446 445 443
3 443 123 446
3 445 124 443
3 446 39 445
3 448 447 442
3 442 122 448
3 447 123 442
3 448 38 447
3 450 449 444
3 444 124 450
3 449 122 444
3 450 37 449
3 453 451 452
3 452 126 453
3 451 123 452
3 453 125 451
3 447 454 452
3 452 123 447
3 454 126 452
3 447 38 454
3 455 446 451
3 451 125 455
3 446 123 451
3 455 39 446
3 457 456 453
3 453 126 457
3 456 125 453
3 457 9 456
3 460 458 459
3 459 128 460
3 458 122 459
3 460 127 458
3 449 461 459
3 459 122 449
3 461 128 459
3 449 37 461
3 462 448 458
3 458 127 462
3 448 122 458
3 462 38 448
3 464 463 460
3 460 128 464
3 463 127 460
3 464 10 463
3 467 465 466
3 466 130 467
3 465 124 466
3 467 129 465
3 445 468 466
3 466 124 445
3 468 130 466
3 445 39 468
3 469 450 465
3 465 129 469
3 450 124 465
3 469 37 450
3 471 470 467
3 467 130 471
3 470 129 467
3 471 3 470
3 474 472 473
3 473 133 474
3 472 132 473
3 474 131 472
3 476 475 473
3 473 132 476
3 475 133 473
3 476 38 475
3 478 477 472
3 472 131 478
3 477 132 472
3 478 41 477
3 480 479 474
3 474 133 480
3 479 131 474
3 480 40 479
3 483 481 482
3 482 134 483
3 481 132 482
3 483 126 481
3 477 484 482
3 482 132 477
3 484 134 482
3 477 41 484
3 454 476 481
3 481 126 454
3 476 132 481
3 454 38 476
3 485 457 483
3 483 134 485
3 457 126 483
3 485 9 457
3 488 486 487
3 487 136 488
3 486 131 487
3 488 135 486
3 479 489 487
3 487 131 479
3 489 136 487
3 479 40 489
3 490 478 486
3 486 135 490
3 478 131 486
3 490 41 478
3 492 491 488
3 488 136 492
3 491 135 488
3 492 2 491
3 495 493 494
3 494 127 495
3 493 133 494
3 495 137 493
3 475 462 494
3 494 133 475
3 462 127 494
3 475 38 462
3 496 480 493
3 493 137 496
3 480 133 493
3 496 40 480
3 463 497 495
3 495 127 463
3 497 137 495
3 463 10 497
3 500 498 499
3 499 140 500
3 498 139 499
3 500 138 498
3 502 501 499
3 499 139 502
3 501 140 499
3 502 33 501
3 504 503 498
3 498 138 504
3 503 139 498
3 504 13 503
3 506 505 500
3 500 140 506
3 505 138 500
3 506 23 505
3 509 507 508
3 508 47 509
3 507 139 508
3 509 110 507
3 503 182 508
3 508 139 503
3 182 47 508
3 503 13 182
3 398 502 507
3 507 110 398
3 502 139 507
3 398 33 502
3 183 401 509
3 509 47 183
3 401 110 509
3 183 8 401
3 512 510 511
3 511 79 512
3 510 138 511
3 512 46 510
3 505 294 511
3 511 138 505
3 294 79 511
3 505 23 294
3 174 504 510
3 510 46 174
3 504 138 510
3 174 13 504
3 295 177 512
3 512 79 295
3 177 46 512
3 295 4 177
3 515 513 514
3 514 111 515
3 513 140 514
3 515 78 513
3 501 406 514
3 514 140 501
3 406 111 514
3 501 33 406
3 286 506 513
3 513 78 286
3 506 140 513
3 286 23 506
3 407 289 515
3 515 111 407
3 289 78 515
3 407 0 289
3 518 516 517
3 517 143 518
3 516 142 517
3 518 141 516
3 520 519 517
3 517 142 520
3 519 143 517
3 520 19 519
3 522 521 516
3 516 141 522
3 521 142 516
3 522 32 521
3 524 523 518
3 518 143 524
3 523 141 518
3 524 26 523
3 527 525 526
3 526 113 527
3 525 142 526
3 527 66 525
3 521 413 526
3 526 142 521
3 413 113 526
3 521 32 413
3 244 520 525
3 525 66 244
3 520 142 525
3 244 19 520
3 414 247 527
3 527 113 414
3 247 66 527
3 414 11 247
3 530 528 529
3 529 86 530
3 528 141 529
3 530 112 528
3 523 316 529
3 529 141 523
3 316 86 529
3 523 26 316
3 405 522 528
3 528 112 405
3 522 141 528
3 405 32 522
3 317 408 530
3 530 86 317
3 408 112 530
3 317 0 408
3 533 531 532
3 532 61 533
3 531 143 532
3 533 89 531
3 519 231 532
3 532 143 519
3 231 61 532
3 519 19 231
3 326 524 531
3 531 89 326
3 524 143 531
3 326 26 524
3 232 329 533
3 533 61 232
3 329 89 533
3 232 5 329
3 536 534 535
3 535 146 536
3 534 145 535
3 536 144 534
3 538 537 535
3 535 145 538
3 537 146 535
3 538 22 537
3 540 539 534
3 534 144 540
3 539 145 534
3 540 16 539
3 542 541 536
3 536 146 542
3 541 144 536
3 542 39 541
3 545 543 544
3 544 54 545
3 543 145 544
3 545 80 543
3 539 204 544
3 544 145 539
3 204 54 544
3 539 16 204
3 293 538 543
3 543 80 293
3 538 145 543
3 293 22 538
3 205 296 545
3 545 54 205
3 296 80 545
3 205 4 296
3 548 546 547
3 547 125 548
3 546 144 547
3 548 57 546
3 541 455 547
3 547 144 541
3 455 125 547
3 541 39 455
3 214 540 546
3 546 57 214
3 540 144 546
3 214 16 540
3 456 217 548
3 548 125 456
3 217 57 548
3 456 9 217
3 551 549 550
3 550 81 551
3 549 146 550
3 551 130 549
3 537 301 550
3 550 146 537
3 301 81 550
3 537 22 301
3 468 542 549
3 549 130 468
3 542 146 549
3 468 39 542
3 302 471 551
3 551 81 302
3 471 130 551
3 302 3 471
3 554 552 553
3 553 149 554
3 552 148 553
3 554 147 552
3 556 555 553
3 553 148 556
3 555 149 553
3 556 21 555
3 558 557 552
3 552 147 558
3 557 148 552
3 558 25 557
3 560 559 554
3 554 149 560
3 559 147 554
3 560 37 559
3 563 561 562
3 562 88 563
3 561 148 562
3 563 70 561
3 557 327 562
3 562 148 557
3 327 88 562
3 557 25 327
3 260 556 561
3 561 70 260
3 556 148 561
3 260 21 556
3 328 261 563
3 563 88 328
3 261 70 563
3 328 5 261
3 566 564 565
3 565 129 566
3 564 147 565
3 566 87 564
3 559 469 565
3 565 147 559
3 469 129 565
3 559 37 469
3 321 558 564
3 564 87 321
3 558 147 564
3 321 25 558
3 470 322 566
3 566 129 470
3 322 87 566
3 470 3 322
3 569 567 568
3 568 71 569
3 567 149 568
3 569 128 567
3 555 266 568
3 568 149 555
3 266 71 568
3 555 21 266
3 461 560 567
3 567 128 461
3 560 149 567
3 461 37 560
3 267 464 569
3 569 71 267
3 464 128 569
3 267 10 464
3 572 570 571
3 571 152 572
3 570 151 571
3 572 150 570
3 574 573 571
3 571 151 574
3 573 152 571
3 574 27 573
3 576 575 570
3 570 150 576
3 575 151 570
3 576 12 575
3 578 577 572
3 572 152 578
3 577 150 572
3 578 36 577
3 581 579 580
3 580 49 581
3 579 151 580
3 581 96 579
3 575 189 580
3 580 151 575
3 189 49 580
3 575 12 189
3 349 574 579
3 579 96 349
3 574 151 579
3 349 27 574
3 190 352 581
3 581 49 190
3 352 96 581
3 190 7 352
3 584 582 583
3 583 118 584
3 582 150 583
3 584 48 582
3 577 428 583
3 583 150 577
3 428 118 583
3 577 36 428
3 181 576 582
3 582 48 181
3 576 150 582
3 181 12 576
3 429 184 584
3 584 118 429
3 184 48 584
3 429 8 184
3 587 585 586
3 586 97 587
3 585 152 586
3 587 121 585
3 573 357 586
3 586 152 573
3 357 97 586
3 573 27 357
3 438 578 585
3 585 121 438
3 578 152 585
3 438 36 578
3 358 441 587
3 587 97 358
3 441 121 587
3 358 1 441
3 590 588 589
3 589 155 590
3 588 154 589
3 590 153 588
3 592 591 589
3 589 154 592
3 591 155 589
3 592 17 591
3 594 593 588
3 588 153 594
3 593 154 588
3 594 30 593
3 596 595 590
3 590 155 596
3 595 153 590
3 596 35 595
3 599 597 598
3 598 104 599
3 597 154 598
3 599 64 597
3 593 383 598
3 598 154 593
3 383 104 598
3 593 30 383
3 237 592 597
3 597 64 237
3 592 154 597
3 237 17 592
3 384 240 599
3 599 104 384
3 240 64 599
3 384 6 240
3 602 600 601
3 601 120 602
3 600 153 601
3 602 103 600
3 595 439 601
3 601 153 595
3 439 120 601
3 595 35 439
3 377 594 600
3 600 103 377
3 594 153 600
3 377 30 594
3 440 378 602
3 602 120 440
3 378 103 602
3 440 1 378
3 605 603 604
3 604 65 605
3 603 155 604
3 605 119 603
3 591 245 604
3 604 155 591
3 245 65 604
3 591 17 245
3 433 596 603
3 603 119 433
3 596 155 603
3 433 35 596
3 246 434 605
3 605 65 246
3 434 119 605
3 246 11 434
3 608 606 607
3 607 158 608
3 606 157 607
3 608 156 606
3 610 609 607
3 607 157 610
3 609 158 607
3 610 15 609
3 612 611 606
3 606 156 612
3 611 157 606
3 612 28 611
3 614 613 608
3 608 158 614
3 613 156 608
3 614 41 613
3 617 615 616
3 616 95 617
3 615 157 616
3 617 55 615
3 611 350 616
3 616 157 611
3 350 95 616
3 611 28 350
3 209 610 615
3 615 55 209
3 610 157 615
3 209 15 610
3 351 210 617
3 617 95 351
3 210 55 617
3 351 7 210
3 620 618 619
3 619 135 620
3 618 156 619
3 620 94 618
3 613 490 619
3 619 156 613
3 490 135 619
3 613 41 490
3 342 612 618
3 618 94 342
3 612 156 618
3 342 28 612
3 491 345 620
3 620 135 491
3 345 94 620
3 491 2 345
3 623 621 622
3 622 56 623
3 621 158 622
3 623 134 621
3 609 215 622
3 622 158 609
3 215 56 622
3 609 15 215
3 484 614 621
3 621 134 484
3 614 158 621
3 484 41 614
3 216 485 623
3 623 56 216
3 485 134 623
3 216 9 485
3 626 624 625
3 625 161 626
3 624 160 625
3 626 159 624
3 628 627 625
3 625 160 628
3 627 161 625
3 628 31 627
3 630 629 624
3 624 159 630
3 629 160 624
3 630 20 629
3 632 631 626
3 626 161 632
3 631 159 626
3 632 40 631
3 635 633 634
3 634 73 635
3 633 160 634
3 635 105 633
3 629 272 634
3 634 160 629
3 272 73 634
3 629 20 272
3 382 628 633
3 633 105 382
3 628 160 633
3 382 31 628
3 273 385 635
3 635 73 273
3 385 105 635
3 273 6 385
3 638 636 637
3 637 137 638
3 636 159 637
3 638 72 636
3 631 496 637
3 637 159 631
3 496 137 637
3 631 40 496
3 265 630 636
3 636 72 265
3 630 159 636
3 265 20 630
3 497 268 638
3 638 137 497
3 268 72 638
3 497 10 268
3 641 639 640
3 640 102 641
3 639 161 640
3 641 136 639
3 627 372 640
3 640 161 627
3 372 102 640
3 627 31 372
3 489 632 639
3 639 136 489
3 632 161 639
3 489 40 632
3 373 492 641
3 641 102 373
3 492 136 641
3 373 2 492
