# vtk DataFile Version 3.0
this file was written using fslvtkio
ASCII
DATASET POLYDATA
POINTS 970 float
119.501 83.1765 -11.5978
119.895 82.285 -9.87981
118.678 82.3215 -10.039
117.949 82.7745 -10.6718
118.097 82.9276 -12.079
116.605 82.4767 -10.9791
116.74 81.9719 -11.6175
115.633 81.1012 -10.25
120.984 82.6533 -11.6408
121.289 81.6335 -10.455
119.73 82.0599 -12.5093
117.877 81.6239 -12.5024
116.285 80.3722 -11.2542
120.668 80.7288 -11.1053
119.359 80.4271 -12.4709
117.517 79.8731 -11.7546
116.916 87.9986 -4.95483
118.276 87.3341 -3.92831
117.3 87.8823 -3.62895
115.87 88.0722 -4.11404
115.831 87.7208 -5.69989
115.948 87.1075 -4.465
115.719 86.575 -5.53784
115.397 86.2398 -3.92062
118.113 87.254 -5.38067
119.205 86.5261 -3.83239
116.894 87.7402 -6.75283
115.577 87.7512 -7.24232
115.828 85.6708 -4.9633
115.386 86.3238 -6.4458
115.198 85.1704 -5.29952
119.008 87.3133 -5.76644
119.697 86.1301 -4.24686
117.716 87.5482 -7.57003
116.258 87.995 -8.52244
114.689 87.7163 -8.51294
114.967 85.6838 -6.88911
119.783 86.1678 -4.88121
118.399 86.6792 -6.68395
119.598 86.3307 -6.26744
117.15 87.2711 -8.80184
115.087 87.733 -9.96374
113.783 86.0093 -8.38426
118.776 86.1828 -7.31491
118.152 85.5456 -8.63589
116.949 85.4845 -9.56466
117.651 83.407 -8.81321
113.739 85.4988 -9.28746
115.566 84.5641 -10.0567
114.677 83.6479 -9.08891
115.504 81.9155 -9.46984
115.527 81.63 -8.3469
117.815 82.3874 -9.2993
118.843 81.5499 -8.25621
116.655 83.038 -9.74076
115.639 82.2005 -9.97776
115.625 80.3024 -8.68168
119.408 81.1654 -8.50814
121.266 80.6875 -7.84547
119.778 80.3969 -7.13507
115.929 79.4924 -9.34328
121.635 81.4994 -9.33096
122.593 80.534 -8.27359
116.705 78.6871 -10.4936
121.856 80.4768 -9.64496
121.681 79.1713 -9.69923
120.602 78.9129 -10.8568
118.822 78.6976 -11.2438
118.379 88.5662 -1.58658
119.615 88.5559 -1.04396
118.421 88.8924 -0.343212
117.207 88.8618 -1.02151
117.566 88.5073 -2.51984
116.223 88.4394 -1.58878
119.028 87.8682 -2.59005
120.37 87.375 -1.24775
115.838 88.0332 -2.65811
115.333 87.1234 -3.10726
115.382 85.741 -2.63214
119.821 86.8237 -2.582
121.113 86.2486 -1.82637
115.24 85.0911 -3.75596
114.631 84.0452 -4.24227
120.596 85.8048 -2.96333
122.067 85.0649 -2.30737
114.795 84.0587 -5.5301
114.332 84.275 -6.67068
114.359 82.832 -5.53898
120.782 85.1436 -3.62226
120.473 85.7754 -5.64715
121.765 85.1472 -4.2659
114.257 84.2912 -7.57866
114.524 82.3207 -6.12081
120.551 85.0861 -5.60716
120.071 84.434 -6.58052
121.454 83.746 -5.46263
118.994 84.6427 -7.76562
114.957 83.0126 -7.50644
116.097 80.3835 -6.98057
120.661 82.0114 -6.07428
121.658 82.5827 -4.92595
119.465 82.6477 -7.4956
116.636 79.0351 -7.2539
121.697 81.3458 -5.01086
121.206 79.9008 -6.39465
116.708 78.241 -7.95562
123.42 79.9455 -7.15409
116.687 77.7361 -9.08709
122.811 79.4422 -8.00265
121.522 78.0667 -8.05153
121.596 77.6186 -6.95465
120.672 77.521 -8.72058
119.462 77.3073 -9.93159
117.875 77.5823 -9.80247
120.579 76.6511 -7.13805
120.057 76.316 -8.04914
118.824 76.3403 -8.646
120.286 88.1928 0.423815
118.191 88.6888 0.850233
116.93 88.902 0.287569
115.911 88.0532 -0.448934
115.521 87.4494 -1.25456
115.27 86.0662 -0.156105
120.949 86.737 -0.233701
115.191 86.4423 -1.62599
114.941 84.6112 -1.49243
122.051 85.739 -0.650557
114.856 84.0695 -2.87539
114.147 82.5438 -2.85571
122.382 84.336 -0.778048
114.539 82.523 -4.3476
114.66 81.3452 -4.85751
122.481 84.5838 -2.87452
122.991 83.8758 -1.29633
114.968 80.2181 -4.91093
123.24 83.4446 -2.39575
123.286 82.0415 -1.19566
122.437 84.4009 -4.04116
116.21 80.8324 -6.05178
116.734 78.7495 -5.98037
123.454 82.6194 -2.65837
122.989 83.1025 -4.09009
123.386 82.0744 -3.23109
116.807 77.66 -6.22016
122.679 81.0613 -3.63688
121.092 79.3781 -4.9183
122.235 78.8693 -4.1696
116.76 77.3745 -7.24849
116.267 77.0197 -8.12624
116.119 76.1792 -6.89898
122.946 79.5807 -5.89166
123.526 78.5064 -5.20021
116.891 76.5937 -8.65398
116.419 75.6995 -7.54363
123.655 78.5089 -6.59485
122.834 77.4381 -6.47927
121.909 76.5497 -5.99164
117.623 76.192 -8.89459
117.41 75.343 -7.53637
120.522 76.0252 -6.08098
120.215 75.283 -6.68377
119.266 75.1259 -7.37015
118.382 75.0162 -7.60361
117.09 88.2337 1.44026
118.527 88.0043 1.23238
117.761 87.6822 2.62775
116.272 87.1356 2.31112
115.92 87.779 0.818288
115.64 86.3394 1.72404
115.147 86.7702 0.532946
115.045 85.266 1.41134
120.169 87.1786 1.24094
114.638 84.3239 0.809882
121.673 86.0822 1.15429
114.659 84.8737 -0.396829
114.524 83.158 -0.54035
122.088 84.6046 0.721344
114.433 82.8962 -1.79027
113.935 81.361 -1.7775
122.563 83.2708 0.327219
114.023 81.0894 -3.39083
113.95 79.6695 -3.51167
122.756 82.2907 -0.0285486
114.365 78.3635 -3.58984
123.316 81.1722 0.0593559
115.621 78.5059 -4.78898
116.308 76.5463 -4.90122
123.585 81.3322 -1.87201
123.582 80.3622 -0.534637
116.078 76.3674 -5.77505
116.245 76.721 -6.66603
115.899 75.3778 -5.8412
123.738 80.4159 -2.12387
122.439 79.3817 -3.04837
122.638 78.6317 -2.07743
115.756 74.6806 -6.24412
123.161 78.1658 -3.64832
122.823 77.5911 -2.84813
116.664 74.3595 -6.53785
123.603 77.4093 -4.76546
123.576 76.7001 -5.49914
122.972 76.1953 -5.47987
123.376 75.4428 -4.61443
117.639 73.8999 -6.64713
121.908 75.083 -4.8514
120.561 74.6773 -4.87511
120.002 74.377 -5.41533
119.645 73.9379 -6.06845
118.615 73.5728 -6.6748
119.241 87.0367 2.46239
117.434 86.2705 3.43479
115.9 86.2332 3.2905
115.285 85.1827 2.59506
114.538 83.5387 2.36542
120.003 85.9705 1.90431
114.417 82.4971 2.04848
121.028 84.675 2.05562
113.992 83.1498 0.693009
113.665 81.8198 0.730944
121.853 83.3123 1.93698
114.245 81.7636 -0.701692
114.117 79.811 -0.606673
122.2 82.0215 1.53492
114.376 79.6328 -1.97871
113.709 78.435 -2.12235
123.097 80.8645 1.54648
114.119 77.1003 -2.34298
123.293 79.8571 1.12762
115.173 76.7643 -3.7288
115.315 75.1945 -3.40262
123.513 78.8677 0.698212
115.212 75.3639 -4.92148
115.19 74.2873 -4.5584
123.084 79.0692 -0.816157
123.267 77.7619 -1.24075
115.655 73.7864 -5.38362
123.507 76.6514 -1.64591
116.395 73.2337 -5.57228
123.506 76.5068 -3.13791
123.248 76.1306 -3.90559
122.814 74.7665 -3.36966
117.403 72.8823 -5.80028
122.454 73.9808 -3.97623
121.276 73.4726 -4.16916
119.938 73.1942 -4.31712
119.231 73.0437 -4.92981
118.693 72.9734 -5.42409
115.903 84.8651 4.30924
118.111 85.5516 3.92158
115.978 83.6597 4.91572
114.613 83.2183 4.91431
114.939 84.4288 3.81819
113.974 82.8548 4.53215
114.824 83.607 3.3879
114.32 82.1032 3.98294
119.3 85.3099 3.27866
113.884 81.5677 3.60732
120.102 84.3509 2.93744
113.589 81.2132 3.027
120.957 83.2631 3.23784
113.276 81.242 2.02878
113.33 80.4756 1.49591
121.542 81.9775 3.20459
114.575 80.3783 0.391243
112.954 79.0935 0.672222
122.146 80.788 3.07735
113.587 78.5607 -0.664581
113.359 77.3042 -0.929003
122.679 79.5579 2.74818
113.206 76.194 -1.41809
122.635 78.6063 2.29883
114.362 75.6368 -2.42851
113.696 74.2885 -1.65368
123.493 77.5941 1.89434
115.24 74.3173 -3.57183
114.353 73.4521 -2.35916
123.493 77.8173 0.344109
123.77 76.7121 -0.140159
114.892 73.434 -3.48313
115.566 72.9656 -4.01705
122.851 75.7145 -0.222467
116.46 72.4856 -4.30869
123.759 75.2022 -1.69663
123.232 74.9682 -2.62608
122.635 73.727 -2.19574
117.485 72.2891 -4.55189
121.826 73.2166 -3.00208
120.963 72.1277 -3.08462
119.622 71.8565 -3.21041
118.751 71.9364 -3.60553
118.181 72.1171 -4.40579
118.045 83.8943 4.62453
115.944 82.4582 6.27191
114.341 82.0809 5.59757
113.524 80.9387 5.58039
113.192 80.8318 5.22519
119.262 83.6732 4.25015
112.955 80.3318 4.86621
112.69 80.2176 4.25395
111.379 79.4843 5.55632
119.947 82.7031 4.41348
112.735 80.4918 3.29848
111.36 79.6667 4.07355
120.873 81.7583 4.63544
112.025 79.9894 2.65083
113.072 79.5667 1.47409
112.452 78.6591 2.60523
121.351 80.6351 4.5498
112.778 77.8407 1.88188
122.072 79.3754 4.40343
113 77.5433 0.537013
113.475 75.9842 -0.14173
122.172 78.1868 4.14229
113.237 75.2914 -0.395665
113.386 75.0409 -1.25017
113.376 73.8939 0.203992
122.765 77.2253 3.73264
113.801 72.8819 -0.570969
122.977 76.3041 3.02385
114.361 72.0385 -1.16264
122.839 76.6446 1.49334
123.372 75.4874 1.35376
115.052 72.5088 -2.68244
115.689 71.9753 -2.89799
123.219 74.4763 0.909036
116.641 71.8799 -3.26907
123.256 74.2651 -0.565698
122.873 73.7275 -1.27902
122.54 72.544 -1.32712
117.587 71.8186 -3.63851
121.687 72.4418 -1.93171
120.398 71.6434 -2.00384
119.537 70.7829 -2.14248
118.16 70.6421 -2.51364
117.554 71.3857 -3.15528
113.896 81.9759 6.75868
114.492 81.5766 8.28721
113.071 81.776 8.37932
112.052 80.7547 8.31674
112.972 81.1447 7.00903
111.877 79.9128 8.03406
117.725 82.3353 6.09755
115.979 81.3317 7.62651
112.045 79.8763 6.73378
112.473 79.6197 6.3175
110.749 78.4457 7.33251
119.284 82.5287 5.85128
117.797 81.17 7.63368
110.782 78.2031 6.33948
119.781 81.3141 5.80895
110.997 78.218 5.25414
120.599 80.2611 5.96755
111.473 78.357 4.09645
112.484 77.0573 3.63762
121.117 79.1051 5.85753
112.704 76.309 3.05438
112.621 77.102 1.66919
112.635 76.3422 1.81262
121.281 77.9046 5.64405
113.062 75.7342 0.97662
113.353 74.6031 0.721268
113.008 73.4822 1.84485
121.166 76.8333 5.23549
113.311 72.6206 1.22645
121.375 76.1066 4.54757
113.589 71.5257 0.709357
122.148 75.274 4.05344
114.186 70.9146 0.354597
122.426 75.2787 2.83831
122.726 74.3911 2.30295
114.95 71.6626 -1.68092
114.953 70.7664 -0.410077
122.947 73.1704 1.90522
123.086 73.527 0.550492
122.51 72.8323 1.1529
115.539 70.9885 -1.84931
115.843 70.1838 -0.912632
122.654 72.828 -0.0266394
121.006 71.5202 -1.06291
121.935 72.1655 -0.341662
119.754 70.2237 -1.06121
120.371 70.9533 -0.292228
118.249 69.2864 -1.44212
119.186 69.3536 -0.448703
116.702 70.6884 -1.7534
117.099 69.3097 -0.681082
117.072 71.4929 -2.75933
112.194 81.7438 9.51003
113.908 81.0019 9.8943
112.099 80.4546 10.3721
110.994 80.3101 10.2552
111.322 81.1621 9.43733
110.639 80.0495 9.46555
115.139 80.444 9.4036
109.964 78.3944 9.56792
111.313 78.8612 8.21796
110.182 77.802 9.29013
116.426 79.9082 9.10571
109.881 77.4523 8.02211
118.953 81.1079 7.25446
117.603 79.648 8.83274
109.561 76.7444 7.71257
110.716 77.2967 6.17234
109.48 76.322 7.30714
119.512 79.9252 7.20959
110.708 77.8431 5.20551
110.215 76.9715 5.58951
120.209 78.6751 7.15679
111.252 75.9311 5.03859
112.694 75.9905 4.06977
111.651 75.3084 4.42081
120.777 77.5084 7.22176
111.755 75.2273 3.18818
112.385 74.7872 2.25134
111.447 73.7071 3.22759
120.935 76.3894 6.75702
112.349 72.2673 2.58057
121.153 75.346 6.26411
112.91 71.5154 2.01722
121.562 74.6772 5.45845
112.893 70.7687 2.08276
113.695 70.2738 1.78072
111.89 69.561 2.96816
121.728 74.411 4.80427
122.187 74.5518 4.06209
121.91 73.4617 4.99945
113.854 69.7841 1.16115
112.969 68.948 2.76244
122.511 73.5832 2.65252
121.678 73.9916 3.40692
121.813 72.8907 3.30164
114.382 69.458 0.33935
114.162 69.0546 1.99804
122.437 71.9885 1.11833
122.251 72.2205 2.34647
121.835 71.3689 2.06827
115.186 68.8093 0.855078
115.859 69.4444 0.0417681
121.635 71.4618 0.703073
120.504 70.9445 0.505901
119.024 69.7519 0.533115
117.493 68.6438 0.310694
111.036 79.6539 11.5181
112.498 79.2509 11.1825
111.507 79.6518 12.5983
109.575 80.2242 13.0714
110.233 79.398 11.1774
108.915 79.7475 12.6046
108.899 78.8895 11.6903
107.876 78.8973 12.7707
114.321 79.378 10.9972
109.55 78.8764 10.7141
107.976 77.7494 11.9015
115.45 79.045 10.5964
108.528 77.1542 10.9291
109.152 76.7812 9.46922
108.397 76.1901 10.3744
116.428 78.2237 10.4685
109.045 77.0738 8.38177
108.507 76.0929 9.00178
118.406 79.3718 8.3533
117.432 78.1467 9.83558
107.871 75.11 8.80429
109.284 75.7178 7.12211
108.486 74.7115 7.95453
119.015 78.4132 8.20908
109.721 76.2472 5.85832
109.219 75.2662 6.34464
119.325 77.1298 8.32403
109.912 74.5244 5.57469
110.39 74.6427 4.05355
110.099 73.4704 4.78028
119.526 76.0612 8.06643
110.912 72.3842 4.06602
120.348 75.1152 7.70557
111.056 71.5332 3.66714
111.209 70.8671 3.19025
110.827 70.2304 4.79832
120.677 74.263 7.13315
121.034 73.7755 6.66503
119.772 72.7017 7.97546
111.664 70.3733 2.89547
111.225 69.4423 4.36185
121.419 73.5754 5.80252
120.733 72.4509 6.94514
112.21 68.6455 4.08628
121.786 72.1617 5.81022
113.166 68.0552 3.42511
121.428 72.4936 4.6368
120.606 72.1778 3.91163
114.923 68.5704 2.08211
121.25 71.827 3.19914
121.21 70.7112 1.80677
121.138 70.3353 3.15794
120.517 69.8769 2.55818
115.909 68.5468 1.30881
116.542 68.8047 1.02091
120.462 70.15 1.47855
119.331 69.6332 1.30635
118.204 68.6351 1.12017
112.562 78.5668 12.8339
110.687 79.6934 13.8998
108.799 80.3175 14.1089
107.257 79.7948 13.7006
107.026 78.0031 13.3383
113.903 78.0144 12.4351
106.441 76.7174 13.2226
107.643 76.9586 12.0068
106.901 76.4448 12.2503
114.803 77.6127 12.0523
106.944 75.9573 11.3498
107.447 75.2138 10.7079
106.249 74.3591 12.1035
116.022 77.0831 11.8572
107.491 75.1635 9.81334
106.621 74.1461 11.063
117.962 77.578 9.70885
117.057 76.5967 11.2419
107.282 74.2114 9.38209
108.212 73.8231 8.14497
107.87 72.7471 9.2144
118.821 77.0343 9.57152
117.63 76.042 10.7483
108.903 74.5164 6.54083
108.543 72.9363 7.37293
119.201 75.608 9.68561
109.533 72.9846 6.15251
109.752 72.13 5.18986
109.21 71.3787 6.35301
119.629 74.6049 9.19211
110.212 71.196 4.92376
109.507 70.1453 6.09092
119.637 74.068 8.46289
119.887 73.5801 8.07049
119.051 72.4314 9.23445
110.734 69.1146 5.7454
118.934 71.5535 8.08428
111.633 68.1917 5.48701
119.894 71.4167 7.07583
121.152 71.4476 6.27443
120.088 70.4246 6.50524
112.385 67.5104 4.77035
121.557 71.745 5.54444
120.807 70.9636 5.61927
114.239 67.6467 3.29363
120.041 71.3748 3.85995
120.415 71.4108 4.65786
119.679 70.5559 3.94383
119.687 70.5248 4.59769
119.205 69.7437 4.51614
115.709 68.1097 2.08518
114.975 66.9877 3.50645
116.312 67.5671 3.0356
119.617 69.158 2.48681
119.484 69.7476 3.4308
118.305 68.6893 1.99671
118.22 69.0535 3.04152
117.148 68.2678 1.93067
117.404 68.3434 2.86243
109.152 80.1083 15.232
110.849 78.6853 14.4868
109.688 78.7714 15.9124
108.182 79.3673 16.5495
107.678 79.6101 15.0921
106.522 79.5213 15.9364
106.11 78.7597 14.7737
104.691 78.8506 15.583
105.19 77.6411 14.7986
104.047 77.2002 15.645
111.991 77.3571 14.0699
105.819 77.4687 13.9517
104.585 75.987 14.8101
112.691 76.6935 13.6766
105.111 75.5951 13.6685
105.755 75.2044 12.7178
104.489 74.2092 13.7021
113.971 76.4404 13.0755
105.325 73.259 13.0208
115.666 76.0422 12.6443
106.059 72.523 12.4085
107.047 73.1283 10.5189
106.787 72.239 10.6682
116.45 75.1781 12.5914
107.745 72.0051 8.90169
117.951 74.9396 10.6843
116.883 74.5243 11.9512
108.413 71.769 7.85351
118.71 73.7458 10.2508
117.989 73.4395 11.3548
109.048 72.0767 7.01195
109.079 69.938 7.47268
119.136 73.2857 9.4705
118.332 72.0855 10.469
109.6 68.9069 6.8779
118.642 71.0582 9.49021
110.952 67.9974 6.55379
119.006 69.7686 8.83555
118.84 70.4656 7.28758
118.541 69.6201 7.51296
118.925 69.1249 8.61086
118.292 68.6769 8.59982
112.461 67.2605 6.23018
119.409 69.286 6.37723
118.34 68.8285 7.50125
113.149 66.9275 5.03074
113.13 66.3282 6.03091
114.12 66.2256 5.06359
120.333 70.0614 5.47487
118.564 68.3766 6.60308
119.357 69.2899 5.5591
118.664 68.2359 5.65546
114.075 67.3259 4.22656
115.462 66.6491 4.64254
118.526 68.3745 4.87066
116.841 67.0407 3.88366
118.892 69.2361 4.30957
118.209 68.5441 3.97634
117.64 67.6627 3.83944
104.618 79.3422 17.8693
106.441 78.9754 18.4074
105.128 78.2748 19.0381
103.979 78.6315 19.295
103.355 79.1909 17.4308
102.589 78.722 18.8393
102.215 78.1927 17.1362
101.727 77.9032 18.492
106.404 79.4486 17.1844
107.669 77.9375 17.9244
104.431 79.4196 16.6758
103.172 78.0902 16.2488
101.643 77.0604 17.6483
102.123 76.6161 16.7211
100.765 76.3206 17.8842
110.274 77.4493 15.4831
108.89 77.611 16.911
103.012 75.7574 15.8254
101.246 75.3699 17.4727
101.795 74.7599 16.6635
100.398 74.1107 18.199
110.867 76.1609 15.2035
103.522 74.5853 14.8833
102.715 73.7035 15.9841
101.263 73.0948 17.2227
112.59 75.5468 14.873
103.406 72.7532 14.7147
102.643 72.1077 16.1056
113.943 75.5354 13.6538
104.994 72.3762 13.6459
104.27 71.2698 14.5567
115.102 74.7441 13.4512
105.979 71.7387 12.5166
107.491 71.3422 10.4468
107.489 70.9113 11.5815
115.801 73.6992 12.875
108.218 70.9798 8.66696
108.37 70.228 10.2579
116.823 72.8495 12.257
108.732 71.038 7.83197
108.94 69.7255 8.92049
117.605 72.1454 11.4528
109.131 68.5562 8.32841
117.445 70.7058 11.4508
118.108 70.5668 10.4403
117.189 69.7696 11.2822
110.245 67.7945 7.8668
118.14 69.8095 9.74585
117.217 69.6342 10.2776
111.608 67.2315 7.33084
117.991 68.4751 9.78462
117.614 67.987 9.09
112.835 66.4979 7.11945
117.162 68.2149 8.12627
117.434 68.4354 7.36338
116.89 67.7818 7.61438
113.706 66.1502 6.83378
114.588 65.6651 6.06118
117.833 67.2274 5.65935
117.511 67.3423 6.74418
116.733 66.6169 5.66648
116.603 66.5953 6.71041
115.804 66.2122 5.47188
115.693 65.6894 6.51909
117.975 68.0903 4.64783
117.405 67.3358 4.76807
116.748 66.6072 4.77354
102.756 79.2528 20.2503
103.991 78.1549 20.7778
103.032 77.7535 21.6685
102.085 78.9885 21.6248
101.125 79.4513 19.3934
100.517 79.6706 20.2743
99.4902 78.809 19.007
98.6628 78.8932 19.7329
106.436 77.5217 19.4317
104.856 76.8816 20.3662
100.429 77.4193 18.6403
98.3631 77.3979 19.2113
99.1349 76.2295 19.0692
97.7582 75.6697 19.5901
106.951 76.5907 18.6485
99.7204 75.3762 18.2108
98.5958 74.2409 19.4328
109.406 76.2435 16.7291
108.192 75.9901 18.0948
99.8332 72.8063 18.9031
110.795 75.0646 16.4464
109.236 74.9024 17.7298
101.461 71.7696 17.6937
111.649 74.5631 15.6431
110.572 73.902 17.0282
103.423 70.9041 16.1486
113.526 74.5568 14.8428
111.997 73.6686 16.0704
104.748 70.1166 14.7135
114.345 73.6702 14.1629
105.991 70.8936 13.0469
107.504 70.0403 11.8608
114.259 72.7212 13.8988
115.574 72.2021 12.8591
114.578 71.5657 13.7466
108.63 69.3775 10.6712
116.597 71.5673 12.2971
115.523 70.7051 13.1528
109.731 68.874 9.90324
117.105 71.1578 11.8972
116.22 70.3628 12.3686
110.072 67.6092 9.35141
116.805 68.9025 11.0371
115.721 69.5387 11.9187
115.83 68.4311 11.449
111.366 67.1074 8.72665
116.845 68.8392 10.2426
116.093 68.4632 10.3186
112.165 66.2757 8.15272
116.773 67.0669 8.85803
116.693 67.5925 9.65728
115.845 66.2727 8.7615
116.039 66.3147 9.91195
115.073 65.1697 8.64156
115.035 65.3125 9.99111
113.976 65.0337 8.50533
113.832 64.9233 9.54032
113.262 65.543 7.78215
112.759 65.3687 8.98338
116.546 66.7288 7.80032
115.745 65.8977 7.59345
114.496 65.4784 7.31624
94.792 84.3628 21.9484
96.6775 84.4853 22.9437
95.0812 84.1764 24.258
93.0043 84.7891 22.9337
94.1014 81.8545 21.929
93.106 82.8438 22.6506
92.7025 81.038 22.3196
91.7283 80.9088 22.8762
96.6434 83.21 21.7553
98.1425 82.5957 23.2439
94.8126 82.1215 21.5574
93.9468 79.851 21.8613
92.1611 79.1562 22.8879
97.5285 81.149 21.8496
98.4627 80.2221 23.6891
95.9077 80.3332 21.7275
94.6032 78.3706 21.5466
93.1288 77.46 22.5773
99.3258 80.6908 21.9331
100.168 78.1473 23.0146
99.334 78.7601 23.7529
97.4463 80.019 20.7486
95.9291 78.4553 21.1859
94.8633 76.2166 21.6576
94.4324 75.5518 23.2103
100.721 79.6395 21.7132
100.949 76.7911 23.0413
98.7605 79.9693 20.3782
96.4804 77.798 20.4256
95.301 75.7546 20.913
103.552 76.265 21.6086
101.803 76.2697 22.474
97.687 77.528 19.9199
96.4605 75.1859 20.2498
105.904 75.8857 19.9348
104.505 75.2978 21.1284
97.4744 73.6113 20.3757
107.184 75.0575 19.6041
98.5447 72.4691 19.9043
108.057 74.1692 18.8608
99.7323 71.49 19.1772
109.217 73.5131 18.1355
101.605 70.6496 17.6597
110.309 72.7444 17.4423
103.859 70.0101 16.2764
113.016 73.2484 15.2769
111.285 72.3494 16.4555
105.43 69.165 14.8658
113.724 72.8851 14.6318
112.821 72.2044 15.3008
106.454 69.8997 13.3794
107.925 69.1652 12.2446
114.171 70.4317 14.0941
113.531 71.6372 14.5387
113.237 70.278 14.9189
109.192 68.7212 11.6404
114.702 69.5931 13.4103
113.411 69.3363 14.4835
110.136 68.2872 10.7293
115.362 69.4341 12.7072
114.077 68.4971 13.4728
110.366 67.4801 10.435
110.451 67.9927 11.4583
110.613 67.3513 11.4781
114.877 67.7238 11.3208
114.71 68.4995 12.3941
113.947 67.6848 12.3061
110.813 66.8278 9.97618
111.645 66.5989 11.0061
115.582 67.3308 10.4693
114.366 66.8179 11.7385
114.827 66.2715 10.841
113.541 65.7521 10.6787
113.716 65.7065 11.8136
112.401 66.2093 10.2449
112.61 65.9467 11.3625
111.99 66.673 9.26899
96.4606 82.8555 24.2059
94.5324 82.028 25.2075
93.2812 83.0311 25.1279
92.2196 83.0417 23.9106
90.693 79.8996 24.1284
97.1992 80.3233 24.2426
92.0283 77.6547 24.3196
97.877 77.6065 24.8653
93.3201 75.8835 24.302
99.6726 75.3209 24.0993
98.6668 76.4232 24.4102
94.133 73.8528 24.5585
94.6584 73.6246 22.6321
100.522 74.1668 23.4869
95.5405 73.6333 21.3804
102.556 74.653 22.3519
101.188 74.0834 22.7255
96.9906 72.5204 21.4427
105.561 74.2666 20.9336
103.7 73.6895 22.039
98.2416 71.5443 21.1351
106.752 73.6679 20.2142
104.881 72.7374 21.4144
99.3678 70.8088 20.3754
107.78 72.863 19.3131
106.151 72.1765 20.4485
100.433 70.3371 19.1022
109.152 72.2118 18.4796
107.494 71.5294 19.4986
102.347 69.6279 17.7498
109.961 71.6307 17.2583
108.568 71.1438 18.418
104.076 69.1953 16.5071
111.596 71.1947 16.3377
109.138 70.7291 17.6204
110.54 70.4455 17.1822
108.87 69.8974 17.5559
105.268 68.4362 15.4967
112.401 70.8779 15.4546
111.524 69.6408 16.3819
109.87 69.1448 16.9273
106.943 68.9846 13.6343
107.425 68.3538 14.5699
112.22 69.4274 15.4108
111.006 68.6733 15.9836
108.206 68.2505 13.0266
108.704 67.4632 13.7048
112.976 68.079 14.5025
111.866 67.9652 15.2221
109.654 67.9415 12.2264
109.768 67.1885 13.2939
113.405 67.9569 13.1694
112.658 67.2221 14.3968
113.051 66.9867 13.7115
111.794 66.8994 13.2632
111.893 66.9133 14.076
110.491 67.1033 12.6804
110.73 66.9772 13.7523
113.55 66.8086 12.7138
112.585 66.2326 12.5253
111.673 66.5036 12.1215
95.7458 80.8785 25.0327
94.2322 80.2368 25.8954
92.218 81.3059 25.8511
90.529 81.2268 26.1143
90.9934 78.1465 25.7891
96.4616 78.6261 25.0453
92.1245 76.4376 25.4785
96.4912 76.7005 25.4692
93.4918 75.4089 25.3302
98.3755 73.8251 25.3175
96.8573 75.0979 25.5016
96.587 72.2888 26.2897
94.9208 72.0617 24.9468
95.2165 73.6038 26.3076
93.9986 74.6313 25.9754
99.4768 72.6617 24.5914
98.6088 71.3489 25.942
96.412 70.4775 25.6645
95.5735 71.7504 23.7887
96.425 71.8922 22.6741
101.867 72.6984 22.7187
100.692 72.0394 23.7363
97.9368 70.5486 22.4653
103.381 71.843 22.2247
101.925 70.8713 23.0954
98.9418 69.5825 21.6082
104.683 71.1288 21.4429
103.271 70.1543 22.1409
100.093 69.447 20.3743
105.815 70.7686 20.4291
104.81 69.5923 21.3118
101.226 69.0658 19.0051
107.061 70.3167 19.4701
105.71 69.5334 19.9949
102.859 68.4612 17.988
108.038 70.2215 18.4008
107.152 69.3455 18.9544
104.34 68.0602 16.8426
108.304 68.926 17.9493
105.812 67.6285 16.0937
108.734 68.7113 17.0565
109.977 67.8342 16.4633
108.36 67.119 16.021
108.22 68.0372 16.9176
106.936 67.5521 15.5206
106.982 67.5472 16.7494
110.786 67.5599 15.6244
109.599 67.1851 15.4377
108.047 67.3574 14.9638
111.75 66.8243 15.1137
110.661 66.5155 14.833
109.332 66.4776 14.4802
94.8888 78.9183 25.6408
93.0735 78.95 26.3526
91.6554 79.4027 26.6993
95.2507 77.2245 25.5857
93.8049 77.5533 26.1365
92.1686 77.0665 26.8032
95.7313 75.4561 26.0524
94.6364 75.7167 26.5863
93.1486 75.8721 26.3779
99.8906 70.5086 24.6844
98.1322 69.6833 25.1342
96.7185 70.5048 24.2265
100.703 69.8083 23.6042
99.4075 68.8327 24.2137
97.5097 69.4271 23.6769
101.901 69.1643 22.4705
100.449 67.8669 23.087
98.5735 68.3597 22.7564
103.248 68.696 21.5863
101.671 68.115 21.6465
100.083 68.1401 21.6242
104.406 68.3196 20.515
102.81 67.9597 20.4067
101.349 68.5409 20.2417
105.474 68.8167 19.1014
103.978 67.7991 19.4015
102.291 67.832 19.1135
106.863 68.4247 18.2818
105.556 67.9835 18.3648
104.009 67.8018 18.3473
107.919 68.2844 17.6181
107.157 68.1429 17.5571
105.651 67.7203 17.3713
POLYGONS 1936  7744
3 0 1 2
3 0 3 4
3 2 3 0
3 4 5 6
3 3 5 4
3 5 7 6
3 8 1 0
3 9 1 8
3 4 10 0
3 10 8 0
3 6 11 4
3 11 10 4
3 12 6 7
3 11 6 12
3 8 13 9
3 10 13 8
3 14 13 10
3 11 14 10
3 15 14 11
3 12 15 11
3 16 17 18
3 16 19 20
3 18 19 16
3 20 21 22
3 19 21 20
3 21 23 22
3 24 17 16
3 25 17 24
3 20 26 16
3 26 24 16
3 22 27 20
3 27 26 20
3 28 22 23
3 28 29 22
3 29 27 22
3 28 30 29
3 31 25 24
3 32 25 31
3 26 33 24
3 33 31 24
3 27 34 26
3 34 33 26
3 29 35 27
3 35 34 27
3 36 29 30
3 35 29 36
3 31 37 32
3 37 38 39
3 37 31 38
3 31 33 38
3 34 40 33
3 40 38 33
3 35 41 34
3 41 40 34
3 42 35 36
3 41 35 42
3 38 43 39
3 40 43 38
3 44 43 40
3 44 45 46
3 44 40 45
3 40 41 45
3 47 41 42
3 47 48 41
3 48 45 41
3 48 49 50
3 47 49 48
3 49 51 50
3 52 46 45
3 53 46 52
3 48 54 45
3 54 52 45
3 50 55 48
3 55 54 48
3 56 50 51
3 55 50 56
3 57 58 59
3 53 57 59
3 52 57 53
3 52 1 57
3 52 2 1
3 3 2 52
3 54 3 52
3 5 3 54
3 55 5 54
3 55 7 5
3 55 56 7
3 56 60 7
3 61 58 57
3 62 58 61
3 1 9 61
3 57 1 61
3 7 60 12
3 60 63 12
3 61 64 62
3 9 64 61
3 9 13 64
3 13 65 64
3 14 66 13
3 13 66 65
3 15 67 14
3 14 67 66
3 63 15 12
3 67 15 63
3 68 69 70
3 68 71 72
3 70 71 68
3 71 73 72
3 74 69 68
3 75 69 74
3 18 17 74
3 18 74 72
3 72 74 68
3 72 73 76
3 72 76 18
3 18 76 19
3 21 19 77
3 19 76 77
3 77 23 21
3 78 23 77
3 79 75 74
3 80 75 79
3 17 25 79
3 74 17 79
3 23 78 81
3 28 23 81
3 81 30 28
3 82 30 81
3 83 80 79
3 84 80 83
3 25 32 83
3 79 25 83
3 85 86 36
3 85 36 82
3 82 36 30
3 85 87 86
3 83 88 84
3 89 90 88
3 37 89 88
3 37 88 83
3 37 83 32
3 37 39 89
3 86 91 42
3 36 86 42
3 92 86 87
3 91 86 92
3 89 93 90
3 94 95 93
3 43 94 93
3 43 93 89
3 43 89 39
3 43 44 96
3 94 43 96
3 44 46 96
3 42 91 47
3 91 92 97
3 91 97 47
3 47 97 49
3 97 51 49
3 98 51 97
3 99 95 94
3 100 95 99
3 96 101 94
3 101 99 94
3 46 53 101
3 96 46 101
3 51 98 56
3 98 102 56
3 99 103 100
3 59 58 104
3 59 104 99
3 59 99 101
3 99 104 103
3 53 59 101
3 56 102 60
3 102 105 60
3 58 62 104
3 104 62 106
3 60 105 63
3 105 107 63
3 62 108 106
3 64 108 62
3 109 110 108
3 109 108 65
3 65 108 64
3 65 66 111
3 109 65 111
3 66 67 112
3 111 66 112
3 67 113 112
3 67 63 113
3 63 107 113
3 109 114 110
3 111 114 109
3 115 114 111
3 112 115 111
3 116 115 112
3 113 116 112
3 70 117 118
3 69 117 70
3 71 70 119
3 70 118 119
3 73 120 121
3 73 71 120
3 71 119 120
3 120 122 121
3 69 75 117
3 117 75 123
3 73 121 76
3 121 122 124
3 121 124 76
3 76 124 77
3 124 78 77
3 125 78 124
3 75 80 123
3 123 80 126
3 78 125 127
3 81 78 127
3 127 82 81
3 128 82 127
3 80 84 126
3 126 84 129
3 82 128 130
3 85 82 130
3 130 87 85
3 131 87 130
3 132 84 88
3 132 133 84
3 133 129 84
3 88 90 132
3 87 131 92
3 131 134 92
3 135 133 132
3 136 133 135
3 90 93 137
3 90 137 132
3 132 137 135
3 93 95 137
3 92 134 138
3 97 92 138
3 138 98 97
3 139 98 138
3 135 140 136
3 140 141 142
3 140 135 141
3 135 137 141
3 95 100 141
3 137 95 141
3 98 139 102
3 139 143 102
3 141 144 142
3 145 146 144
3 103 145 144
3 103 144 141
3 103 141 100
3 103 104 145
3 147 148 105
3 147 105 143
3 143 105 102
3 147 149 148
3 150 146 145
3 151 146 150
3 104 106 150
3 145 104 150
3 148 152 107
3 105 148 107
3 153 148 149
3 152 148 153
3 150 154 151
3 106 154 150
3 106 108 154
3 108 155 154
3 155 108 110
3 156 155 110
3 152 157 113
3 107 152 113
3 158 152 153
3 157 152 158
3 110 159 156
3 114 159 110
3 115 160 114
3 114 160 159
3 116 161 115
3 115 161 160
3 157 116 113
3 157 162 116
3 162 161 116
3 158 162 157
3 163 164 165
3 163 166 167
3 165 166 163
3 167 168 169
3 166 168 167
3 168 170 169
3 118 164 163
3 118 117 164
3 117 171 164
3 119 118 163
3 167 119 163
3 120 119 167
3 169 120 167
3 169 122 120
3 169 170 122
3 170 172 122
3 117 123 171
3 171 123 173
3 122 172 174
3 124 122 174
3 174 125 124
3 175 125 174
3 123 126 173
3 173 126 176
3 125 175 177
3 127 125 177
3 177 128 127
3 178 128 177
3 126 129 176
3 176 129 179
3 128 178 180
3 130 128 180
3 180 131 130
3 181 131 180
3 129 133 179
3 179 133 182
3 131 181 134
3 181 183 134
3 133 136 182
3 182 136 184
3 134 183 185
3 138 134 185
3 185 139 138
3 186 139 185
3 187 136 140
3 187 188 136
3 188 184 136
3 140 142 187
3 189 190 143
3 189 143 186
3 186 143 139
3 189 191 190
3 187 192 188
3 193 194 192
3 144 193 192
3 144 192 187
3 144 187 142
3 144 146 193
3 143 190 147
3 190 149 147
3 190 191 149
3 191 195 149
3 196 194 193
3 197 194 196
3 146 151 196
3 193 146 196
3 149 195 153
3 195 198 153
3 196 199 197
3 151 199 196
3 151 154 199
3 154 200 199
3 201 202 200
3 201 200 155
3 155 200 154
3 155 156 201
3 153 198 158
3 198 203 158
3 201 204 202
3 156 204 201
3 156 159 204
3 159 205 204
3 160 206 159
3 159 206 205
3 161 207 160
3 160 207 206
3 162 208 161
3 161 208 207
3 203 162 158
3 208 162 203
3 165 209 210
3 164 209 165
3 166 165 211
3 165 210 211
3 168 166 212
3 166 211 212
3 212 170 168
3 213 170 212
3 164 171 209
3 209 171 214
3 170 213 172
3 213 215 172
3 171 173 214
3 214 173 216
3 172 215 217
3 174 172 217
3 217 175 174
3 218 175 217
3 173 176 216
3 216 176 219
3 175 218 220
3 177 175 220
3 220 178 177
3 221 178 220
3 176 179 219
3 219 179 222
3 178 221 223
3 180 178 223
3 223 181 180
3 224 181 223
3 179 182 222
3 222 182 225
3 181 224 183
3 224 226 183
3 182 184 225
3 225 184 227
3 183 226 228
3 185 183 228
3 228 186 185
3 229 186 228
3 184 188 227
3 227 188 230
3 186 229 231
3 189 186 231
3 231 191 189
3 232 191 231
3 188 233 230
3 192 233 188
3 233 192 194
3 234 233 194
3 191 232 195
3 232 235 195
3 194 197 234
3 234 197 236
3 195 235 198
3 235 237 198
3 197 238 236
3 199 238 197
3 200 239 199
3 199 239 238
3 239 200 202
3 240 239 202
3 198 237 203
3 237 241 203
3 202 242 240
3 204 242 202
3 205 243 204
3 204 243 242
3 206 244 205
3 205 244 243
3 207 245 206
3 206 245 244
3 208 246 207
3 207 246 245
3 241 208 203
3 246 208 241
3 247 248 249
3 247 250 251
3 249 250 247
3 251 252 253
3 250 252 251
3 252 254 253
3 210 248 247
3 210 209 248
3 209 255 248
3 211 210 247
3 251 211 247
3 212 211 251
3 253 212 251
3 253 213 212
3 253 254 213
3 254 256 213
3 209 214 255
3 255 214 257
3 213 256 215
3 256 258 215
3 214 216 257
3 257 216 259
3 215 258 260
3 217 215 260
3 260 218 217
3 261 218 260
3 216 219 259
3 259 219 262
3 218 261 263
3 220 218 263
3 263 221 220
3 264 221 263
3 219 222 262
3 262 222 265
3 221 264 266
3 223 221 266
3 266 224 223
3 267 224 266
3 222 225 265
3 265 225 268
3 224 267 226
3 267 269 226
3 225 227 268
3 268 227 270
3 226 269 271
3 228 226 271
3 271 229 228
3 272 229 271
3 227 230 270
3 270 230 273
3 274 231 229
3 274 229 275
3 275 229 272
3 231 274 232
3 230 276 273
3 233 276 230
3 276 233 234
3 277 276 234
3 274 275 278
3 278 232 274
3 278 279 232
3 279 235 232
3 234 236 277
3 277 236 280
3 235 279 237
3 279 281 237
3 236 282 280
3 238 282 236
3 239 283 238
3 238 283 282
3 283 239 240
3 284 283 240
3 237 281 241
3 281 285 241
3 240 286 284
3 242 286 240
3 243 287 242
3 242 287 286
3 244 288 243
3 243 288 287
3 245 289 244
3 244 289 288
3 246 290 245
3 245 290 289
3 285 246 241
3 290 246 285
3 249 291 292
3 248 291 249
3 250 249 293
3 249 292 293
3 252 250 294
3 250 293 294
3 294 254 252
3 295 254 294
3 248 255 291
3 291 255 296
3 297 298 256
3 297 256 295
3 295 256 254
3 297 299 298
3 255 257 296
3 296 257 300
3 298 301 258
3 256 298 258
3 302 298 299
3 301 298 302
3 257 259 300
3 300 259 303
3 258 301 260
3 261 304 305
3 260 304 261
3 260 302 304
3 260 301 302
3 304 306 305
3 259 262 303
3 303 262 307
3 261 305 263
3 305 264 263
3 305 306 264
3 306 308 264
3 262 265 307
3 307 265 309
3 264 308 310
3 266 264 310
3 310 267 266
3 311 267 310
3 265 268 309
3 309 268 312
3 313 314 269
3 313 269 311
3 311 269 267
3 313 315 314
3 268 270 312
3 312 270 316
3 269 314 271
3 314 272 271
3 314 315 272
3 315 317 272
3 270 273 316
3 316 273 318
3 272 317 275
3 317 319 275
3 273 320 318
3 276 320 273
3 320 276 277
3 321 320 277
3 275 319 322
3 278 275 322
3 322 279 278
3 323 279 322
3 277 280 321
3 321 280 324
3 279 323 281
3 323 325 281
3 280 326 324
3 282 326 280
3 283 327 282
3 282 327 326
3 327 283 284
3 328 327 284
3 281 325 285
3 325 329 285
3 284 330 328
3 286 330 284
3 287 331 286
3 286 331 330
3 288 332 287
3 287 332 331
3 289 333 288
3 288 333 332
3 290 334 289
3 289 334 333
3 329 290 285
3 334 290 329
3 335 336 337
3 335 338 339
3 337 338 335
3 338 340 339
3 292 291 341
3 335 342 336
3 335 292 342
3 335 293 292
3 341 342 292
3 294 293 335
3 339 294 335
3 295 343 344
3 294 343 295
3 294 340 343
3 294 339 340
3 343 345 344
3 341 346 347
3 341 291 346
3 291 296 346
3 342 341 347
3 295 344 297
3 344 299 297
3 344 345 299
3 345 348 299
3 296 300 346
3 346 300 349
3 299 348 302
3 348 350 302
3 300 303 349
3 349 303 351
3 302 350 352
3 304 302 352
3 352 306 304
3 353 306 352
3 303 307 351
3 351 307 354
3 355 356 308
3 355 308 353
3 353 308 306
3 355 357 356
3 307 309 354
3 354 309 358
3 308 356 310
3 311 359 360
3 310 359 311
3 310 357 359
3 310 356 357
3 359 361 360
3 309 312 358
3 358 312 362
3 311 360 313
3 360 315 313
3 360 361 315
3 361 363 315
3 312 316 362
3 362 316 364
3 315 363 317
3 363 365 317
3 316 318 364
3 364 318 366
3 317 365 319
3 365 367 319
3 318 368 366
3 320 368 318
3 368 320 321
3 369 368 321
3 370 322 319
3 370 319 371
3 371 319 367
3 322 370 323
3 372 324 373
3 372 369 324
3 369 321 324
3 372 373 374
3 375 370 371
3 376 375 371
3 323 375 325
3 370 375 323
3 324 326 373
3 373 377 374
3 373 326 377
3 326 327 377
3 328 378 379
3 328 379 327
3 327 379 377
3 378 380 381
3 379 378 381
3 380 382 383
3 381 380 383
3 382 384 385
3 383 382 385
3 376 385 384
3 376 384 375
3 375 384 386
3 325 386 329
3 375 386 325
3 328 330 378
3 331 378 330
3 380 378 331
3 332 380 331
3 382 380 332
3 333 382 332
3 384 382 333
3 334 384 333
3 386 384 334
3 329 386 334
3 387 388 389
3 387 390 391
3 389 390 387
3 390 392 391
3 337 388 387
3 337 336 388
3 336 393 388
3 338 337 387
3 391 338 387
3 340 394 395
3 338 394 340
3 338 392 394
3 338 391 392
3 394 396 395
3 336 342 393
3 393 342 397
3 340 395 343
3 395 345 343
3 395 396 345
3 396 398 345
3 347 399 400
3 346 399 347
3 397 342 347
3 400 397 347
3 401 402 348
3 401 348 398
3 398 348 345
3 401 403 402
3 346 349 399
3 399 349 404
3 402 405 350
3 348 402 350
3 406 402 403
3 405 402 406
3 349 351 404
3 404 351 407
3 350 405 352
3 353 408 409
3 352 408 353
3 352 406 408
3 352 405 406
3 408 410 409
3 351 354 407
3 407 354 411
3 353 409 355
3 357 412 413
3 355 412 357
3 355 410 412
3 355 409 410
3 412 414 413
3 354 358 411
3 411 358 415
3 357 413 359
3 413 361 359
3 413 414 361
3 414 416 361
3 358 362 415
3 415 362 417
3 361 416 363
3 416 418 363
3 362 364 417
3 417 364 419
3 420 421 365
3 420 365 418
3 418 365 363
3 420 422 421
3 423 366 424
3 423 419 366
3 419 364 366
3 423 424 425
3 421 426 367
3 365 421 367
3 427 421 422
3 426 421 427
3 366 368 424
3 369 428 429
3 368 369 429
3 368 429 425
3 368 425 424
3 429 428 430
3 426 431 371
3 367 426 371
3 432 426 427
3 431 426 432
3 369 372 428
3 374 433 434
3 372 374 434
3 372 434 430
3 372 430 428
3 434 433 435
3 431 436 437
3 431 437 371
3 371 437 376
3 432 436 431
3 374 377 433
3 433 438 435
3 433 377 438
3 377 379 438
3 381 439 379
3 379 439 438
3 383 440 381
3 381 440 439
3 385 441 383
3 383 441 440
3 437 385 376
3 441 385 437
3 442 443 444
3 442 445 446
3 444 445 442
3 446 447 448
3 445 447 446
3 447 449 448
3 389 443 442
3 389 388 443
3 388 450 443
3 390 389 442
3 446 390 442
3 392 390 446
3 392 446 451
3 451 446 448
3 452 448 449
3 451 448 452
3 388 393 450
3 450 393 453
3 392 451 394
3 396 454 455
3 394 454 396
3 394 452 454
3 394 451 452
3 454 456 455
3 393 397 453
3 453 397 457
3 455 458 398
3 396 455 398
3 459 455 456
3 458 455 459
3 400 460 461
3 399 460 400
3 457 397 400
3 461 457 400
3 398 458 401
3 403 462 463
3 401 462 403
3 401 459 462
3 401 458 459
3 462 464 463
3 399 404 460
3 460 404 465
3 463 466 406
3 403 463 406
3 467 463 464
3 466 463 467
3 404 407 465
3 465 407 468
3 406 466 408
3 410 469 470
3 408 469 410
3 408 467 469
3 408 466 467
3 469 471 470
3 407 411 468
3 468 411 472
3 410 470 412
3 470 414 412
3 470 471 414
3 471 473 414
3 411 415 472
3 472 415 474
3 475 476 416
3 475 416 473
3 473 416 414
3 475 477 476
3 478 417 479
3 478 474 417
3 474 415 417
3 478 479 480
3 476 481 418
3 416 476 418
3 482 476 477
3 481 476 482
3 479 419 483
3 417 419 479
3 484 480 479
3 483 484 479
3 418 481 420
3 481 422 420
3 481 482 422
3 482 485 422
3 419 423 483
3 483 423 425
3 483 425 484
3 484 425 486
3 422 485 427
3 485 487 427
3 425 488 486
3 429 488 425
3 488 429 430
3 489 488 430
3 427 487 432
3 487 490 432
3 430 491 489
3 434 491 430
3 435 492 493
3 435 493 434
3 434 493 491
3 493 492 494
3 436 495 496
3 437 436 496
3 490 436 432
3 495 436 490
3 435 438 492
3 492 497 494
3 492 438 497
3 438 439 497
3 440 498 439
3 439 498 497
3 441 499 440
3 440 499 498
3 496 441 437
3 499 441 496
3 444 500 501
3 443 500 444
3 445 444 502
3 444 501 502
3 447 445 503
3 445 502 503
3 503 449 447
3 504 449 503
3 443 450 500
3 500 450 505
3 506 507 452
3 506 452 504
3 504 452 449
3 506 508 507
3 450 453 505
3 505 453 509
3 452 507 454
3 456 510 511
3 454 510 456
3 454 508 510
3 454 507 508
3 510 512 511
3 453 457 509
3 509 457 513
3 511 514 459
3 456 511 459
3 515 511 512
3 514 511 515
3 461 460 516
3 461 516 517
3 461 517 457
3 457 517 513
3 459 514 462
3 464 518 519
3 462 518 464
3 462 515 518
3 462 514 515
3 518 520 519
3 516 521 522
3 516 460 521
3 460 465 521
3 517 516 522
3 519 523 467
3 464 519 467
3 524 519 520
3 523 519 524
3 465 468 521
3 521 468 525
3 467 523 469
3 471 526 527
3 469 526 471
3 469 524 526
3 469 523 524
3 526 528 527
3 468 472 525
3 525 472 529
3 527 530 473
3 471 527 473
3 531 527 528
3 530 527 531
3 532 474 533
3 532 529 474
3 529 472 474
3 532 533 534
3 473 530 475
3 530 477 475
3 530 531 477
3 531 535 477
3 474 478 533
3 533 478 480
3 533 480 534
3 534 480 536
3 477 535 482
3 535 537 482
3 538 484 539
3 538 536 484
3 536 480 484
3 538 539 540
3 482 537 485
3 537 541 485
3 539 486 542
3 484 486 539
3 543 540 539
3 542 543 539
3 485 541 487
3 541 544 487
3 486 488 542
3 489 545 546
3 488 489 546
3 488 546 543
3 488 543 542
3 545 547 548
3 546 545 548
3 548 547 549
3 550 551 552
3 550 544 551
3 550 490 544
3 490 487 544
3 489 491 545
3 493 545 491
3 547 545 493
3 494 553 554
3 493 494 554
3 493 554 549
3 493 549 547
3 553 555 556
3 554 553 556
3 555 557 558
3 556 555 558
3 552 558 557
3 550 552 557
3 550 557 496
3 550 496 495
3 490 550 495
3 494 497 553
3 498 553 497
3 555 553 498
3 499 555 498
3 557 555 499
3 496 557 499
3 559 560 561
3 559 562 563
3 561 562 559
3 563 564 565
3 562 564 563
3 565 566 567
3 564 566 565
3 566 568 567
3 501 560 559
3 501 500 560
3 500 569 560
3 502 501 559
3 563 502 559
3 503 502 563
3 565 503 563
3 504 503 565
3 504 565 570
3 570 565 567
3 571 567 568
3 570 567 571
3 500 505 569
3 569 505 572
3 504 570 506
3 508 573 574
3 506 573 508
3 506 571 573
3 506 570 571
3 573 575 574
3 505 509 572
3 572 509 576
3 508 574 510
3 574 512 510
3 574 575 512
3 575 577 512
3 509 513 576
3 576 513 578
3 579 580 515
3 579 515 577
3 577 515 512
3 579 581 580
3 513 517 578
3 578 517 582
3 515 580 518
3 580 520 518
3 580 581 520
3 581 583 520
3 522 521 584
3 522 584 585
3 522 585 517
3 517 585 582
3 520 583 524
3 583 586 524
3 584 525 587
3 521 525 584
3 588 585 584
3 587 588 584
3 524 586 589
3 526 524 589
3 589 528 526
3 590 528 589
3 587 529 591
3 525 529 587
3 592 588 587
3 591 592 587
3 528 590 531
3 590 593 531
3 529 532 591
3 591 532 534
3 591 534 592
3 592 534 594
3 531 593 535
3 593 595 535
3 596 536 597
3 596 594 536
3 594 534 536
3 597 598 599
3 596 597 599
3 599 598 600
3 535 595 537
3 595 601 537
3 536 538 597
3 540 597 538
3 540 602 597
3 602 598 597
3 603 600 598
3 602 603 598
3 604 605 606
3 604 601 605
3 604 541 601
3 541 537 601
3 602 543 607
3 540 543 602
3 608 603 602
3 608 602 609
3 609 602 607
3 608 609 610
3 611 604 606
3 612 611 606
3 541 611 544
3 604 611 541
3 543 546 607
3 548 607 546
3 609 607 548
3 609 548 549
3 609 549 610
3 610 549 613
3 551 611 612
3 551 612 552
3 552 612 614
3 544 611 551
3 549 615 613
3 554 615 549
3 556 616 554
3 554 616 615
3 558 617 556
3 556 617 616
3 614 558 552
3 617 558 614
3 618 619 620
3 618 621 622
3 620 621 618
3 622 623 624
3 621 623 622
3 623 625 624
3 626 619 618
3 627 619 626
3 622 628 618
3 628 626 618
3 624 629 622
3 629 628 622
3 630 624 625
3 630 631 624
3 631 629 624
3 630 632 631
3 561 633 634
3 560 633 561
3 627 626 562
3 627 562 634
3 634 562 561
3 564 562 626
3 628 564 626
3 566 564 628
3 629 566 628
3 568 566 629
3 568 629 635
3 635 629 631
3 636 631 632
3 636 637 631
3 637 635 631
3 636 638 637
3 560 569 633
3 633 569 639
3 635 640 571
3 568 635 571
3 637 641 635
3 641 640 635
3 642 637 638
3 641 637 642
3 569 572 639
3 639 572 643
3 571 640 573
3 575 573 640
3 575 640 644
3 644 640 641
3 645 641 642
3 644 641 645
3 572 576 643
3 643 576 646
3 644 647 577
3 575 644 577
3 648 644 645
3 647 644 648
3 576 578 646
3 646 578 649
3 577 647 579
3 581 650 651
3 579 650 581
3 579 648 650
3 579 647 648
3 650 652 651
3 578 582 649
3 649 582 653
3 651 654 583
3 581 651 583
3 655 651 652
3 654 651 655
3 582 585 653
3 653 585 656
3 654 657 586
3 583 654 586
3 658 654 655
3 657 654 658
3 585 588 656
3 656 588 659
3 586 657 589
3 657 590 589
3 657 658 590
3 658 660 590
3 661 592 662
3 661 659 592
3 659 588 592
3 661 662 663
3 590 660 593
3 660 664 593
3 662 594 665
3 592 594 662
3 666 663 662
3 665 666 662
3 593 664 595
3 664 667 595
3 594 596 665
3 665 668 666
3 665 596 668
3 596 599 668
3 668 599 600
3 669 668 600
3 595 667 601
3 667 670 601
3 671 603 672
3 671 669 603
3 669 600 603
3 671 672 673
3 605 674 675
3 606 605 675
3 670 605 601
3 674 605 670
3 603 608 672
3 610 676 677
3 608 610 677
3 608 677 673
3 608 673 672
3 676 678 679
3 677 676 679
3 678 680 681
3 679 678 681
3 680 675 681
3 680 612 675
3 612 606 675
3 676 613 682
3 610 613 676
3 678 676 683
3 683 676 682
3 680 678 684
3 684 678 683
3 612 684 614
3 680 684 612
3 613 615 682
3 616 682 615
3 683 682 616
3 617 683 616
3 684 683 617
3 614 684 617
3 685 686 687
3 685 688 689
3 687 688 685
3 689 690 691
3 688 690 689
3 690 692 691
3 620 693 694
3 619 693 620
3 686 685 621
3 686 621 694
3 694 621 620
3 623 621 685
3 689 623 685
3 625 623 689
3 625 689 695
3 695 689 691
3 696 691 692
3 696 697 691
3 697 695 691
3 696 698 697
3 619 627 693
3 693 627 699
3 625 695 630
3 632 630 695
3 632 695 700
3 700 695 697
3 701 697 698
3 700 697 701
3 634 633 702
3 634 702 703
3 634 703 627
3 627 703 699
3 632 700 636
3 700 638 636
3 700 701 638
3 701 704 638
3 702 639 705
3 633 639 702
3 706 703 702
3 705 706 702
3 638 704 642
3 704 707 642
3 705 643 708
3 639 643 705
3 709 706 705
3 708 709 705
3 642 707 645
3 707 710 645
3 708 711 712
3 708 643 711
3 643 646 711
3 709 708 712
3 645 710 648
3 710 713 648
3 646 649 711
3 711 649 714
3 648 713 715
3 650 648 715
3 715 652 650
3 716 652 715
3 717 653 718
3 717 714 653
3 714 649 653
3 717 718 719
3 652 716 655
3 716 720 655
3 718 656 721
3 653 656 718
3 722 719 718
3 721 722 718
3 655 720 658
3 720 723 658
3 721 659 724
3 656 659 721
3 725 722 721
3 724 725 721
3 658 723 660
3 723 726 660
3 659 661 724
3 663 727 728
3 661 663 728
3 661 728 725
3 661 725 724
3 728 727 729
3 660 726 664
3 726 730 664
3 727 666 731
3 663 666 727
3 732 729 727
3 731 732 727
3 664 730 667
3 730 733 667
3 666 668 731
3 669 734 735
3 668 669 735
3 668 735 732
3 668 732 731
3 734 736 737
3 735 734 737
3 736 738 739
3 737 736 739
3 738 740 741
3 739 738 741
3 740 742 743
3 741 740 743
3 742 733 743
3 742 670 733
3 670 667 733
3 669 671 734
3 673 734 671
3 673 744 734
3 744 736 734
3 738 736 745
3 745 736 744
3 740 738 746
3 746 738 745
3 674 746 675
3 674 742 746
3 742 740 746
3 670 742 674
3 673 677 744
3 679 744 677
3 745 744 679
3 681 745 679
3 746 745 681
3 675 746 681
3 747 748 749
3 747 750 751
3 749 750 747
3 751 752 753
3 750 752 751
3 752 754 753
3 755 748 747
3 756 748 755
3 751 757 747
3 757 755 747
3 753 758 751
3 758 757 751
3 759 753 754
3 758 753 759
3 760 756 755
3 761 756 760
3 757 762 755
3 762 760 755
3 758 763 757
3 763 762 757
3 764 758 759
3 763 758 764
3 765 766 767
3 761 765 767
3 761 760 765
3 760 768 765
3 762 769 760
3 769 768 760
3 770 763 771
3 770 769 763
3 769 762 763
3 764 771 763
3 772 766 765
3 773 766 772
3 768 774 765
3 774 772 765
3 769 775 768
3 775 774 768
3 776 769 770
3 775 769 776
3 687 777 778
3 686 777 687
3 773 772 688
3 773 688 778
3 778 688 687
3 690 688 772
3 774 690 772
3 692 690 774
3 692 774 779
3 779 774 775
3 780 775 776
3 779 775 780
3 694 781 782
3 693 781 694
3 777 686 694
3 782 777 694
3 692 779 696
3 779 698 696
3 779 780 698
3 780 783 698
3 693 699 781
3 781 699 784
3 698 783 701
3 783 785 701
3 699 703 784
3 784 703 786
3 701 785 704
3 785 787 704
3 703 706 786
3 786 706 788
3 704 787 707
3 787 789 707
3 706 709 788
3 788 709 790
3 707 789 710
3 789 791 710
3 712 711 792
3 712 792 793
3 712 793 709
3 709 793 790
3 710 791 713
3 791 794 713
3 792 714 795
3 711 714 792
3 796 793 792
3 795 796 792
3 713 794 797
3 715 713 797
3 797 716 715
3 798 716 797
3 714 717 795
3 719 799 800
3 717 719 800
3 717 800 796
3 717 796 795
3 800 799 801
3 716 798 720
3 798 802 720
3 799 722 803
3 719 722 799
3 804 801 799
3 803 804 799
3 720 802 723
3 802 805 723
3 803 725 806
3 722 725 803
3 807 804 803
3 806 807 803
3 808 809 810
3 808 805 809
3 808 726 805
3 726 723 805
3 725 728 806
3 729 811 812
3 728 729 812
3 728 812 807
3 728 807 806
3 812 811 813
3 814 808 810
3 815 814 810
3 726 814 730
3 808 814 726
3 811 732 816
3 729 732 811
3 817 813 811
3 817 811 818
3 818 811 816
3 818 819 820
3 817 818 820
3 819 821 822
3 820 819 822
3 815 822 821
3 815 821 814
3 814 821 823
3 730 823 733
3 814 823 730
3 732 735 816
3 737 816 735
3 818 816 737
3 739 818 737
3 819 818 739
3 741 819 739
3 821 819 741
3 743 821 741
3 823 821 743
3 733 823 743
3 749 824 825
3 748 824 749
3 750 749 826
3 749 825 826
3 752 750 827
3 750 826 827
3 827 754 752
3 828 754 827
3 748 756 824
3 824 756 829
3 754 828 759
3 828 830 759
3 756 761 829
3 829 761 831
3 759 830 764
3 830 832 764
3 767 833 834
3 766 833 767
3 831 761 767
3 834 831 767
3 771 835 836
3 770 771 836
3 832 771 764
3 835 771 832
3 766 773 833
3 833 773 837
3 770 836 776
3 836 838 776
3 778 839 840
3 777 839 778
3 837 773 778
3 840 837 778
3 776 838 780
3 838 841 780
3 782 781 842
3 782 842 843
3 782 843 777
3 777 843 839
3 780 841 783
3 841 844 783
3 842 784 845
3 781 784 842
3 846 843 842
3 845 846 842
3 783 844 785
3 844 847 785
3 845 786 848
3 784 786 845
3 849 846 845
3 848 849 845
3 785 847 787
3 847 850 787
3 848 788 851
3 786 788 848
3 852 849 848
3 851 852 848
3 787 850 789
3 850 853 789
3 851 790 854
3 788 790 851
3 855 852 851
3 854 855 851
3 789 853 791
3 853 856 791
3 854 793 857
3 790 793 854
3 858 855 854
3 858 854 859
3 859 854 857
3 858 859 860
3 791 856 794
3 856 861 794
3 857 796 862
3 793 796 857
3 859 857 863
3 863 857 862
3 864 860 859
3 863 864 859
3 865 797 794
3 865 794 866
3 866 794 861
3 797 865 798
3 796 800 862
3 801 862 800
3 801 867 862
3 867 863 862
3 868 864 863
3 867 868 863
3 869 865 866
3 870 869 866
3 798 869 802
3 865 869 798
3 867 804 871
3 801 804 867
3 872 868 867
3 871 872 867
3 873 869 870
3 874 873 870
3 802 873 805
3 869 873 802
3 871 807 875
3 804 807 871
3 876 872 871
3 876 871 877
3 877 871 875
3 877 878 879
3 876 877 879
3 878 880 881
3 879 878 881
3 874 881 880
3 873 874 880
3 873 880 810
3 873 810 809
3 805 873 809
3 807 812 875
3 813 875 812
3 813 882 875
3 882 877 875
3 878 877 883
3 883 877 882
3 880 878 884
3 884 878 883
3 810 884 815
3 880 884 810
3 813 817 882
3 820 882 817
3 883 882 820
3 822 883 820
3 884 883 822
3 815 884 822
3 825 885 886
3 824 885 825
3 826 825 887
3 825 886 887
3 827 826 888
3 826 887 888
3 888 828 827
3 889 828 888
3 824 829 885
3 885 829 890
3 828 889 830
3 889 891 830
3 829 831 890
3 890 831 892
3 830 891 832
3 891 893 832
3 834 833 894
3 895 892 831
3 895 831 894
3 895 894 896
3 894 831 834
3 896 897 898
3 895 896 898
3 897 836 835
3 897 835 898
3 898 835 899
3 893 835 832
3 899 835 893
3 894 900 901
3 894 833 900
3 833 837 900
3 896 894 901
3 902 896 901
3 897 896 902
3 903 897 902
3 903 836 897
3 903 904 836
3 904 838 836
3 840 839 905
3 840 905 906
3 840 906 837
3 837 906 900
3 838 904 841
3 904 907 841
3 905 843 908
3 839 843 905
3 909 906 905
3 908 909 905
3 841 907 844
3 907 910 844
3 908 846 911
3 843 846 908
3 912 909 908
3 911 912 908
3 844 910 847
3 910 913 847
3 911 849 914
3 846 849 911
3 915 912 911
3 914 915 911
3 847 913 850
3 913 916 850
3 914 852 917
3 849 852 914
3 918 915 914
3 917 918 914
3 850 916 853
3 916 919 853
3 917 855 920
3 852 855 917
3 921 918 917
3 920 921 917
3 853 919 856
3 919 922 856
3 855 858 920
3 920 858 860
3 920 860 921
3 921 860 923
3 856 922 861
3 922 924 861
3 925 864 926
3 925 923 864
3 923 860 864
3 926 927 928
3 925 926 928
3 927 929 930
3 928 927 930
3 929 924 930
3 929 866 924
3 866 861 924
3 926 868 931
3 864 868 926
3 927 926 932
3 932 926 931
3 929 927 933
3 933 927 932
3 866 933 870
3 929 933 866
3 931 872 934
3 868 872 931
3 932 931 935
3 935 931 934
3 933 932 936
3 936 932 935
3 870 936 874
3 933 936 870
3 872 876 934
3 879 934 876
3 935 934 879
3 881 935 879
3 936 935 881
3 874 936 881
3 886 885 937
3 886 938 887
3 937 938 886
3 887 939 888
3 938 939 887
3 888 939 889
3 937 890 940
3 885 890 937
3 938 937 941
3 941 937 940
3 939 938 942
3 942 938 941
3 889 942 891
3 939 942 889
3 940 892 943
3 890 892 940
3 941 940 944
3 944 940 943
3 942 941 945
3 945 941 944
3 891 945 893
3 942 945 891
3 892 895 943
3 898 943 895
3 944 943 898
3 899 944 898
3 945 944 899
3 893 945 899
3 901 900 946
3 901 947 902
3 946 947 901
3 902 948 903
3 947 948 902
3 903 948 904
3 946 906 949
3 900 906 946
3 947 946 950
3 950 946 949
3 948 947 951
3 951 947 950
3 904 951 907
3 948 951 904
3 949 909 952
3 906 909 949
3 950 949 953
3 953 949 952
3 951 950 954
3 954 950 953
3 907 954 910
3 951 954 907
3 952 912 955
3 909 912 952
3 953 952 956
3 956 952 955
3 954 953 957
3 957 953 956
3 910 957 913
3 954 957 910
3 955 915 958
3 912 915 955
3 956 955 959
3 959 955 958
3 957 956 960
3 960 956 959
3 913 960 916
3 957 960 913
3 958 918 961
3 915 918 958
3 959 958 962
3 962 958 961
3 960 959 963
3 963 959 962
3 916 963 919
3 960 963 916
3 961 921 964
3 918 921 961
3 962 961 965
3 965 961 964
3 963 962 966
3 966 962 965
3 919 966 922
3 963 966 919
3 964 923 967
3 921 923 964
3 965 964 968
3 968 964 967
3 966 965 969
3 969 965 968
3 922 969 924
3 966 969 922
3 923 925 967
3 928 967 925
3 968 967 928
3 930 968 928
3 969 968 930
3 924 969 930
