# vtk DataFile Version 3.0
this file was written using fslvtkio
ASCII
DATASET POLYDATA
POINTS 1068 float
144.685 82.5194 5.45521
144.07 81.2066 5.90726
143.381 81.7167 6.32099
143.414 82.9407 6.37346
144.37 82.9231 5.11145
142.999 82.8819 6.15864
143.645 82.1993 5.26372
142.474 82.6109 5.84864
143.011 81.9237 5.63838
141.627 81.895 6.20825
145.352 81.4704 4.91169
144.751 80.3879 5.83641
145.197 82.1223 4.20226
144.047 81.8997 3.99692
142.872 81.8342 3.95268
142.324 81.7226 5.05892
145.357 80.506 5.08939
145.293 79.8596 5.70607
145.863 81.0848 3.97628
145.027 81.2277 3.26107
143.909 81.1661 2.61052
142.254 81.4053 3.41339
145.432 79.7077 4.58209
145.307 80.0867 3.64921
144.285 80.0956 3.18208
142.756 80.3249 2.49929
137.988 86.6705 7.66618
138.178 86.9221 8.68597
137.132 86.805 8.28446
136.552 86.3523 8.09911
137.137 86.5039 7.38688
136.073 86.0829 7.83597
139.687 87.4956 8.1646
140.575 86.2552 8.41283
139.112 85.9526 8.72374
139.002 86.9917 7.27072
137.952 86.2211 7.41152
136.535 85.8915 7.36296
141.127 85.8455 7.48329
140.904 84.6497 8.32142
139.826 86.3701 7.09355
138.882 85.2188 6.91083
137.034 85.2229 7.04034
142.503 82.5822 7.19359
142.607 81.1187 6.95766
141.582 81.6106 7.51863
141.54 83.0504 8.19809
142.123 83.9214 7.69786
141.829 84.4637 6.65296
140.82 84.1658 6.74206
140.254 82.7265 6.97631
138.804 83.8678 7.10085
143.321 80.7383 6.7354
140.91 81.6947 6.42188
144.581 80.2232 6.72254
141.742 81.0645 4.98815
144.721 79.1463 6.48356
141.634 80.651 3.36489
144.94 79.0653 5.00669
144.99 78.3141 5.9072
145.529 79.1007 4.07062
144.951 79.2672 3.14276
144.018 79.2707 2.91755
142.507 79.3501 2.77127
145.518 78.3451 4.86463
145.111 78.3962 3.55822
144.103 78.6676 2.97311
132.992 89.8433 8.35604
134.268 89.2977 8.92539
133.407 89.5166 9.49974
132.143 89.7454 9.11997
132.02 88.8842 8.41894
131.695 89.0292 9.19545
132.142 87.8343 9.27308
131.905 88.3099 9.60007
134.887 88.1787 8.25489
135.996 88.1689 8.81043
135.519 88.4955 9.11703
133.929 88.0612 7.76285
132.813 88.0444 7.95267
131.981 87.1491 8.60916
132.663 87.1011 9.85965
135.652 87.4154 8.21118
137.255 87.5754 9.15369
134.925 86.4316 8.04423
133.928 86.0188 8.51818
132.66 85.9172 8.76522
132.132 85.6564 9.54714
137.948 86.4754 9.32172
135.222 85.3808 7.97766
133.941 85.0464 8.42832
133.361 84.5572 9.057
139.739 84.6979 8.95675
138.562 85.1243 9.10845
135.741 85.0927 7.51436
134.936 83.9266 7.96477
134.069 83.6439 8.23029
140.52 83.7039 8.63286
140.768 83.0295 8.59381
140.161 84.0092 8.98252
136.614 83.6453 7.42716
135.903 82.8636 7.35905
135.028 83.2785 7.44548
141.939 80.7468 7.6441
141.15 81.9342 8.14799
139.178 82.4769 7.24655
139.159 81.6952 7.1305
137.656 81.823 6.89507
143.26 80.5364 7.76712
140.371 80.8749 6.41138
139.641 81.0559 6.68894
138.974 81.3418 6.82883
144.061 79.597 7.32111
141.027 80.6408 5.09106
140.252 80.1798 5.80928
144.688 78.5028 6.74649
141.355 80.0034 3.56132
140.748 80.1316 4.64592
145.18 77.3476 6.66769
142.281 78.226 3.12617
143.246 78.3581 3.01561
141.588 79.2238 3.32714
145.519 77.3423 5.75378
144.908 77.8694 4.50544
143.533 77.6716 3.38844
134.438 88.5339 9.74189
133.914 88.5699 10.488
132.998 88.9663 10.3827
131.627 89.0917 10.0088
131.531 87.5737 10.0202
136.095 87.0195 9.72958
135.531 87.8433 9.85639
132.449 85.9872 10.0991
137.066 86.4381 9.60768
132.401 85.4841 9.71758
133.163 84.6352 9.52931
133.126 84.4891 10.0067
137.97 86.3923 10.0165
134.066 83.7564 9.39064
133.655 83.612 9.78012
139.633 84.628 9.66177
138.545 84.9589 9.79333
134.324 83.3793 8.73362
134.36 83.0688 8.90348
140.502 82.9505 9.1254
139.576 83.5779 9.44948
136.153 82.5366 6.95104
135.216 82.5663 7.5647
134.243 82.7584 8.01164
141.667 80.6811 8.48854
141.206 81.8044 9.34484
136.594 81.8312 6.58471
136.259 81.6048 7.28411
142.392 80.1111 8.46172
138.896 80.7669 6.09641
137.792 80.7725 6.16756
136.966 81.0684 6.14356
144.813 79.286 7.80897
139.558 79.6604 5.65471
138.538 79.6938 5.84264
145.647 78.2957 7.48989
139.377 78.9567 5.04724
140.599 79.1452 4.69314
145.533 77.1619 7.30232
142.535 77.9419 3.39087
141.978 78.044 3.56796
140.943 78.6829 4.00395
145.616 76.2362 6.70583
144.803 76.9837 5.5328
143.717 77.2883 4.34982
142.599 77.6561 3.73054
134.157 88.0253 10.3532
134.243 87.4825 10.8769
133.435 87.9276 10.9849
132.406 87.9575 10.7838
132.364 86.5563 10.3839
135.806 86.4873 10.1854
135.033 87.1115 10.0992
134.398 87.2072 10.4702
132.5 85.1847 9.97687
132.787 85.1586 9.93288
132.923 84.2914 10.0498
136.765 85.9954 10.5751
135.906 85.3207 10.6226
132.876 83.4325 9.90615
137.415 85.2851 9.83607
133.608 82.7956 9.49287
138.316 83.4411 9.71707
137.976 84.3811 9.65852
134.124 82.2583 9.08905
139.802 82.0356 9.70561
139.19 82.8732 9.78367
134.995 81.7775 7.88334
134.392 81.9812 8.40844
141.058 80.3346 9.75598
140.822 81.2134 10.0358
135.707 81.4997 7.49954
135.361 81.4829 7.89286
142.289 79.9126 9.03108
143.461 79.7425 9.34858
142 79.8888 9.49805
137.222 80.0074 5.74655
136.596 80.3287 6.2968
136.225 80.9885 7.26792
143.79 79.908 8.68291
144.784 79.1661 9.08053
137.687 79.4246 5.55944
137.162 79.2752 5.74004
145.288 78.8897 8.44378
145.265 78.1183 8.95042
139.943 78.2618 4.61595
139.419 78.6728 5.06134
138.408 78.8763 5.45291
145.927 77.703 8.2195
145.929 76.9623 8.70958
141.248 77.6308 4.67721
142.114 77.4608 4.07285
140.239 77.5849 4.55129
146.188 76.2408 7.88894
145.563 75.6768 6.91821
144.908 76.0417 5.94988
144.061 76.5661 5.06146
143.076 76.8857 4.32888
133.392 86.7521 11.4668
133.921 86.3124 11.3873
134.354 85.667 12.3412
133.922 85.8276 11.9999
132.316 86.6149 11.1509
133.812 85.6449 11.4223
134.575 86.7625 11.1096
133.282 84.9852 10.8367
134.715 85.5767 10.7172
135.028 86.3977 11.3356
132.905 84.6061 10.3943
133.197 83.8037 10.411
136.851 84.2808 10.6174
135.98 84.3788 11.5761
133.033 82.7554 10.1564
137.38 84.0969 10.2731
137.941 83.2601 10.9341
137.381 83.6268 10.6557
134.079 82.2204 9.61448
138.496 82.1626 10.0512
139.172 81.6358 10.8979
138.55 82.1976 11.0994
134.539 81.5821 9.06792
139.783 80.8281 10.1984
141.028 80.8158 10.7825
140.209 81.1925 11.2842
135.04 81.0379 8.43122
141.635 80.5618 10.4958
142.662 79.5836 10.0481
142.384 80.7909 11.0215
135.936 80.652 7.99227
143.579 78.9807 9.84673
136.667 80.2696 7.56624
136.71 79.5888 6.57892
144.749 78.4546 9.94634
137.406 78.3504 6.02409
145.904 77.3879 9.74037
138.53 77.2116 5.66651
139.42 77.7414 5.27803
145.838 76.0357 9.43165
141.412 77.0616 5.17935
142.188 77.1124 5.01154
140.441 77.125 5.05477
146.079 75.6612 8.63046
145.385 75.5879 7.61359
144.654 75.5415 6.62282
143.889 75.9001 5.87846
142.965 76.7046 5.23441
134.649 85.8475 12.1318
135.105 84.9051 12.1666
134.887 85.2514 12.917
134.401 85.1672 13.1839
135.126 84.89 12.7547
134.058 84.3077 12.0904
134.835 85.6742 11.6289
135.173 84.7832 11.6155
133.258 83.3685 11.6916
135.468 84.3483 11.7471
133.302 83.6656 11.0237
133.153 82.8094 10.7909
136.888 83.3314 11.0927
137.43 82.865 11.9474
136.972 83.6645 12.0061
136.271 83.7344 12.2211
133.749 82.1434 10.4587
137.88 82.3253 11.3324
138.813 81.9979 12.0382
137.997 82.2499 12.3268
134.612 81.6534 9.93814
139.878 82.2831 12.1204
135.11 80.9622 9.29015
141.727 81.0203 11.364
140.869 81.6493 12.2107
135.789 80.3944 8.71631
143.25 79.9367 10.722
142.756 80.5155 11.5421
136.478 80.0608 8.27755
143.835 78.7108 10.8463
137.211 79.5819 7.9188
137.205 78.7311 6.94308
145.045 77.8803 10.5596
138.092 77.7475 6.59932
145.942 76.6489 10.2665
138.823 76.4309 6.00833
139.76 76.6837 5.78133
146.059 75.6084 9.83142
142.273 77.0219 5.61238
141.79 76.479 5.5045
140.853 76.071 5.54711
146.005 74.9581 9.29422
146.096 74.7144 8.11492
145.114 74.4278 7.32548
144.081 75.0967 6.6751
143.331 75.9494 6.37651
142.522 76.3129 6.03935
134.636 85.3037 13.6349
135.042 84.855 13.5678
134.327 85.0775 14.2662
134.043 84.34 14.3318
134.546 85.0379 13.4046
135.273 83.9097 14.0845
134.766 84.4789 13.006
134.416 83.753 13.6587
135.285 84.2281 12.9224
133.822 83.0298 13.1098
135.938 84.4005 12.4416
133.056 82.1687 12.7078
135.752 83.3366 12.1728
135.937 83.4459 12.8021
135.818 83.7418 12.6985
133.323 82.3985 11.8138
133.789 81.9097 11.2283
137.417 83.1557 12.969
136.789 83.6439 12.7798
134.316 81.3822 10.8413
138.729 81.2023 12.6657
138.007 82.5164 13.0472
134.957 80.7406 10.2066
140.152 81.6621 12.655
135.709 80.2323 9.59378
141.195 80.1273 11.9232
140.912 81.1355 12.4538
136.404 79.7925 8.97596
143.455 79.3231 11.5902
142.127 79.8995 11.8682
137.06 79.8156 8.48255
144.301 78.4574 11.3185
137.317 79.2306 8.20474
137.875 78.1933 7.60517
144.691 77.1838 10.7945
138.769 77.5927 7.26212
145.381 76.081 10.3418
139.516 76.5899 6.6271
139.911 76.1204 6.28739
145.284 75.2203 9.7646
140.753 75.4711 6.15512
141.697 75.6229 5.7666
145.697 74.6154 9.55293
145.716 74.1699 8.74413
145.144 74.1477 7.85554
144.458 74.5896 7.39061
143.544 75.118 6.94804
142.5 75.3842 6.59631
133.502 85.8972 15.3299
134.088 84.4551 14.9098
133.333 85.0207 16.2394
132.769 85.212 15.9521
133.831 84.2274 15.1845
134.038 84.2208 16.434
134.908 84.2277 14.4505
134.995 83.215 15.1785
133.927 82.4145 14.7212
135.365 84.0307 14.036
135.136 83.1028 14.7232
135.373 84.0837 14.6183
133.024 81.6097 13.9509
135.718 83.4215 13.4312
136.06 83.0196 14.316
133.363 81.3064 13.2308
136.133 82.9345 13.4988
136.958 82.6889 14.1621
136.53 82.7943 14.2489
133.385 81.4763 12.2909
134.063 80.9559 11.8293
137.62 83.2331 13.7014
138.053 81.5719 13.7324
137.664 82.1161 14.247
135.044 80.6788 11.1287
139.072 80.357 13.1883
135.308 79.9428 10.4096
140.676 80.8406 12.901
140.842 80.0763 12.6596
140.58 80.5901 13.1275
135.78 79.1297 9.62388
141.127 79.6466 12.1564
142.694 79.2612 12.2221
141.304 79.0736 12.5925
136.541 79.0431 9.1494
136.412 78.4474 9.45448
137.103 78.8763 9.02129
143.73 78.5699 12.0539
137.212 79.618 8.83095
137.718 78.8161 8.6426
143.903 77.5923 11.4127
138.636 77.8335 8.09904
144.159 76.6169 10.8624
139.475 77.3375 7.79886
144.863 75.5344 10.2987
139.843 76.6106 7.16061
140.228 75.736 6.96324
144.98 75.1322 9.93101
145.079 74.4767 9.88971
145.219 74.2319 10.1198
140.851 76.1469 6.88689
141.335 75.2875 6.708
145.779 73.7375 9.35874
144.876 73.3961 8.50171
144.325 73.5435 7.77407
143.503 74.3066 7.54077
142.662 75.0692 7.38318
134.002 84.3868 16.0453
133.731 83.8176 16.7512
133.138 84.5175 17.0123
132.279 85.996 17.5659
132.139 85.8852 17.0023
132.66 84.0228 17.4884
134.649 83.8133 15.5633
134.118 83.3033 16.61
134.056 82.8244 16.3473
133.486 81.4591 15.3274
135.005 83.2551 15.698
135.505 82.7845 16.0403
134.655 82.7198 16.2947
133.324 80.7086 14.4396
136.284 82.9957 15.0011
136.518 82.3101 15.4537
134.032 80.9964 13.4762
133.979 81.1401 12.662
134.052 80.6567 12.7864
137.147 82.0913 14.847
137.879 81.1103 15.0908
137.235 81.6402 15.4619
134.588 80.3076 11.9829
139.188 80.3088 14.1906
135.218 79.8622 11.2584
139.876 80.0016 13.6655
135.642 79.2164 10.6346
141.03 79.727 13.3363
140.19 79.569 13.2616
136.044 78.4116 10.1565
142.637 78.4432 12.5882
141.891 79.0414 13.1822
136.688 78.0466 10.121
137.563 78.6145 9.58811
143.778 77.6822 12.4101
138.32 78.1417 9.19236
143.59 76.7467 11.6197
139.028 76.8825 8.40376
144.033 75.8603 11.0547
140.078 76.5697 7.87169
139.672 76.6312 8.35467
140.275 76.3558 8.4287
144.418 75.276 10.5694
144.994 74.7345 10.17
144.848 74.1555 10.7004
141.075 75.839 7.6049
140.961 76.3155 8.48398
141.449 75.6691 8.16838
144.57 74.0295 10.0081
142.873 75.0615 8.10912
142.606 75.4357 8.6043
142.954 74.3527 8.38055
141.91 75.6849 7.72125
142.219 75.6498 8.50562
145.121 73.547 9.39287
144.629 73.2057 8.95864
143.542 73.5067 8.34389
130.311 87.2876 17.8237
131.523 86.5885 18.244
130.303 87.869 18.6491
129.421 86.6841 18.2659
131.014 85.8618 17.5779
131.301 84.9744 18.4515
133.308 84.4628 17.9474
132.66 85.6268 17.9763
132.667 83.2613 18.0026
134.352 83.1995 17.0782
134.113 83.1268 17.6798
133.786 83.7917 17.8111
133.351 82.3125 16.8135
133.627 80.9371 15.8613
135.045 82.4279 16.73
135.77 81.9313 16.9
134.76 82.5087 17.3675
133.612 79.7367 15.0562
136.206 82.0979 16.0639
137.666 81.0904 16.2022
134.128 80.4076 13.784
134.115 79.7492 12.9051
138.948 80.6062 15.312
134.612 79.4896 12.0782
139.872 80.7073 14.7474
140.172 79.7082 14.7289
139.612 80.4574 15.3114
135.03 78.931 11.536
140.631 79.9389 14.0301
140.929 79.2049 14.369
135.806 78.6173 10.9979
141.369 79.0761 13.7643
142.238 78.3912 13.5422
141.54 78.666 14.0268
136.303 77.7492 10.8436
142.855 77.5895 12.9602
136.74 77.3324 10.367
137.761 78.1106 10.2643
143.342 76.7679 12.4569
138.484 77.0965 9.58455
143.45 75.9971 11.9031
139.422 76.4396 9.04994
139.245 76.8315 10.0045
139.711 76.1173 9.45202
143.773 75.1412 11.4201
141.671 76.1521 9.82671
141.299 74.9869 10.1247
141.886 75.6196 10.0576
141.124 76.045 9.58307
140.967 75.4894 9.90071
140.411 76.3554 9.20212
140.344 75.7792 9.9803
143.914 74.7639 11.08
144.333 73.9453 10.4399
142.313 75.4779 9.25257
142.423 75.1806 9.95705
141.506 76.2194 9.08925
144.15 73.5608 10.0215
144.396 73.5022 9.52934
143.981 73.5674 9.00872
143.804 73.8166 9.69042
143.338 74.3014 9.25981
143.246 74.616 9.75056
130.719 86.3329 19.8545
131.89 85.25 19.9561
130.969 86.0406 20.5801
129.447 86.6597 20.1887
129.456 87.1403 19.367
128.735 86.2812 19.6626
129.9 86.022 18.8278
130.005 85.139 19.2694
131.733 85.6878 19.0005
132.5 84.3072 19.1666
131.313 83.882 18.9324
133.227 83.6627 18.5137
133.888 83.2037 18.814
133.263 83.6162 19.1082
132.512 82.1866 18.291
134.312 83.2277 18.3065
135.403 82.9045 17.9873
134.528 82.7549 18.7606
133.293 81.597 17.1606
133.485 80.246 16.4348
137.016 81.6619 16.9997
133.433 79.6607 15.4437
138.192 81.0492 16.7708
138.446 80.3188 16.3572
137.454 81.0959 17.0916
134.146 79.7467 13.9083
133.973 79.0818 14.424
138.725 80.6184 15.8632
139.725 80.0288 15.4218
134.409 79.2456 13.3479
135.069 79.0455 12.5574
140.75 79.1848 14.9607
135.914 78.5676 11.8803
141.4 78.7139 14.5139
142.056 78.0689 14.2025
141.781 78.3673 14.8365
136.676 78.5759 11.5027
142.709 77.5958 13.6346
136.675 77.4571 10.9195
136.856 77.6316 11.4367
137.054 77.0939 10.8234
142.868 76.6773 13.1335
137.727 76.775 10.4802
143.277 75.7378 12.6896
138.526 77.2089 10.4625
142.525 75.3821 12.1352
143.575 75.0994 11.4533
142.895 74.9664 11.8264
139.673 76.2755 10.142
139.377 76.3213 10.5637
139.866 75.8265 10.5392
139.019 76.5269 10.5801
143.562 74.965 11.2698
143.587 74.7261 11.1259
141.462 74.7656 10.898
141.924 74.664 10.3813
140.743 74.8197 10.756
143.62 73.8534 10.0374
143.665 73.9974 10.6004
143.077 74.1092 10.2113
143.18 73.4706 10.4805
142.496 74.6607 10.2662
142.469 73.7909 10.3521
133.069 83.8296 21.0677
134.15 82.846 21.6018
133.242 83.4708 22.0175
132.25 84.8425 21.6142
132.131 84.9173 20.7146
131.192 86.3381 21.3561
129.542 85.8887 21.1606
129.684 85.1495 20.4565
130.735 84.226 19.8607
133.743 83.1645 20.5566
134.774 82.3206 20.6223
133.027 84.3268 19.9853
131.321 83.0504 19.1296
134.018 82.7319 19.6213
135.424 81.9082 19.873
132.28 81.8505 18.4474
135.303 82.2757 19.044
136.545 81.2196 18.4433
136.188 81.5876 19.2007
133.414 81.15 17.4384
132.812 80.4938 17.7004
136.247 81.6129 17.7383
137.576 80.4545 17.2957
133.225 80.2265 16.8653
133.76 79.6645 15.7729
139.195 79.7891 16.4043
134.363 79.0046 14.99
140.194 78.9952 15.8403
134.647 78.7456 13.3648
135.059 78.5452 13.9595
141.146 78.0484 15.6173
135.635 78.2375 12.8566
135.873 77.8318 13.5671
142.528 77.3592 14.5484
141.651 77.4889 14.972
136.611 77.7972 12.8659
136.488 77.4402 13.5631
136.91 77.0334 13.059
136.125 77.7629 12.0897
142.814 76.7087 13.8627
137.074 77.1674 11.9903
137.458 76.6491 12.4854
143.356 75.8013 13.6022
137.897 76.4933 11.2155
138.109 75.9888 11.9913
143.24 75.2118 13.395
138.855 75.78 11.0927
138.662 75.4139 11.7095
139.134 75.0851 11.6526
138.235 76.2709 10.6853
143.084 74.9188 13.0121
142.706 74.8289 11.6914
142.369 74.9022 12.6307
142.083 74.6789 12.3226
139.704 75.326 11.1981
139.517 74.7536 11.7238
140.249 75.0968 11.4636
143.338 73.9336 11.0533
141.946 74.5629 11.9182
142.699 73.6744 11.1223
142.001 73.8824 10.8284
141.507 74.6854 11.5409
140.683 74.9262 11.4242
132.025 85.7159 23.0122
132.844 84.1144 23.6273
132.274 84.5588 24.1534
130.982 86.5359 23.489
130.81 85.9632 22.6762
130.209 85.8251 23.1771
130.52 84.9393 22.5753
130.803 84.8669 23.2042
132.867 84.2481 22.86
134.161 82.6627 22.7582
133.456 83.0244 23.5918
131.82 85.9302 22.1449
130.503 86.5095 21.9859
129.891 85.1826 22.143
130.689 84.283 22.3003
135.042 81.629 21.8591
130.945 84.3016 21.2211
131.167 83.0193 19.987
135.822 81.6218 20.5337
131.548 81.8642 19.0664
136.284 81.3462 19.8089
136.615 80.7546 19.1158
136.24 80.9723 19.9687
132.395 80.9146 18.3933
137.129 79.9697 17.96
133.028 79.3881 17.9507
138.578 79.9079 17.3119
133.155 79.4301 16.8554
133.903 79.0829 15.9335
139.65 79.0255 16.8894
134.716 78.4755 14.9213
140.032 78.2574 16.4463
135.461 77.8495 14.3513
140.994 77.4038 16.3111
135.959 77.3406 13.8921
142.339 76.7071 14.7352
141.247 76.9203 15.516
136.151 77.0927 13.7169
136.816 76.4743 13.826
142.315 75.929 14.1264
141.5 76.016 14.8553
137.939 76.0846 12.9896
142.546 75.2068 13.7876
141.621 75.1708 14.3313
138.434 75.2869 12.3825
138.24 75.5844 13.0295
138.669 74.9746 12.687
142.933 74.7059 13.5229
142.484 74.1154 13.8504
140.11 74.5322 12.5357
139.652 74.1043 13.0646
140.257 74.5563 12.895
139.135 74.6387 12.2147
139.032 74.4604 12.8679
142.522 74.4026 13.2142
141.705 74.7097 12.5316
141.886 74.1475 13.0056
140.856 74.5078 12.3051
140.995 74.4032 12.8465
139.994 74.7409 11.9858
129.904 86.7933 33.0867
130.28 86.6643 32.9263
130.512 86.7228 33.7255
130.617 86.6817 34.0686
130.135 86.7243 33.7962
130.339 86.4398 34.2375
129.772 87.0835 32.3676
130.156 86.9691 31.9821
129.957 86.7251 33.1808
130.584 86.2897 33.6602
129.565 86.717 32.3228
129.754 86.1264 32.8027
133.112 83.6881 25.5286
133.937 82.212 25.3721
133.81 83.5438 26.1921
132.884 84.8352 26.1381
132.165 85.318 24.944
131.499 86.3124 25.674
131.022 86.3579 24.7109
131.099 85.2686 25.5618
133.296 83.216 24.5167
134.432 81.7702 24.1178
130.2 85.3318 24.0371
130.893 84.2121 23.2489
134.895 81.2534 22.8717
131.588 82.9525 22.1292
135.473 81.0149 21.9166
136.132 80.8046 21.5132
135.42 80.8625 22.2063
131.133 83.2136 21.1039
131.771 81.8328 19.95
136.092 81.2421 21.0793
136.66 80.4583 19.9912
132.043 81.2388 19.1644
137.573 79.8619 19.1262
132.494 80.3749 18.7264
138.471 79.5148 18.3298
133.381 79.487 18.2792
140.151 79.2297 18.0019
133.542 78.8635 16.9726
134.198 78.7116 17.2895
140.066 78.1437 17.5862
134.615 78.7184 16.0229
135.182 78.1582 16.0162
140.685 77.2504 17.2102
135.191 77.883 14.93
135.651 77.3351 15.4299
140.419 76.6927 16.54
136.271 77.0065 14.2458
136.413 76.9246 15.1715
140.21 76.4634 15.6567
137.379 76.3148 14.6922
136.877 76.4103 15.5296
137.51 75.6635 15.1579
140.799 75.5387 15.0104
138.92 74.7208 14.3736
138.57 74.6227 15.1464
139.294 74.5953 14.7111
138.104 75.2977 14.5415
138.177 75.3804 15.3067
137.585 75.494 13.6666
140.919 74.7441 14.6752
141.385 74.0654 14.1922
140.389 73.8004 14.0471
140.362 74.5128 14.6351
139.719 74.4692 14.1479
139.898 74.4264 14.6811
139.424 74.764 13.6144
138.643 75.46 13.5385
141.846 73.9366 13.524
141.105 73.6101 13.5166
140.17 73.7967 13.3494
130.42 88.4154 33.8954
131.747 87.835 34.0874
131.533 88.6763 35.407
129.646 88.3355 35.5061
129.797 87.4379 34.47
129.969 87.3434 35.732
130.928 87.1891 33.308
131.862 87.1776 33.4863
130.321 86.7144 34.6899
130.11 86.3763 34.8076
131.029 87.0598 32.2699
131.725 86.7977 32.5839
130.626 86.2287 34.3469
131.385 86.8112 31.0712
132.253 86.5274 31.565
130.27 86.9364 31.0085
129.586 86.18 31.7394
130.905 85.7474 33.0263
131.382 86.0896 30.4549
132.458 85.829 30.5029
130.709 86.7544 29.795
129.654 86.7142 30.044
130.208 85.7231 31.908
129.652 86.0616 30.7842
130.693 85.6317 31.2356
132.32 85.856 29.4992
133.484 85.3572 29.9179
131.433 86.1907 29.0547
130.303 86.8566 28.8624
129.792 86.422 29.7293
130.058 85.8478 30.1945
132.631 84.8724 29.5608
132.571 85.2169 28.6962
133.178 84.1224 29.3393
131.262 86.59 28.0133
130.077 85.9469 28.5232
130.281 85.501 29.2887
133.451 83.969 28.4424
134.183 83.4561 28.4934
132.234 85.102 27.7715
130.19 85.9823 27.4586
130.838 84.4512 28.3815
134.601 83.271 27.9335
133.717 84.1747 27.4152
134.883 82.7075 26.8025
131.808 85.6062 26.7632
130.235 84.521 27.4594
129.974 85.9459 26.3436
130.807 84.2187 26.6717
134.976 81.3433 25.6369
130.968 83.541 25.6452
135.092 80.8517 24.5752
135.767 80.5206 23.7796
135.637 80.6413 24.703
130.691 83.9551 24.6559
131.096 82.9961 23.3153
135.161 80.7347 23.4939
135.925 80.3354 22.3612
131.332 82.1378 22.0656
137.25 80.3546 21.1686
131.831 82.3526 20.8071
131.764 81.1107 21.0685
137.828 79.8966 20.0965
131.994 81.3344 20.4102
132.628 80.8427 19.6596
139.127 79.6735 19.498
133.577 80.2925 18.9112
139.987 78.9235 19.2062
133.511 79.1241 18.5853
133.841 79.6407 18.9314
133.959 78.4904 18.7085
139.866 78.0574 18.6123
133.734 78.3088 17.865
134.798 77.6165 18.0511
139.862 76.9192 18.0702
135.099 78.1765 16.9285
135.77 77.679 17.6992
139.993 76.2387 17.2774
136.067 77.0917 17.0787
136.289 77.0602 17.812
136.765 76.6438 17.3541
135.788 77.666 16.3887
139.94 76.0797 16.4554
136.736 76.4566 16.6555
137.34 75.8076 16.7384
136.384 76.8745 16.105
139.513 76.1731 15.6956
137.448 76.0526 16.0841
137.679 75.443 16.0485
140.197 75.031 15.6657
140.298 74.7409 15.0953
139.774 74.5724 15.1818
139.681 74.6017 15.8325
139.111 74.1518 15.1488
138.787 74.2787 15.6986
138.157 74.7687 15.8451
131.951 87.3102 34.7935
131.703 87.5321 35.8788
130.374 88.0898 36.7353
129.906 86.6836 36.6757
132.889 87.1007 33.8681
130.142 86.4942 35.568
130.637 86.0738 35.1691
132.57 86.7832 32.8007
130.748 85.8099 34.0906
132.432 86.2134 31.7986
131.232 85.2663 32.8119
133.051 85.5658 30.961
131.064 85.4628 31.8591
131.014 85.1813 30.7674
133.47 85.2543 30.4024
130.723 84.862 30.0318
133.744 84.965 29.6205
134.461 84.8214 30.1256
131.215 84.2622 29.3703
134.094 84.1298 29.6523
134.398 83.2317 29.0881
132.196 83.6092 28.5131
135.121 82.5557 28.4377
135.467 81.3307 27.2368
132.134 82.9542 27.4959
131.969 82.9895 26.2372
135.615 80.3887 25.8147
131.417 82.5361 25.2006
136.358 80.1157 23.6486
135.45 79.6316 24.3868
131.33 82.8426 24.4511
131.629 82.3602 22.9321
136.648 80.0864 22.2601
131.685 81.2279 22.3523
137.466 79.7506 21.1598
132.084 80.3783 21.5677
138.558 79.4163 20.4225
132.229 80.4854 20.3309
132.885 79.8375 20.622
139.234 78.8922 19.8374
133.079 79.9537 19.6237
133.835 79.1728 19.5459
139.057 78.1329 19.3183
134.619 77.9868 19.0202
139.187 77.3334 18.7983
135.295 77.202 18.8935
135.283 77.7363 19.3567
135.868 76.9872 19.3016
138.863 76.4647 18.6714
138.834 76.1008 18.0695
137.726 75.5345 18.6786
138.344 75.8024 19.1429
137.059 76.0685 18.8351
137.451 75.6462 19.3761
136.05 76.3382 18.8093
136.5 76.238 19.4206
135.506 77.1302 18.3639
139.155 75.6492 17.1105
138.429 75.2678 18.0295
137.445 75.6868 18.1653
136.533 76.1871 18.1654
139.618 75.3068 16.5727
138.904 74.4372 17.1804
137.952 74.8429 17.4599
137.303 75.9229 17.5484
139.519 75.6603 15.9393
139.077 74.9949 16.3981
138.271 74.3355 16.5979
137.663 74.8428 16.7399
132.512 86.9776 35.5025
131.271 86.9167 36.8267
132.761 86.7509 34.6192
131.643 86.6146 35.252
130.525 86.0344 36.128
132.826 86.6926 33.3554
132.562 86.0308 34.4478
131.661 85.3496 35.5785
130.482 85.4997 35.3843
131.29 85.2443 34.1116
132.719 86.0151 31.923
131.272 84.7868 32.7659
133.618 85.3799 31.1274
130.838 84.7099 31.7386
131.176 84.2817 30.7915
133.999 84.667 30.6168
131.821 83.9987 30.0416
134.265 83.9771 30.4316
132.265 83.1727 29.2025
134.664 83.8241 29.9101
134.179 83.0865 29.3916
132.468 81.7545 28.2765
134.69 82.4175 29.1028
134.283 80.3059 26.6355
134.975 81.3348 28.5536
132.318 80.5491 26.6233
133.897 80.4293 28.4431
132.271 81.9715 26.3469
134.686 79.4662 25.5425
133.398 79.8266 25.1272
132.547 81.8011 25.0953
136.373 79.6916 23.2949
134.912 79.7318 23.0992
134.568 79.3787 24.1927
133.808 80.0016 24.0876
133.456 79.7243 23.6361
133.101 80.8213 24.085
131.703 81.8418 23.9808
137.088 79.6608 22.298
132.675 80.1154 23.1073
133.466 79.4108 22.6315
131.976 81.0352 23.2143
137.885 79.245 21.6946
133.279 79.792 22.1491
133.675 78.8557 21.7631
132.696 80.6251 22.2998
138.163 78.8452 20.8172
133.423 78.8552 21.1199
134.575 78.5648 21.1732
132.771 79.688 21.3756
138.392 78.3905 20.136
134.774 78.3162 20.4928
135.455 78.4759 20.7366
133.615 79.1177 20.5281
137.812 78.0755 19.7974
137.985 78.1093 19.5206
137.017 77.8783 20.024
137.004 78.1799 20.109
135.835 77.4166 20.3856
136.159 78.1173 20.4594
135.07 77.8982 20.2268
134.583 78.1717 19.8073
138.712 76.7298 19.4038
137.762 76.9081 19.6426
136.811 76.9079 19.8457
135.547 77.176 19.8448
132.619 85.9879 33.0536
132.236 85.285 34.1545
131.457 85.1827 34.4526
133.547 85.2371 31.7938
132.795 84.9158 33.0574
131.512 84.4247 33.3138
133.665 84.1819 31.174
132.991 83.83 31.955
131.752 83.6262 32.31
131.155 84.1365 31.9787
133.887 83.7986 30.4489
133.452 83.7095 30.6798
132.296 83.1471 31.2036
131.597 83.7474 31.2125
134.37 83.2232 30.0778
133.626 83.0729 29.9811
132.926 82.6169 30.3277
131.822 82.7489 30.1566
134.437 82.4819 29.374
133.962 82.0166 29.4266
133.13 81.8809 29.3275
135.663 79.3353 22.5544
134.558 79.635 22.8281
133.962 79.4077 23.6163
136.043 79.2283 21.9433
135.214 79.1331 22.3006
134.213 79.8672 22.7857
136.31 78.8839 21.3773
135.389 78.6414 21.7952
134.175 79.2194 21.9627
136.46 78.9398 20.4148
135.884 78.3993 21.4512
134.669 78.3325 21.6995
137.135 78.5127 20.3013
136.146 78.9336 20.5921
135.487 78.4613 21.1311
POLYGONS 2132  8528
3 0 1 2
3 0 3 4
3 2 3 0
3 4 5 6
3 3 5 4
3 6 7 8
3 5 7 6
3 7 9 8
3 10 1 0
3 11 1 10
3 4 12 0
3 12 10 0
3 6 13 4
3 13 12 4
3 8 14 6
3 14 13 6
3 15 8 9
3 14 8 15
3 16 11 10
3 17 11 16
3 12 18 10
3 18 16 10
3 13 19 12
3 19 18 12
3 14 20 13
3 20 19 13
3 21 14 15
3 20 14 21
3 16 22 17
3 18 22 16
3 23 22 18
3 19 23 18
3 24 23 19
3 20 24 19
3 25 24 20
3 21 25 20
3 26 27 28
3 26 29 30
3 28 29 26
3 29 31 30
3 32 33 34
3 27 32 34
3 27 26 32
3 26 35 32
3 30 36 26
3 36 35 26
3 37 30 31
3 36 30 37
3 38 33 32
3 39 33 38
3 35 40 32
3 40 38 32
3 36 41 35
3 41 40 35
3 42 36 37
3 41 36 42
3 43 44 45
3 43 46 47
3 45 46 43
3 39 47 46
3 39 38 47
3 38 48 47
3 40 49 38
3 49 48 38
3 50 41 51
3 50 49 41
3 49 40 41
3 42 51 41
3 2 44 43
3 2 1 44
3 1 52 44
3 3 2 43
3 47 3 43
3 5 3 47
3 48 5 47
3 7 5 48
3 49 7 48
3 49 9 7
3 49 50 9
3 50 53 9
3 1 11 52
3 52 11 54
3 9 53 15
3 53 55 15
3 11 17 54
3 54 17 56
3 15 55 21
3 55 57 21
3 58 17 22
3 58 59 17
3 59 56 17
3 22 23 60
3 58 22 60
3 23 24 61
3 60 23 61
3 62 61 24
3 62 24 63
3 63 24 25
3 57 25 21
3 63 25 57
3 58 64 59
3 60 64 58
3 65 64 60
3 61 65 60
3 66 65 61
3 62 66 61
3 67 68 69
3 67 70 71
3 69 70 67
3 71 72 73
3 70 72 71
3 72 74 73
3 75 76 77
3 68 75 77
3 68 67 75
3 67 78 75
3 71 79 67
3 79 78 67
3 73 80 71
3 80 79 71
3 81 73 74
3 80 73 81
3 82 76 75
3 83 76 82
3 78 84 75
3 84 82 75
3 79 85 78
3 85 84 78
3 80 86 79
3 86 85 79
3 87 80 81
3 86 80 87
3 28 83 82
3 28 27 83
3 27 88 83
3 29 28 82
3 84 29 82
3 31 29 84
3 31 84 89
3 89 84 85
3 86 90 85
3 90 89 85
3 91 86 87
3 90 86 91
3 34 92 93
3 33 92 34
3 88 27 34
3 93 88 34
3 89 94 37
3 31 89 37
3 90 95 89
3 95 94 89
3 96 90 91
3 95 90 96
3 97 98 99
3 97 99 92
3 97 92 39
3 39 92 33
3 94 100 42
3 37 94 42
3 101 95 102
3 101 100 95
3 100 94 95
3 96 102 95
3 45 103 104
3 44 103 45
3 98 97 46
3 98 46 104
3 104 46 45
3 39 46 97
3 51 105 50
3 51 42 100
3 51 100 105
3 105 100 106
3 107 100 101
3 106 100 107
3 44 52 103
3 103 52 108
3 105 109 53
3 50 105 53
3 110 106 111
3 110 109 106
3 109 105 106
3 107 111 106
3 52 54 108
3 108 54 112
3 109 113 55
3 53 109 55
3 114 109 110
3 113 109 114
3 54 56 112
3 112 56 115
3 113 116 57
3 55 113 57
3 117 113 114
3 116 113 117
3 56 59 115
3 115 59 118
3 63 119 120
3 62 63 120
3 116 63 57
3 116 121 63
3 121 119 63
3 117 121 116
3 59 122 118
3 64 122 59
3 65 123 64
3 64 123 122
3 66 124 65
3 65 124 123
3 120 66 62
3 124 66 120
3 69 125 126
3 68 125 69
3 70 69 127
3 69 126 127
3 72 70 128
3 70 127 128
3 128 74 72
3 129 74 128
3 77 130 131
3 76 130 77
3 125 68 77
3 131 125 77
3 74 129 81
3 129 132 81
3 76 83 130
3 130 83 133
3 134 135 87
3 134 87 132
3 132 87 81
3 134 136 135
3 83 88 133
3 133 88 137
3 135 138 91
3 87 135 91
3 139 135 136
3 138 135 139
3 93 140 141
3 92 140 93
3 137 88 93
3 141 137 93
3 138 142 96
3 91 138 96
3 143 138 139
3 142 138 143
3 99 144 145
3 98 144 99
3 140 92 99
3 145 140 99
3 102 146 101
3 102 147 146
3 96 147 102
3 96 148 147
3 96 142 148
3 143 148 142
3 104 149 150
3 103 149 104
3 144 98 104
3 150 144 104
3 146 151 107
3 101 146 107
3 152 146 147
3 151 146 152
3 103 108 149
3 149 108 153
3 111 154 110
3 111 155 154
3 107 155 111
3 107 156 155
3 107 151 156
3 152 156 151
3 108 112 153
3 153 112 157
3 154 158 114
3 110 154 114
3 159 154 155
3 158 154 159
3 112 115 157
3 157 115 160
3 158 161 162
3 158 162 114
3 114 162 117
3 159 161 158
3 115 118 160
3 160 118 163
3 119 164 120
3 165 164 119
3 165 119 166
3 166 119 121
3 162 121 117
3 166 121 162
3 118 167 163
3 122 167 118
3 123 168 122
3 122 168 167
3 124 169 123
3 123 169 168
3 164 124 120
3 164 170 124
3 170 169 124
3 165 170 164
3 126 125 171
3 172 126 171
3 172 173 126
3 173 127 126
3 128 127 174
3 127 173 174
3 174 129 128
3 175 129 174
3 131 130 176
3 131 176 177
3 125 131 177
3 125 177 178
3 125 178 171
3 172 171 178
3 179 180 132
3 179 132 175
3 175 132 129
3 179 181 180
3 176 182 183
3 176 130 182
3 130 133 182
3 177 176 183
3 132 180 134
3 180 136 134
3 180 181 136
3 181 184 136
3 133 137 182
3 182 137 185
3 136 184 139
3 184 186 139
3 141 187 188
3 140 187 141
3 185 137 141
3 188 185 141
3 139 186 143
3 186 189 143
3 145 190 191
3 144 190 145
3 187 140 145
3 191 187 145
3 148 192 147
3 148 193 192
3 148 143 193
3 143 189 193
3 150 194 195
3 149 194 150
3 190 144 150
3 195 190 150
3 192 196 152
3 147 192 152
3 197 192 193
3 196 192 197
3 198 199 200
3 198 200 194
3 198 194 153
3 153 194 149
3 156 201 155
3 156 202 201
3 152 202 156
3 152 203 202
3 152 196 203
3 197 203 196
3 204 199 198
3 205 199 204
3 153 157 204
3 198 153 204
3 201 206 159
3 155 201 159
3 207 201 202
3 206 201 207
3 208 205 204
3 209 205 208
3 157 160 208
3 204 157 208
3 161 210 162
3 161 211 210
3 159 211 161
3 159 212 211
3 159 206 212
3 207 212 206
3 213 209 208
3 214 209 213
3 160 163 213
3 208 160 213
3 166 215 216
3 165 166 216
3 210 166 162
3 210 217 166
3 217 215 166
3 211 217 210
3 213 218 214
3 163 218 213
3 163 167 218
3 167 219 218
3 168 220 167
3 167 220 219
3 169 221 168
3 168 221 220
3 170 222 169
3 169 222 221
3 216 170 165
3 222 170 216
3 223 224 225
3 223 226 227
3 225 226 223
3 226 228 227
3 173 224 223
3 173 172 224
3 172 229 224
3 174 173 223
3 227 174 223
3 227 175 174
3 227 228 175
3 228 230 175
3 178 231 232
3 177 231 178
3 229 172 178
3 232 229 178
3 175 230 233
3 179 175 233
3 233 181 179
3 234 181 233
3 183 235 236
3 182 235 183
3 231 177 183
3 236 231 183
3 181 234 184
3 234 237 184
3 238 239 240
3 238 240 235
3 238 235 185
3 185 235 182
3 184 237 186
3 237 241 186
3 242 243 244
3 239 242 244
3 238 242 239
3 238 187 242
3 238 188 187
3 185 188 238
3 186 241 189
3 241 245 189
3 246 247 248
3 243 246 248
3 242 246 243
3 242 190 246
3 242 191 190
3 187 191 242
3 189 245 193
3 245 249 193
3 250 251 252
3 247 250 252
3 246 250 247
3 246 194 250
3 246 195 194
3 190 195 246
3 193 249 197
3 249 253 197
3 200 251 250
3 200 199 251
3 199 254 251
3 194 200 250
3 203 255 256
3 202 203 256
3 253 203 197
3 255 203 253
3 199 205 254
3 254 205 257
3 202 256 207
3 256 258 207
3 205 209 257
3 257 209 259
3 212 260 261
3 211 212 261
3 258 212 207
3 260 212 258
3 209 214 259
3 259 214 262
3 215 263 264
3 216 215 264
3 217 265 215
3 215 265 263
3 261 217 211
3 265 217 261
3 214 266 262
3 218 266 214
3 219 267 218
3 218 267 266
3 220 268 219
3 219 268 267
3 221 269 220
3 220 269 268
3 222 270 221
3 221 270 269
3 264 222 216
3 270 222 264
3 271 272 273
3 271 225 224
3 271 273 225
3 273 274 225
3 226 225 275
3 225 274 275
3 275 228 226
3 276 228 275
3 277 272 271
3 278 272 277
3 224 229 277
3 271 224 277
3 228 276 230
3 276 279 230
3 232 278 277
3 232 231 278
3 231 280 278
3 229 232 277
3 230 279 281
3 233 230 281
3 281 234 233
3 282 234 281
3 283 284 285
3 283 236 235
3 283 285 236
3 285 286 236
3 280 231 236
3 286 280 236
3 234 282 237
3 282 287 237
3 288 289 290
3 284 288 290
3 283 288 284
3 283 239 288
3 283 240 239
3 235 240 283
3 237 287 241
3 287 291 241
3 244 289 288
3 244 243 289
3 243 292 289
3 239 244 288
3 241 291 245
3 291 293 245
3 248 294 295
3 247 294 248
3 292 243 248
3 295 292 248
3 245 293 249
3 293 296 249
3 252 297 298
3 251 297 252
3 294 247 252
3 298 294 252
3 249 296 253
3 296 299 253
3 251 254 297
3 297 254 300
3 255 301 302
3 256 255 302
3 299 255 253
3 301 255 299
3 254 257 300
3 300 257 303
3 256 302 258
3 302 304 258
3 257 259 303
3 303 259 305
3 260 306 307
3 261 260 307
3 304 260 258
3 306 260 304
3 259 262 305
3 305 262 308
3 263 309 264
3 310 309 263
3 310 263 311
3 311 263 265
3 307 265 261
3 311 265 307
3 262 312 308
3 266 312 262
3 267 313 266
3 266 313 312
3 268 314 267
3 267 314 313
3 269 315 268
3 268 315 314
3 270 316 269
3 269 316 315
3 309 270 264
3 309 317 270
3 317 316 270
3 310 317 309
3 318 319 320
3 318 321 322
3 320 321 318
3 322 323 324
3 321 323 322
3 323 325 324
3 273 319 318
3 273 272 319
3 272 326 319
3 274 273 318
3 322 274 318
3 275 274 322
3 324 275 322
3 324 276 275
3 324 325 276
3 325 327 276
3 272 278 326
3 326 278 328
3 276 327 279
3 327 329 279
3 330 331 332
3 330 332 328
3 330 328 280
3 280 328 278
3 279 329 333
3 281 279 333
3 333 282 281
3 334 282 333
3 285 335 336
3 284 335 285
3 331 330 286
3 331 286 336
3 336 286 285
3 280 286 330
3 282 334 287
3 334 337 287
3 290 338 339
3 289 338 290
3 335 284 290
3 339 335 290
3 287 337 291
3 337 340 291
3 289 292 338
3 338 292 341
3 291 340 293
3 340 342 293
3 295 343 344
3 294 343 295
3 341 292 295
3 344 341 295
3 293 342 296
3 342 345 296
3 298 346 347
3 297 346 298
3 343 294 298
3 347 343 298
3 296 345 299
3 345 348 299
3 297 300 346
3 346 300 349
3 301 350 351
3 302 301 351
3 348 301 299
3 350 301 348
3 300 303 349
3 349 303 352
3 302 351 304
3 351 353 304
3 303 305 352
3 352 305 354
3 306 355 356
3 307 306 356
3 353 306 304
3 355 306 353
3 305 308 354
3 354 308 357
3 311 358 359
3 310 311 359
3 356 311 307
3 358 311 356
3 308 360 357
3 312 360 308
3 313 361 312
3 312 361 360
3 314 362 313
3 313 362 361
3 315 363 314
3 314 363 362
3 316 364 315
3 315 364 363
3 317 365 316
3 316 365 364
3 359 317 310
3 365 317 359
3 366 367 368
3 366 369 370
3 368 369 366
3 369 371 370
3 320 367 366
3 320 319 367
3 319 372 367
3 321 320 366
3 370 321 366
3 370 371 373
3 370 373 321
3 321 373 323
3 373 325 323
3 374 325 373
3 375 376 377
3 375 377 372
3 375 372 326
3 326 372 319
3 325 374 327
3 374 378 327
3 379 376 375
3 380 376 379
3 326 328 379
3 375 326 379
3 327 378 329
3 378 381 329
3 382 383 384
3 380 382 384
3 379 382 380
3 379 331 382
3 379 332 331
3 328 332 379
3 329 381 385
3 333 329 385
3 385 334 333
3 386 334 385
3 387 388 389
3 383 387 389
3 382 387 383
3 382 335 387
3 382 336 335
3 331 336 382
3 334 386 337
3 386 390 337
3 339 388 387
3 339 338 388
3 338 391 388
3 335 339 387
3 337 390 340
3 390 392 340
3 393 394 395
3 393 395 391
3 393 391 341
3 341 391 338
3 340 392 342
3 392 396 342
3 397 398 399
3 394 397 399
3 393 397 394
3 393 343 397
3 393 344 343
3 341 344 393
3 400 401 402
3 400 396 401
3 400 345 396
3 345 342 396
3 347 398 397
3 347 346 398
3 346 403 398
3 343 347 397
3 404 400 402
3 405 404 402
3 345 404 348
3 400 404 345
3 346 349 403
3 403 349 406
3 350 404 405
3 350 405 351
3 351 405 407
3 348 404 350
3 349 352 406
3 406 352 408
3 351 407 353
3 407 409 353
3 352 354 408
3 408 354 410
3 355 411 412
3 356 355 412
3 409 355 353
3 411 355 409
3 413 357 414
3 413 410 357
3 410 354 357
3 413 414 415
3 358 416 417
3 359 358 417
3 412 358 356
3 416 358 412
3 357 360 414
3 414 418 415
3 414 360 418
3 360 361 418
3 362 419 361
3 361 419 418
3 363 420 362
3 362 420 419
3 364 421 363
3 363 421 420
3 365 422 364
3 364 422 421
3 417 365 359
3 422 365 417
3 423 424 425
3 423 368 367
3 423 425 368
3 425 426 368
3 369 368 427
3 368 426 427
3 427 371 369
3 428 371 427
3 429 424 423
3 430 424 429
3 367 372 429
3 423 367 429
3 371 428 431
3 373 371 431
3 431 374 373
3 432 374 431
3 433 434 435
3 430 433 435
3 429 433 430
3 429 376 433
3 429 377 376
3 372 377 429
3 374 432 378
3 432 436 378
3 437 434 433
3 438 434 437
3 376 380 437
3 433 376 437
3 439 440 381
3 439 381 436
3 436 381 378
3 439 441 440
3 442 443 444
3 438 442 444
3 437 442 438
3 437 383 442
3 437 384 383
3 380 384 437
3 381 440 385
3 440 386 385
3 440 441 386
3 441 445 386
3 389 443 442
3 389 388 443
3 388 446 443
3 383 389 442
3 386 445 390
3 445 447 390
3 388 391 446
3 446 391 448
3 390 447 392
3 447 449 392
3 395 450 451
3 394 450 395
3 448 391 395
3 451 448 395
3 392 449 396
3 449 452 396
3 399 453 454
3 398 453 399
3 450 394 399
3 454 450 399
3 401 455 456
3 402 401 456
3 452 401 396
3 455 401 452
3 398 403 453
3 453 403 457
3 402 456 405
3 456 458 405
3 403 406 457
3 457 406 459
3 405 458 407
3 458 460 407
3 406 408 459
3 459 408 461
3 462 463 464
3 462 460 463
3 462 409 460
3 409 407 460
3 465 410 466
3 465 461 410
3 461 408 410
3 465 466 467
3 468 469 470
3 464 469 468
3 462 464 468
3 462 468 412
3 462 412 411
3 409 462 411
3 410 413 466
3 466 413 415
3 466 415 467
3 467 415 471
3 472 473 474
3 472 475 476
3 473 472 476
3 470 476 475
3 468 470 475
3 468 475 417
3 468 417 416
3 412 468 416
3 415 477 471
3 418 477 415
3 419 478 418
3 418 478 477
3 420 479 419
3 419 479 478
3 474 421 472
3 474 479 421
3 479 420 421
3 422 472 421
3 475 472 422
3 417 475 422
3 480 481 482
3 480 483 484
3 482 483 480
3 483 485 484
3 425 486 487
3 424 486 425
3 481 480 426
3 481 426 487
3 487 426 425
3 427 426 480
3 484 427 480
3 484 428 427
3 484 485 428
3 485 488 428
3 489 490 491
3 489 491 486
3 489 486 430
3 430 486 424
3 428 488 492
3 431 428 492
3 492 432 431
3 493 432 492
3 494 495 496
3 490 494 496
3 489 494 490
3 489 434 494
3 489 435 434
3 430 435 489
3 432 493 436
3 493 497 436
3 498 495 494
3 499 495 498
3 434 438 498
3 494 434 498
3 436 497 500
3 439 436 500
3 500 441 439
3 501 441 500
3 444 499 498
3 444 443 499
3 443 502 499
3 438 444 498
3 441 501 445
3 501 503 445
3 504 505 506
3 504 506 502
3 504 502 446
3 446 502 443
3 445 503 447
3 503 507 447
3 508 505 504
3 509 505 508
3 446 448 508
3 504 446 508
3 447 507 449
3 507 510 449
3 511 512 513
3 509 511 513
3 508 511 509
3 508 450 511
3 508 451 450
3 448 451 508
3 449 510 452
3 510 514 452
3 454 512 511
3 454 453 512
3 453 515 512
3 450 454 511
3 455 516 517
3 456 455 517
3 514 455 452
3 516 455 514
3 453 457 515
3 515 457 518
3 456 517 458
3 517 519 458
3 457 459 518
3 518 459 520
3 521 522 523
3 521 519 522
3 521 460 519
3 460 458 519
3 459 461 520
3 520 461 524
3 525 526 527
3 525 528 529
3 526 525 529
3 528 530 531
3 529 528 531
3 523 531 530
3 521 523 530
3 521 530 464
3 521 464 463
3 460 521 463
3 461 532 524
3 465 532 461
3 532 465 467
3 533 532 467
3 534 525 527
3 535 534 527
3 528 525 536
3 536 525 534
3 469 536 470
3 469 530 536
3 530 528 536
3 464 530 469
3 537 471 538
3 537 533 471
3 533 467 471
3 538 539 540
3 537 538 540
3 539 541 542
3 540 539 542
3 535 542 541
3 534 535 541
3 534 541 474
3 534 474 473
3 476 534 473
3 536 534 476
3 470 536 476
3 471 477 538
3 478 538 477
3 539 538 478
3 479 539 478
3 541 539 479
3 474 541 479
3 543 544 545
3 543 546 547
3 545 546 543
3 547 548 549
3 546 548 547
3 548 550 549
3 551 544 543
3 552 544 551
3 482 481 551
3 482 551 547
3 547 551 543
3 483 482 547
3 549 483 547
3 549 485 483
3 549 550 485
3 550 553 485
3 554 555 556
3 552 554 556
3 551 554 552
3 551 486 554
3 551 487 486
3 481 487 551
3 485 553 488
3 553 557 488
3 558 559 560
3 555 558 560
3 554 558 555
3 554 490 558
3 554 491 490
3 486 491 554
3 488 557 561
3 492 488 561
3 561 493 492
3 562 493 561
3 496 559 558
3 496 495 559
3 495 563 559
3 490 496 558
3 493 562 497
3 562 564 497
3 565 566 567
3 565 567 563
3 565 563 499
3 499 563 495
3 568 500 497
3 568 497 569
3 569 497 564
3 500 568 501
3 570 566 565
3 571 566 570
3 499 502 570
3 565 499 570
3 568 569 572
3 572 501 568
3 572 573 501
3 573 503 501
3 506 571 570
3 506 505 571
3 505 574 571
3 502 506 570
3 503 573 507
3 573 575 507
3 576 577 578
3 576 578 574
3 576 574 509
3 509 574 505
3 507 575 510
3 575 579 510
3 513 577 576
3 513 512 577
3 512 580 577
3 509 513 576
3 581 582 583
3 581 579 582
3 581 514 579
3 514 510 579
3 512 515 580
3 580 515 584
3 516 581 583
3 516 583 517
3 517 583 585
3 514 581 516
3 515 518 584
3 584 518 586
3 517 585 519
3 585 587 519
3 588 520 589
3 588 586 520
3 586 518 520
3 588 589 590
3 591 592 593
3 591 523 522
3 591 522 592
3 592 522 594
3 587 522 519
3 594 522 587
3 589 524 595
3 520 524 589
3 596 590 589
3 595 596 589
3 526 597 598
3 527 526 598
3 529 599 526
3 526 599 597
3 593 531 591
3 593 599 531
3 599 529 531
3 523 591 531
3 524 532 595
3 533 600 601
3 532 533 601
3 532 601 596
3 532 596 595
3 600 602 603
3 601 600 603
3 602 604 605
3 603 602 605
3 604 598 605
3 604 535 598
3 535 527 598
3 533 537 600
3 540 600 537
3 602 600 540
3 542 602 540
3 604 602 542
3 535 604 542
3 606 607 608
3 606 609 610
3 608 609 606
3 610 545 544
3 610 609 545
3 609 611 545
3 546 545 612
3 545 611 612
3 548 546 613
3 546 612 613
3 613 550 548
3 614 550 613
3 615 607 606
3 616 607 615
3 610 617 606
3 617 615 606
3 544 552 617
3 610 544 617
3 550 614 553
3 614 618 553
3 619 616 615
3 620 616 619
3 556 555 619
3 556 619 617
3 617 619 615
3 552 556 617
3 553 618 557
3 618 621 557
3 622 623 624
3 620 622 624
3 619 622 620
3 619 559 622
3 619 560 559
3 555 560 619
3 625 561 557
3 625 557 626
3 626 557 621
3 561 625 562
3 627 623 622
3 628 623 627
3 559 563 627
3 622 559 627
3 625 626 629
3 629 562 625
3 629 630 562
3 630 564 562
3 567 628 627
3 567 566 628
3 566 631 628
3 563 567 627
3 564 630 569
3 630 632 569
3 566 571 631
3 631 571 633
3 634 572 569
3 634 569 635
3 635 569 632
3 572 634 573
3 571 574 633
3 633 574 636
3 637 634 635
3 638 637 635
3 573 637 575
3 634 637 573
3 578 639 640
3 577 639 578
3 636 574 578
3 640 636 578
3 641 642 643
3 638 642 641
3 638 641 637
3 637 641 644
3 575 644 579
3 637 644 575
3 577 580 639
3 639 580 645
3 646 641 643
3 647 646 643
3 582 646 583
3 582 644 646
3 644 641 646
3 579 644 582
3 580 584 645
3 645 584 648
3 649 646 647
3 650 649 647
3 583 649 585
3 646 649 583
3 584 586 648
3 648 586 651
3 652 653 654
3 650 653 652
3 650 652 649
3 649 652 655
3 585 655 587
3 649 655 585
3 586 656 651
3 588 656 586
3 590 657 658
3 590 658 588
3 588 658 656
3 658 657 659
3 660 661 662
3 654 661 660
3 652 654 660
3 652 660 593
3 652 593 592
3 594 652 592
3 655 652 594
3 587 655 594
3 657 596 663
3 590 596 657
3 664 659 657
3 664 657 665
3 665 657 663
3 665 666 667
3 664 665 667
3 666 598 597
3 666 597 667
3 667 597 668
3 662 599 660
3 662 668 599
3 668 597 599
3 593 660 599
3 596 601 663
3 603 663 601
3 665 663 603
3 605 665 603
3 666 665 605
3 598 666 605
3 669 670 671
3 669 672 673
3 671 672 669
3 673 674 675
3 672 674 673
3 674 676 675
3 677 678 679
3 670 677 679
3 670 669 677
3 669 680 677
3 673 681 669
3 681 680 669
3 675 682 673
3 682 681 673
3 683 675 676
3 682 675 683
3 608 678 677
3 608 607 678
3 607 684 678
3 609 608 677
3 680 609 677
3 611 609 680
3 681 611 680
3 612 611 681
3 682 612 681
3 682 683 685
3 682 685 612
3 612 685 613
3 685 614 613
3 686 614 685
3 607 616 684
3 684 616 687
3 614 686 618
3 686 688 618
3 689 690 691
3 689 691 687
3 689 687 620
3 620 687 616
3 618 688 621
3 688 692 621
3 624 690 689
3 624 623 690
3 623 693 690
3 620 624 689
3 621 692 626
3 692 694 626
3 623 628 693
3 693 628 695
3 626 694 696
3 629 626 696
3 696 630 629
3 697 630 696
3 628 631 695
3 695 631 698
3 630 697 632
3 697 699 632
3 631 633 698
3 698 633 700
3 632 699 635
3 699 701 635
3 633 636 700
3 700 636 702
3 635 701 638
3 701 703 638
3 640 639 704
3 640 704 705
3 640 705 636
3 636 705 702
3 642 706 707
3 643 642 707
3 703 642 638
3 706 642 703
3 704 645 708
3 639 645 704
3 709 705 704
3 708 709 704
3 643 707 647
3 707 710 647
3 708 648 711
3 645 648 708
3 712 709 708
3 711 712 708
3 713 714 715
3 713 710 714
3 713 650 710
3 650 647 710
3 711 651 716
3 648 651 711
3 717 712 711
3 716 717 711
3 718 719 720
3 718 721 722
3 719 718 722
3 715 722 721
3 713 715 721
3 713 721 654
3 713 654 653
3 650 713 653
3 651 656 716
3 716 723 717
3 716 656 723
3 656 658 723
3 659 724 725
3 659 725 658
3 658 725 723
3 724 726 727
3 725 724 727
3 720 727 726
3 720 726 718
3 718 726 728
3 661 728 662
3 661 721 728
3 721 718 728
3 654 721 661
3 659 664 724
3 667 724 664
3 726 724 667
3 668 726 667
3 728 726 668
3 662 728 668
3 729 730 731
3 729 732 733
3 731 732 729
3 732 734 733
3 735 730 729
3 736 730 735
3 733 737 729
3 737 735 729
3 738 733 734
3 737 733 738
3 735 739 736
3 737 739 735
3 740 739 737
3 738 740 737
3 741 742 743
3 741 744 745
3 743 744 741
3 745 746 747
3 744 746 745
3 746 748 747
3 749 742 741
3 750 742 749
3 671 670 749
3 671 749 745
3 745 749 741
3 672 671 745
3 747 672 745
3 747 748 751
3 747 751 672
3 672 751 674
3 751 676 674
3 752 676 751
3 679 750 749
3 679 678 750
3 678 753 750
3 670 679 749
3 676 752 683
3 752 754 683
3 755 756 757
3 755 757 753
3 755 753 684
3 684 753 678
3 683 754 758
3 685 683 758
3 758 686 685
3 759 686 758
3 760 756 755
3 761 756 760
3 684 687 760
3 755 684 760
3 686 759 688
3 759 762 688
3 691 761 760
3 691 690 761
3 690 763 761
3 687 691 760
3 688 762 692
3 762 764 692
3 690 693 763
3 763 693 765
3 692 764 694
3 764 766 694
3 693 695 765
3 765 695 767
3 768 696 694
3 768 694 769
3 769 694 766
3 696 768 697
3 695 698 767
3 767 698 770
3 771 768 769
3 772 771 769
3 697 771 699
3 768 771 697
3 698 700 770
3 770 700 773
3 774 771 772
3 775 774 772
3 699 774 701
3 771 774 699
3 700 702 773
3 773 702 776
3 777 774 775
3 778 777 775
3 701 777 703
3 774 777 701
3 702 705 776
3 776 705 779
3 780 781 782
3 778 781 780
3 777 778 780
3 777 780 707
3 777 707 706
3 703 777 706
3 705 709 779
3 779 709 783
3 784 785 786
3 784 787 788
3 785 784 788
3 782 788 787
3 782 787 780
3 780 787 789
3 707 789 710
3 780 789 707
3 790 712 791
3 790 783 712
3 783 709 712
3 791 792 793
3 790 791 793
3 792 794 795
3 793 792 795
3 786 795 794
3 786 794 784
3 784 794 796
3 787 784 797
3 797 784 796
3 714 797 715
3 714 789 797
3 789 787 797
3 710 789 714
3 791 717 798
3 712 717 791
3 792 791 799
3 799 791 798
3 794 792 800
3 800 792 799
3 719 800 720
3 719 796 800
3 796 794 800
3 722 796 719
3 797 796 722
3 715 797 722
3 717 723 798
3 725 798 723
3 799 798 725
3 727 799 725
3 800 799 727
3 720 800 727
3 801 802 803
3 801 804 805
3 803 804 801
3 804 806 805
3 807 802 801
3 808 802 807
3 731 730 807
3 731 807 805
3 805 807 801
3 805 806 809
3 805 809 731
3 731 809 732
3 809 734 732
3 810 734 809
3 811 808 807
3 812 808 811
3 730 736 811
3 807 730 811
3 734 810 738
3 810 813 738
3 814 812 811
3 815 812 814
3 736 739 816
3 736 816 811
3 811 816 814
3 739 740 817
3 816 739 817
3 740 818 817
3 740 738 818
3 738 813 818
3 819 815 814
3 820 815 819
3 816 821 814
3 821 819 814
3 817 822 816
3 822 821 816
3 823 817 818
3 823 824 817
3 824 822 817
3 823 825 824
3 826 820 819
3 827 820 826
3 821 828 819
3 828 826 819
3 822 829 821
3 829 828 821
3 824 830 822
3 830 829 822
3 831 824 825
3 830 824 831
3 826 832 827
3 832 833 834
3 832 826 833
3 826 828 833
3 829 835 828
3 835 833 828
3 830 836 829
3 836 835 829
3 837 830 831
3 836 830 837
3 838 834 833
3 839 834 838
3 835 840 833
3 840 838 833
3 836 841 835
3 841 840 835
3 842 836 837
3 841 836 842
3 838 843 839
3 843 844 845
3 843 838 844
3 838 840 844
3 841 846 840
3 846 844 840
3 847 841 842
3 847 848 841
3 848 846 841
3 847 849 848
3 743 845 844
3 743 742 845
3 742 850 845
3 744 743 844
3 846 744 844
3 746 744 846
3 848 746 846
3 848 748 746
3 848 849 748
3 849 851 748
3 852 853 854
3 852 854 850
3 852 850 750
3 750 850 742
3 748 851 855
3 751 748 855
3 855 752 751
3 856 752 855
3 857 853 852
3 858 853 857
3 750 753 857
3 852 750 857
3 752 856 754
3 856 859 754
3 757 858 857
3 757 756 858
3 756 860 858
3 753 757 857
3 861 758 754
3 861 754 862
3 862 754 859
3 758 861 759
3 756 761 860
3 860 761 863
3 861 862 864
3 864 759 861
3 864 865 759
3 865 762 759
3 761 763 863
3 863 763 866
3 762 865 764
3 865 867 764
3 763 765 866
3 866 765 868
3 869 870 871
3 869 867 870
3 869 766 867
3 766 764 867
3 765 767 868
3 868 767 872
3 873 869 871
3 874 873 871
3 766 873 769
3 869 873 766
3 767 770 872
3 872 770 875
3 876 873 874
3 877 876 874
3 769 876 772
3 873 876 769
3 770 773 875
3 875 773 878
3 879 880 881
3 877 880 879
3 877 879 876
3 876 879 882
3 772 882 775
3 876 882 772
3 773 776 878
3 878 776 883
3 884 879 881
3 885 884 881
3 882 879 886
3 886 879 884
3 775 886 778
3 882 886 775
3 776 779 883
3 883 779 887
3 888 884 885
3 889 888 885
3 781 888 782
3 781 886 888
3 886 884 888
3 778 886 781
3 890 783 891
3 890 887 783
3 887 779 783
3 891 892 893
3 890 891 893
3 892 894 895
3 893 892 895
3 894 786 785
3 894 785 895
3 895 785 896
3 889 788 888
3 889 896 788
3 896 785 788
3 782 888 788
3 783 790 891
3 793 891 790
3 892 891 793
3 795 892 793
3 894 892 795
3 786 894 795
3 803 897 898
3 802 897 803
3 804 803 899
3 803 898 899
3 899 806 804
3 900 806 899
3 802 808 897
3 897 808 901
3 806 900 902
3 809 806 902
3 902 810 809
3 903 810 902
3 808 812 901
3 901 812 904
3 810 903 813
3 903 905 813
3 812 815 904
3 904 815 906
3 813 905 818
3 905 907 818
3 815 820 906
3 906 820 908
3 818 907 909
3 823 818 909
3 909 825 823
3 910 825 909
3 820 827 908
3 908 827 911
3 825 910 831
3 910 912 831
3 913 827 832
3 913 914 827
3 914 911 827
3 832 834 913
3 831 912 837
3 912 915 837
3 913 916 914
3 916 913 834
3 916 834 917
3 917 834 839
3 837 915 842
3 915 918 842
3 839 919 917
3 843 919 839
3 919 843 845
3 920 919 845
3 842 918 921
3 847 842 921
3 921 849 847
3 922 849 921
3 845 850 920
3 920 850 923
3 849 922 851
3 922 924 851
3 854 925 926
3 853 925 854
3 923 850 854
3 926 923 854
3 851 924 927
3 855 851 927
3 927 856 855
3 928 856 927
3 853 858 925
3 925 858 929
3 856 928 859
3 928 930 859
3 858 860 929
3 929 860 931
3 859 930 862
3 930 932 862
3 860 863 931
3 931 863 933
3 934 864 862
3 934 862 935
3 935 862 932
3 864 934 865
3 863 866 933
3 933 866 936
3 937 934 935
3 938 937 935
3 865 937 867
3 934 937 865
3 866 868 936
3 936 868 939
3 870 937 938
3 870 938 871
3 871 938 940
3 867 937 870
3 868 872 939
3 939 872 941
3 942 943 944
3 942 940 943
3 942 874 940
3 874 871 940
3 945 875 946
3 945 941 875
3 941 872 875
3 946 947 948
3 945 946 948
3 947 949 950
3 948 947 950
3 949 951 952
3 950 949 952
3 944 952 951
3 944 951 942
3 942 951 953
3 874 953 877
3 942 953 874
3 946 878 954
3 875 878 946
3 947 946 955
3 955 946 954
3 949 947 956
3 956 947 955
3 951 949 957
3 957 949 956
3 880 957 881
3 880 953 957
3 953 951 957
3 877 953 880
3 954 883 958
3 878 883 954
3 955 954 959
3 959 954 958
3 956 955 960
3 960 955 959
3 957 956 961
3 961 956 960
3 881 961 885
3 957 961 881
3 958 887 962
3 883 887 958
3 959 958 963
3 963 958 962
3 960 959 964
3 964 959 963
3 961 960 965
3 965 960 964
3 885 965 889
3 961 965 885
3 887 890 962
3 893 962 890
3 963 962 893
3 895 963 893
3 964 963 895
3 896 964 895
3 965 964 896
3 889 965 896
3 898 897 966
3 898 967 899
3 966 967 898
3 899 967 900
3 966 901 968
3 897 901 966
3 967 966 969
3 969 966 968
3 900 970 902
3 900 967 970
3 967 969 970
3 902 970 903
3 968 971 972
3 968 901 971
3 901 904 971
3 969 968 972
3 973 969 972
3 970 969 973
3 974 970 973
3 974 903 970
3 974 975 903
3 975 905 903
3 904 906 971
3 971 906 976
3 905 975 907
3 975 977 907
3 906 908 976
3 976 908 978
3 907 977 979
3 909 907 979
3 979 910 909
3 980 910 979
3 908 911 978
3 978 911 981
3 910 980 912
3 980 982 912
3 911 914 981
3 981 914 983
3 912 982 915
3 982 984 915
3 914 985 983
3 916 985 914
3 985 916 917
3 986 985 917
3 915 984 918
3 984 987 918
3 917 988 986
3 919 988 917
3 920 989 990
3 920 990 919
3 919 990 988
3 989 991 992
3 990 989 992
3 921 991 993
3 921 987 991
3 921 918 987
3 992 991 987
3 921 993 922
3 989 923 994
3 920 923 989
3 991 989 995
3 995 989 994
3 993 991 996
3 996 991 995
3 922 996 924
3 993 996 922
3 926 997 998
3 925 997 926
3 994 923 926
3 994 926 999
3 999 926 998
3 995 994 999
3 1000 995 999
3 1000 1001 1002
3 1000 1002 995
3 995 1002 996
3 924 1003 927
3 924 996 1003
3 996 1002 1003
3 927 1003 928
3 925 929 997
3 997 929 1004
3 1005 1002 1001
3 1006 1005 1001
3 1003 1002 1007
3 1007 1002 1005
3 928 1007 930
3 1003 1007 928
3 929 931 1004
3 1004 931 1008
3 1009 1005 1006
3 1010 1009 1006
3 1007 1005 1011
3 1011 1005 1009
3 930 1011 932
3 1007 1011 930
3 931 933 1008
3 1008 933 1012
3 1013 1009 1010
3 1014 1013 1010
3 1011 1009 1015
3 1015 1009 1013
3 932 1015 935
3 1011 1015 932
3 933 936 1012
3 1012 936 1016
3 1017 1013 1014
3 1018 1017 1014
3 1015 1013 1019
3 1019 1013 1017
3 935 1019 938
3 1015 1019 935
3 1020 939 1021
3 1020 1016 939
3 1016 936 939
3 1021 1022 1023
3 1020 1021 1023
3 1022 1024 1025
3 1023 1022 1025
3 1018 1025 1024
3 1018 1024 1017
3 1017 1024 1026
3 1019 1017 1027
3 1027 1017 1026
3 938 1027 940
3 1019 1027 938
3 1021 941 1028
3 939 941 1021
3 1022 1021 1029
3 1029 1021 1028
3 1024 1022 1030
3 1030 1022 1029
3 1026 1024 1031
3 1031 1024 1030
3 943 1031 944
3 943 1027 1031
3 1027 1026 1031
3 940 1027 943
3 941 945 1028
3 948 1028 945
3 1029 1028 948
3 950 1029 948
3 1030 1029 950
3 952 1030 950
3 1031 1030 952
3 944 1031 952
3 972 971 1032
3 972 1033 973
3 1032 1033 972
3 973 1034 974
3 1033 1034 973
3 974 1034 975
3 1032 976 1035
3 971 976 1032
3 1033 1032 1036
3 1036 1032 1035
3 1034 1033 1037
3 1037 1033 1036
3 975 1037 977
3 1034 1037 975
3 1035 978 1038
3 976 978 1035
3 1036 1035 1039
3 1039 1035 1038
3 1037 1036 1040
3 1040 1036 1039
3 977 1041 979
3 977 1037 1041
3 1037 1040 1041
3 979 1041 980
3 1038 981 1042
3 978 981 1038
3 1039 1038 1043
3 1043 1038 1042
3 1040 1039 1044
3 1044 1039 1043
3 1041 1040 1045
3 1045 1040 1044
3 980 1045 982
3 1041 1045 980
3 1042 983 1046
3 981 983 1042
3 1043 1042 1047
3 1047 1042 1046
3 1044 1043 1048
3 1048 1043 1047
3 1045 1044 1049
3 1049 1044 1048
3 982 1049 984
3 1045 1049 982
3 983 985 1046
3 986 1046 985
3 986 1050 1046
3 1050 1047 1046
3 1048 1047 1051
3 1051 1047 1050
3 1049 1048 1052
3 1052 1048 1051
3 984 1052 987
3 1049 1052 984
3 986 988 1050
3 990 1050 988
3 1051 1050 990
3 992 1051 990
3 1052 1051 992
3 987 1052 992
3 998 997 1053
3 998 1054 999
3 1053 1054 998
3 999 1055 1000
3 1054 1055 999
3 1000 1055 1001
3 1053 1004 1056
3 997 1004 1053
3 1054 1053 1057
3 1057 1053 1056
3 1055 1054 1058
3 1058 1054 1057
3 1001 1058 1006
3 1055 1058 1001
3 1056 1008 1059
3 1004 1008 1056
3 1057 1056 1060
3 1060 1056 1059
3 1058 1057 1061
3 1061 1057 1060
3 1006 1061 1010
3 1058 1061 1006
3 1059 1012 1062
3 1008 1012 1059
3 1060 1059 1063
3 1063 1059 1062
3 1061 1060 1064
3 1064 1060 1063
3 1010 1064 1014
3 1061 1064 1010
3 1062 1016 1065
3 1012 1016 1062
3 1063 1062 1066
3 1066 1062 1065
3 1064 1063 1067
3 1067 1063 1066
3 1014 1067 1018
3 1064 1067 1014
3 1016 1020 1065
3 1023 1065 1020
3 1066 1065 1023
3 1025 1066 1023
3 1067 1066 1025
3 1018 1067 1025
