# vtk DataFile Version 3.0
this file was written using fslvtkio
ASCII
DATASET POLYDATA
POINTS 642 float
98.5558 86.6994 12.5489
116.897 92.3572 16.6468
103.306 100.019 23.988
83.4444 94.9368 17.6201
92.6519 81.4122 22.0729
95.1959 98.9157 12.1345
107.313 103.06 14.3881
106.285 85.9584 26.1624
110.632 79.7974 15.1032
90.4332 94.6412 26.5055
88.1403 107.765 19.6605
112.493 93.1027 5.12807
109.387 80.6904 21.6922
101.659 77.9956 18.6953
99.0788 81.3449 25.4
97.8315 89.8628 27.5045
89.4521 86.6986 25.7847
112.686 99.4308 8.52633
100.188 102.579 12.8616
104.765 95.4711 9.76792
96.6105 106.006 17.6772
89.2715 104.807 14.1606
85.7922 87.4163 20.6833
95.5245 82.6927 16.7628
89.3373 90.5514 15.1771
86.6067 98.5903 13.8172
97.0698 92.9563 11.6793
112.933 87.8269 21.808
105.306 93.2732 25.7188
111.829 96.8695 21.2068
114.878 99.4182 14.1214
106.182 104.413 19.9226
105.585 88.5907 8.9466
104.443 80.6579 11.9118
114.577 85.5705 9.17712
118.614 93.867 8.96891
116.246 85.4278 15.768
79.864 103.577 16.9001
86.6139 103.134 24.5993
84.0379 94.9211 22.6671
95.8666 105.819 23.635
96.5842 98.7452 27.5743
105.453 78.5922 20.6101
100.402 78.5908 22.587
104.256 80.6732 23.9114
95.3553 80.447 24.3559
97.1625 79.2393 20.4424
106.133 78.0503 16.9929
110.221 80.0112 18.3479
108.222 82.9251 24.2865
102.78 83.343 26.4289
98.4558 85.0511 27.1101
94.2024 83.5931 26.1462
93.685 87.7262 27.1182
90.5215 83.8591 24.0966
102.036 87.8186 27.0923
93.9633 92.0496 27.677
89.8293 90.4241 26.5974
106.771 100.061 10.9377
103.05 98.974 11.3591
108.189 97.9668 8.44933
100.122 96.8522 11.5823
97.7906 100.915 12.16
103.931 102.422 13.382
110.089 101.45 11.3295
112.409 96.9172 6.13832
108.585 94.3616 7.54011
93.077 106.699 15.3595
94.4104 103.787 13.7719
98.5636 104.585 15.1031
92.2061 102.053 12.8657
88.581 107.09 16.4031
92.8875 107.801 18.6028
101.923 104.058 16.3705
90.232 85.1281 18.6974
92.7305 87.0254 16.6132
87.1185 88.3226 17.4712
94.6409 88.7335 14.526
96.7431 84.5967 14.564
93.9441 81.9873 19.3419
89.1817 84.2817 21.3265
84.2524 91.0348 19.2262
85.4181 92.3717 15.6562
87.4901 94.3288 13.4838
93.6111 92.0423 14.1789
91.2614 95.5196 12.7005
97.5889 89.8717 11.8664
84.583 97.2336 15.3176
90.6205 98.8818 12.0739
96.4679 95.7392 12.395
110.001 90.6408 24.3089
109.428 94.9355 24.1924
112.985 92.3815 22.1154
108.364 98.8486 23.194
104.618 96.743 25.048
105.931 89.6464 26.1496
109.927 86.6784 24.1707
115.427 90.0751 19.705
114.491 94.5086 19.0927
113.436 98.3728 17.7104
109.204 100.617 20.3164
110.542 101.485 17.3026
105.176 102.549 22.2792
116.065 96.0645 15.4719
111.767 102.3 14.0454
106.759 104.106 17.1012
105.571 84.3356 9.60393
109.724 81.7067 9.89316
110.386 86.5415 7.36825
113.097 82.2577 12.1738
107.436 79.0019 13.3634
101.302 83.6509 11.9618
101.822 87.4508 10.6309
108.677 90.7044 7.30239
114.652 89.7473 6.4396
117.609 90.0937 8.3659
116.213 85.9226 12.0832
118.501 89.6543 12.4455
113.899 82.4296 15.5567
116.785 95.3043 5.65887
118.428 92.7911 13.2111
117.361 88.6918 16.4625
81.4119 103.932 21.1491
84.2309 99.2463 24.0761
81.1187 99.6826 20.4052
86.9751 94.7003 24.9054
88.541 98.8243 25.8458
86.8481 106.412 22.2864
83.3062 106.589 17.49
81.5636 99.011 17.4081
82.5301 94.4567 20.2586
96.0449 103.032 26.5056
91.4281 101.421 26.4885
90.8913 105.599 25.0771
93.5378 96.7685 27.3267
100.293 99.6424 26.4701
99.7745 102.935 24.1629
92.3399 107.593 21.7336
98.0417 79.546 17.3751
102.967 78.6914 15.1616
99.8819 81.3918 14.1063
101.265 90.632 10.0877
105.121 92.1474 9.09047
101.013 93.8878 10.6791
86.2788 90.6834 24.7742
86.9106 86.7552 23.4782
83.9321 90.8261 22.1251
82.8091 101.504 14.8625
88.5002 101.279 13.7871
84.4624 105.444 14.9446
113.566 82.1449 19.1277
112.051 83.7368 22.0383
115.16 86.3 18.9055
117.723 96.4857 12.0065
114.513 100.687 11.2049
116.715 97.6501 7.93149
100.916 96.0125 26.846
101.457 91.7039 27.0849
97.4027 94.3629 27.8575
96.8355 106.236 20.5964
101.691 104.785 18.7171
101.11 104.135 21.5437
102.973 78.509 21.7204
102.499 79.5198 23.2462
104.885 79.6184 22.2312
101.655 80.7258 24.7038
100.012 79.6581 24.0768
101.182 78.0836 20.7973
103.428 77.9085 19.9615
107.237 79.7426 21.1562
106.717 80.5684 22.678
98.0556 79.2723 23.5362
98.7651 78.6489 21.5967
96.7046 79.4208 22.5362
99.3943 78.2527 19.6778
97.3783 80.5571 24.9248
94.1644 80.5045 23.2492
95.299 80.3164 21.5911
105.765 78.1023 18.9473
107.85 79.1923 19.5585
107.988 78.501 18.106
109.782 80.2982 20.063
103.879 77.9751 18.0027
108.453 78.6835 16.3189
110.215 79.6665 16.8896
106.347 81.5929 24.1313
103.57 81.6774 25.3455
105.498 82.661 25.5111
101.057 82.1454 25.9725
108.782 81.5745 23.1255
106.99 84.079 25.5158
104.683 84.3057 26.3965
96.3743 84.3036 26.7102
94.0251 85.6897 26.7336
96.1212 86.4883 27.1709
91.6696 86.8581 26.5529
91.9807 85.1245 26.0459
96.6923 82.4915 25.8886
98.8373 83.0532 26.4617
98.0516 87.2935 27.3433
96.0383 88.4406 27.3778
92.3238 83.5399 25.1948
94.9068 81.9352 25.3625
92.9257 81.9263 24.3042
89.9908 85.0665 25.2153
91.7194 82.3334 23.1722
100.627 84.1635 26.8419
100.261 86.5209 27.1649
102.539 85.4566 26.9511
99.7221 88.5379 27.3725
104.256 86.6572 26.7245
94.0842 89.7053 27.3934
91.7272 88.9181 26.8378
92.0549 90.906 27.2667
89.6772 88.4543 26.152
95.9048 90.8542 27.5474
92.0567 93.1869 27.218
90.1294 92.3641 26.7416
104.798 99.4379 10.9998
105.678 97.9685 9.98093
107.578 98.9268 9.68272
106.41 96.7731 9.27113
104.281 97.1501 10.5378
101.95 100.678 12.252
103.86 100.786 12.0053
109.535 99.7173 9.65868
110.294 98.8653 8.43991
101.888 97.7452 11.5584
100.637 99.7757 12.1617
99.394 98.6557 12.1779
99.05 101.856 12.422
102.733 96.0901 10.9941
97.7204 97.8994 12.2629
96.6573 99.8509 12.1046
105.463 101.244 12.164
108.57 100.639 11.0191
107.18 101.609 12.4742
111.436 100.399 9.86904
102.157 102.352 13.0141
105.669 102.621 13.837
108.587 102.291 12.9059
110.073 97.4798 7.43274
108.175 95.9719 8.19529
110.263 95.8236 6.44409
106.828 94.8428 8.92854
112.123 98.209 7.35784
112.479 95.1485 5.21256
110.313 93.7585 6.14269
93.6894 105.151 14.9689
96.2497 104.302 14.5149
95.3847 105.075 15.7539
99.1843 103.661 13.8297
97.1937 103.329 13.1762
91.8705 104.392 14.4741
91.4929 106.008 14.4582
94.8015 106.405 16.3497
97.0088 105.12 16.5459
96.4765 102.547 12.4494
93.3074 103.08 13.2506
94.9683 101.564 12.0938
90.7917 103.089 14.0827
93.5762 100.768 11.9194
91.0944 107.328 15.61
93.1382 107.674 16.8132
90.7079 107.591 17.3997
94.9223 107.157 17.8786
89.2784 106.387 14.8486
88.4536 107.446 18.0409
90.5455 107.825 19.0054
100.008 104.425 15.8596
101.313 103.358 14.1515
102.943 103.254 14.9134
99.0253 104.877 17.3023
104.783 103.308 15.3326
91.6017 86.1136 17.5865
89.9051 87.7253 16.9824
88.5646 86.6712 18.0969
88.2624 89.2876 16.3725
90.8011 88.8292 16.0311
93.9755 84.9463 16.8435
93.0592 84.4825 17.9609
87.7897 86.2093 19.4735
86.3637 87.7108 18.95
93.698 87.9323 15.6772
94.9391 85.7791 15.8022
95.5345 86.6769 14.5565
95.9834 83.6559 15.7289
92.3568 89.7774 15.4144
96.4179 87.8088 13.5265
97.4948 85.7634 13.5523
92.2719 83.7274 19.0749
89.5497 84.6671 19.9799
91.5426 83.1212 20.3964
87.4051 85.8298 20.9276
94.5082 82.5671 17.9777
93.619 81.5453 20.6617
90.966 82.7376 21.6593
85.4913 89.5523 18.2479
86.1691 90.2186 16.5349
84.8985 91.4477 17.4319
87.1345 91.3144 15.1615
84.8365 89.1242 19.874
83.8172 92.8046 18.2391
84.504 93.5886 16.616
90.683 92.9126 13.786
93.1105 93.7411 13.6969
89.4963 94.7442 12.9556
94.6865 94.339 13.2165
95.3682 92.7514 13.0344
91.1998 91.3658 14.6751
88.4273 92.5556 14.2067
86.8988 96.3331 13.4191
88.3981 96.9229 12.6595
95.5807 91.1024 13.0526
94.058 90.4894 14.5469
95.9996 89.5069 13.259
97.1993 91.4881 11.7856
98.0009 88.3248 12.2756
86.2028 93.4935 14.4363
85.6202 95.8026 14.2706
84.9299 94.7884 15.2745
85.464 98.0742 14.434
83.9864 95.921 16.3401
90.503 97.1703 12.1676
93.9516 95.8196 12.9489
93.4058 97.3173 12.3305
96.4688 94.3965 12.1689
88.4856 98.588 12.8451
93.0643 98.8758 11.8815
96.0711 97.0951 12.473
109.809 92.8154 24.3456
111.437 93.7037 23.2768
111.724 91.5413 23.4435
112.407 94.6141 21.8985
111.031 95.7428 22.9109
107.598 93.852 25.002
107.956 91.9668 25.1438
111.782 89.4074 23.2189
113.146 90.1674 22.3324
109.076 96.8699 23.6977
107.133 95.7985 24.7251
106.592 97.6902 24.1988
105.104 95.0056 25.4109
110.296 97.7386 22.2675
105.909 99.4867 23.6504
103.972 98.4191 24.559
107.929 90.0517 25.2032
110.046 88.6832 24.2211
108.175 88.0042 25.3151
111.527 87.3278 22.9434
105.761 91.5201 25.9123
106.197 87.8 26.2861
108.257 85.9471 25.2753
114.326 91.0837 21.0372
113.77 93.3968 20.6544
115.104 92.2939 19.4548
113.129 95.5425 20.2889
114.184 88.893 20.9266
116.214 91.3291 18.2087
115.595 93.4594 17.8689
111.637 99.1732 19.2909
110.02 100.807 18.8506
112.164 99.8532 17.6068
108.471 102.608 18.6051
107.705 102.496 20.0171
110.684 98.817 20.7174
112.535 97.6168 19.6436
114.096 99.1422 15.9386
112.601 100.474 15.9725
107.332 101.653 21.4081
108.956 99.6664 21.7819
106.9 100.826 22.814
105.965 103.653 21.2708
104.327 101.187 23.1222
113.953 96.5578 18.5545
114.799 97.4532 16.5433
115.164 95.5225 17.3138
115.754 97.9248 14.755
116.443 94.2259 16.1533
111.261 102.013 15.7281
109.024 103.148 17.1777
109.36 103.416 15.5613
106.635 104.221 18.5879
113.3 100.785 14.2249
109.554 103.076 14.0618
106.986 103.584 15.717
107.445 82.8401 9.08686
109.892 83.966 8.47708
107.871 84.982 8.24365
112.308 85.5461 8.07953
112.001 83.4911 9.40034
107.167 80.8272 10.479
105.384 82.1603 10.4029
106.391 86.4659 8.83689
108.249 87.3503 7.73651
111.571 81.7332 10.9983
108.8 79.9242 11.56
110.473 80.2877 12.65
106.19 79.8113 12.3016
113.866 83.7158 10.536
112.261 81.0534 13.6809
109.285 79.3852 14.1744
103.524 83.7753 10.7034
104.032 85.9788 9.95328
101.725 85.5108 11.103
104.032 87.7247 9.70185
103.02 82.0831 11.6979
99.8845 85.1346 12.2819
100.075 87.0782 11.5649
109.913 88.9341 6.95945
112.381 88.1093 6.87475
111.95 90.3561 6.20263
114.406 87.441 7.71718
107.343 89.2992 8.06199
110.275 91.8553 6.36602
113.944 91.8411 5.53489
117.042 88.1153 10.2073
117.675 87.9821 11.8321
118.209 89.9995 10.3012
117.687 87.6072 13.81
116.752 86.0555 13.6153
115.756 85.826 10.5372
116.329 87.6473 8.8681
118.597 92.0356 8.63371
118.833 91.6797 10.7803
115.363 84.3037 13.7734
114.687 84.1345 11.9703
113.86 82.5331 13.7864
115.335 83.9711 15.5702
112.109 81.0722 15.5199
116.285 89.3327 7.49551
118.048 92.3533 6.97086
116.155 92.3135 5.6549
118.523 94.5058 6.86549
114.91 94.3874 4.9004
118.656 91.0623 12.9849
118.13 88.9018 14.6461
118.04 90.8078 15.0868
117.142 86.9827 15.8653
118.489 93.2583 11.1345
117.686 92.5318 15.0129
117.146 90.5188 16.7204
82.5558 101.34 23.1242
82.6204 99.1755 22.4397
80.8426 101.647 21.1312
82.6312 97.6701 21.7443
83.8681 97.3058 23.2116
84.7574 101.691 24.2589
83.5626 103.732 22.6262
79.7743 104.079 19.3415
79.7194 101.748 18.9658
85.708 97.1685 24.4142
86.082 99.3747 25.123
87.6925 97.0345 25.3807
87.2829 101.003 25.6039
85.4397 95.0434 23.7573
88.6674 94.5944 25.728
89.7514 96.676 26.2241
83.8068 105.599 21.2641
81.7917 105.699 19.3537
84.4611 106.697 19.8028
80.7884 105.416 17.2989
86.2514 104.898 23.395
87.6679 107.387 21.111
85.9722 107.284 18.6959
80.8957 99.5181 18.9459
82.0769 97.0029 20.4881
81.9396 96.7971 18.8513
82.8786 95.2337 21.4626
80.2161 101.188 17.3561
82.6837 96.798 17.5617
82.8406 94.4478 19.0104
93.5017 102.535 26.5859
91.0038 103.576 26.3076
93.325 104.448 26.159
88.7045 104.377 24.9789
89.012 102.22 25.9572
93.939 100.353 27.073
95.8058 101.142 27.1214
95.3737 104.801 25.3942
93.3397 105.967 24.7498
89.7936 100.113 26.273
92.4254 99.1315 27.0026
91.0494 97.9013 26.6347
94.8579 97.9941 27.5282
92.009 95.7205 26.9857
98.0411 101.468 26.5087
97.8309 103.375 25.5356
99.8802 101.557 25.4587
97.6515 104.529 24.1673
98.1801 99.5544 27.1535
101.596 99.7533 25.2481
101.506 101.284 24.0991
91.3874 106.875 23.6258
88.7397 106.011 23.7851
89.6247 107.49 22.414
93.8671 106.822 22.9598
90.4711 107.802 20.6114
100.413 78.9765 16.2228
101.113 79.744 14.4276
98.8546 80.3839 15.5728
101.974 80.83 12.9686
103.522 79.5109 13.4379
102.253 78.3833 16.9415
99.7708 78.5382 17.9857
96.9309 81.0139 16.8014
97.6735 81.8958 15.4156
105.12 78.8653 14.0212
104.506 78.1504 16.1005
107.149 78.7448 15.1379
97.4647 79.1806 18.814
95.7176 80.8442 18.1679
95.3388 80.5005 19.8804
98.1499 82.9771 14.3044
100.741 82.4361 13.0078
98.9956 84.1443 13.2374
103.162 91.313 9.40636
102.999 93.0639 9.74735
101.199 92.3044 10.3072
102.89 94.6913 10.359
104.817 93.8615 9.43083
105.371 90.316 8.88337
103.448 89.5801 9.61439
99.1693 91.7957 10.7776
98.9445 93.4704 10.9713
106.802 93.2054 8.64892
106.871 91.2696 8.25791
108.531 92.613 7.31971
101.733 89.0385 10.3061
99.3249 90.3216 10.9184
99.721 88.6741 11.2624
98.4168 94.8334 11.2494
100.641 95.3739 11.0168
98.2033 96.3738 11.7445
86.1916 88.5956 24.2887
85.221 88.8038 22.9563
84.7022 90.6803 23.6251
84.7988 89.0795 21.5752
86.0478 86.981 22.217
88.0351 86.7212 24.7066
87.7043 88.5063 25.4205
85.0844 92.7858 23.7863
83.589 92.8083 22.6122
87.8183 85.5093 22.3478
88.6223 85.2685 23.9391
89.9399 83.9062 22.713
88.0476 90.3206 25.7642
86.5607 92.6853 24.8205
88.3331 92.45 25.8998
83.0303 92.7823 21.3653
83.9848 90.7225 20.7671
83.4777 92.6841 19.8977
85.3409 101.914 14.1341
85.9037 103.539 14.0794
82.8802 103.8 14.5516
87.4063 104.779 14.1184
88.9685 102.519 14.1458
87.3526 100.105 13.7729
85.1421 100.078 14.3607
80.9761 102.514 15.7601
81.7607 104.967 15.7751
90.3851 101.698 13.362
89.4653 100.07 12.9903
91.7359 100.368 12.1621
83.8095 99.202 15.1192
81.9549 100.552 16.3816
83.1662 97.8951 16.4163
84.0837 106.055 16.2311
87.1146 106.065 15.3246
86.7657 107.083 17.2202
112.978 82.7149 20.7103
113.727 84.7804 20.4746
114.479 84.1577 19.038
114.022 86.7433 20.4274
112.696 85.7065 21.7294
111.023 81.8501 22.1195
111.776 80.9483 20.6422
114.974 83.7548 17.5325
115.821 85.609 17.4856
111.305 85.4146 23.1232
110.414 83.2184 23.1632
109.314 84.6733 24.3372
112.058 80.9905 18.8864
114.054 82.3341 17.2341
112.211 81.1143 17.049
116.318 87.4426 17.6196
115.398 88.1189 19.5478
116.547 89.3401 18.2224
116.492 98.5679 11.1545
115.937 99.1079 9.62656
117.313 97.1478 9.91864
114.682 99.1932 8.21356
113.599 100.524 9.85612
115.02 99.8869 12.6054
116.626 98.0856 13.0047
118.152 95.0765 10.7305
118.101 95.7785 8.50915
112.194 101.546 11.1929
113.17 101.469 12.7606
110.691 102.518 12.6347
117.077 96.2861 13.8792
118.163 94.6367 12.656
117.359 94.3398 14.5754
117.249 96.4398 7.04401
114.265 98.178 6.91954
114.334 96.1842 5.68404
101.365 93.9102 26.9712
99.5275 92.9798 27.508
99.1371 95.2573 27.4652
97.7203 92.1319 27.6418
99.6735 90.716 27.472
103.249 92.6519 26.4285
103.014 94.4974 26.2574
98.7011 97.3833 27.4074
96.9536 96.512 27.8318
101.651 89.8028 27.1204
103.75 90.8023 26.5152
104.025 88.7538 26.7384
102.872 96.2807 26.0522
100.397 97.8712 26.799
102.294 98.05 25.6403
95.3823 95.5394 27.7812
95.7671 93.1168 27.8077
93.6654 94.3185 27.4511
99.1623 104.822 19.7023
101.727 104.516 20.1159
99.096 105.184 21.1494
103.881 104.541 20.7906
104.206 104.939 19.1658
98.954 104.947 18.4128
96.9933 106.076 19.1271
96.4977 106.162 22.0481
98.461 104.953 22.6353
104.272 104.34 17.8974
101.736 104.622 17.4682
104.539 103.707 16.4924
95.2542 107.201 19.4795
94.8222 107.169 21.2577
92.8951 107.816 20.0486
100.247 103.567 22.9204
103.161 103.219 21.9422
102.264 102.014 23.0894
POLYGONS 1280  5120
3 164 162 163
3 163 44 164
3 162 43 163
3 164 42 162
3 166 165 163
3 163 43 166
3 165 44 163
3 166 14 165
3 168 167 162
3 162 42 168
3 167 43 162
3 168 13 167
3 170 169 164
3 164 44 170
3 169 42 164
3 170 12 169
3 173 171 172
3 172 46 173
3 171 43 172
3 173 45 171
3 167 174 172
3 172 43 167
3 174 46 172
3 167 13 174
3 175 166 171
3 171 45 175
3 166 43 171
3 175 14 166
3 177 176 173
3 173 46 177
3 176 45 173
3 177 4 176
3 180 178 179
3 179 48 180
3 178 42 179
3 180 47 178
3 169 181 179
3 179 42 169
3 181 48 179
3 169 12 181
3 182 168 178
3 178 47 182
3 168 42 178
3 182 13 168
3 184 183 180
3 180 48 184
3 183 47 180
3 184 8 183
3 187 185 186
3 186 50 187
3 185 44 186
3 187 49 185
3 165 188 186
3 186 44 165
3 188 50 186
3 165 14 188
3 189 170 185
3 185 49 189
3 170 44 185
3 189 12 170
3 191 190 187
3 187 50 191
3 190 49 187
3 191 7 190
3 194 192 193
3 193 53 194
3 192 52 193
3 194 51 192
3 196 195 193
3 193 52 196
3 195 53 193
3 196 16 195
3 198 197 192
3 192 51 198
3 197 52 192
3 198 14 197
3 200 199 194
3 194 53 200
3 199 51 194
3 200 15 199
3 203 201 202
3 202 45 203
3 201 52 202
3 203 54 201
3 197 175 202
3 202 52 197
3 175 45 202
3 197 14 175
3 204 196 201
3 201 54 204
3 196 52 201
3 204 16 196
3 176 205 203
3 203 45 176
3 205 54 203
3 176 4 205
3 208 206 207
3 207 55 208
3 206 51 207
3 208 50 206
3 199 209 207
3 207 51 199
3 209 55 207
3 199 15 209
3 188 198 206
3 206 50 188
3 198 51 206
3 188 14 198
3 210 191 208
3 208 55 210
3 191 50 208
3 210 7 191
3 213 211 212
3 212 57 213
3 211 53 212
3 213 56 211
3 195 214 212
3 212 53 195
3 214 57 212
3 195 16 214
3 215 200 211
3 211 56 215
3 200 53 211
3 215 15 200
3 217 216 213
3 213 57 217
3 216 56 213
3 217 9 216
3 220 218 219
3 219 60 220
3 218 59 219
3 220 58 218
3 222 221 219
3 219 59 222
3 221 60 219
3 222 19 221
3 224 223 218
3 218 58 224
3 223 59 218
3 224 18 223
3 226 225 220
3 220 60 226
3 225 58 220
3 226 17 225
3 229 227 228
3 228 62 229
3 227 59 228
3 229 61 227
3 223 230 228
3 228 59 223
3 230 62 228
3 223 18 230
3 231 222 227
3 227 61 231
3 222 59 227
3 231 19 222
3 233 232 229
3 229 62 233
3 232 61 229
3 233 5 232
3 236 234 235
3 235 64 236
3 234 58 235
3 236 63 234
3 225 237 235
3 235 58 225
3 237 64 235
3 225 17 237
3 238 224 234
3 234 63 238
3 224 58 234
3 238 18 224
3 240 239 236
3 236 64 240
3 239 63 236
3 240 6 239
3 243 241 242
3 242 66 243
3 241 60 242
3 243 65 241
3 221 244 242
3 242 60 221
3 244 66 242
3 221 19 244
3 245 226 241
3 241 65 245
3 226 60 241
3 245 17 226
3 247 246 243
3 243 66 247
3 246 65 243
3 247 11 246
3 250 248 249
3 249 69 250
3 248 68 249
3 250 67 248
3 252 251 249
3 249 68 252
3 251 69 249
3 252 18 251
3 254 253 248
3 248 67 254
3 253 68 248
3 254 21 253
3 256 255 250
3 250 69 256
3 255 67 250
3 256 20 255
3 259 257 258
3 258 70 259
3 257 68 258
3 259 62 257
3 253 260 258
3 258 68 253
3 260 70 258
3 253 21 260
3 230 252 257
3 257 62 230
3 252 68 257
3 230 18 252
3 261 233 259
3 259 70 261
3 233 62 259
3 261 5 233
3 264 262 263
3 263 72 264
3 262 67 263
3 264 71 262
3 255 265 263
3 263 67 255
3 265 72 263
3 255 20 265
3 266 254 262
3 262 71 266
3 254 67 262
3 266 21 254
3 268 267 264
3 264 72 268
3 267 71 264
3 268 10 267
3 271 269 270
3 270 63 271
3 269 69 270
3 271 73 269
3 251 238 270
3 270 69 251
3 238 63 270
3 251 18 238
3 272 256 269
3 269 73 272
3 256 69 269
3 272 20 256
3 239 273 271
3 271 63 239
3 273 73 271
3 239 6 273
3 276 274 275
3 275 76 276
3 274 75 275
3 276 74 274
3 278 277 275
3 275 75 278
3 277 76 275
3 278 24 277
3 280 279 274
3 274 74 280
3 279 75 274
3 280 23 279
3 282 281 276
3 276 76 282
3 281 74 276
3 282 22 281
3 285 283 284
3 284 78 285
3 283 75 284
3 285 77 283
3 279 286 284
3 284 75 279
3 286 78 284
3 279 23 286
3 287 278 283
3 283 77 287
3 278 75 283
3 287 24 278
3 289 288 285
3 285 78 289
3 288 77 285
3 289 0 288
3 292 290 291
3 291 80 292
3 290 74 291
3 292 79 290
3 281 293 291
3 291 74 281
3 293 80 291
3 281 22 293
3 294 280 290
3 290 79 294
3 280 74 290
3 294 23 280
3 296 295 292
3 292 80 296
3 295 79 292
3 296 4 295
3 299 297 298
3 298 82 299
3 297 76 298
3 299 81 297
3 277 300 298
3 298 76 277
3 300 82 298
3 277 24 300
3 301 282 297
3 297 81 301
3 282 76 297
3 301 22 282
3 303 302 299
3 299 82 303
3 302 81 299
3 303 3 302
3 306 304 305
3 305 85 306
3 304 84 305
3 306 83 304
3 308 307 305
3 305 84 308
3 307 85 305
3 308 26 307
3 310 309 304
3 304 83 310
3 309 84 304
3 310 24 309
3 312 311 306
3 306 85 312
3 311 83 306
3 312 25 311
3 315 313 314
3 314 77 315
3 313 84 314
3 315 86 313
3 309 287 314
3 314 84 309
3 287 77 314
3 309 24 287
3 316 308 313
3 313 86 316
3 308 84 313
3 316 26 308
3 288 317 315
3 315 77 288
3 317 86 315
3 288 0 317
3 320 318 319
3 319 87 320
3 318 83 319
3 320 82 318
3 311 321 319
3 319 83 311
3 321 87 319
3 311 25 321
3 300 310 318
3 318 82 300
3 310 83 318
3 300 24 310
3 322 303 320
3 320 87 322
3 303 82 320
3 322 3 303
3 325 323 324
3 324 89 325
3 323 85 324
3 325 88 323
3 307 326 324
3 324 85 307
3 326 89 324
3 307 26 326
3 327 312 323
3 323 88 327
3 312 85 323
3 327 25 312
3 329 328 325
3 325 89 329
3 328 88 325
3 329 5 328
3 332 330 331
3 331 92 332
3 330 91 331
3 332 90 330
3 334 333 331
3 331 91 334
3 333 92 331
3 334 29 333
3 336 335 330
3 330 90 336
3 335 91 330
3 336 28 335
3 338 337 332
3 332 92 338
3 337 90 332
3 338 27 337
3 341 339 340
3 340 94 341
3 339 91 340
3 341 93 339
3 335 342 340
3 340 91 335
3 342 94 340
3 335 28 342
3 343 334 339
3 339 93 343
3 334 91 339
3 343 29 334
3 345 344 341
3 341 94 345
3 344 93 341
3 345 2 344
3 348 346 347
3 347 96 348
3 346 90 347
3 348 95 346
3 337 349 347
3 347 90 337
3 349 96 347
3 337 27 349
3 350 336 346
3 346 95 350
3 336 90 346
3 350 28 336
3 352 351 348
3 348 96 352
3 351 95 348
3 352 7 351
3 355 353 354
3 354 98 355
3 353 92 354
3 355 97 353
3 333 356 354
3 354 92 333
3 356 98 354
3 333 29 356
3 357 338 353
3 353 97 357
3 338 92 353
3 357 27 338
3 359 358 355
3 355 98 359
3 358 97 355
3 359 1 358
3 362 360 361
3 361 101 362
3 360 100 361
3 362 99 360
3 364 363 361
3 361 100 364
3 363 101 361
3 364 31 363
3 366 365 360
3 360 99 366
3 365 100 360
3 366 29 365
3 368 367 362
3 362 101 368
3 367 99 362
3 368 30 367
3 371 369 370
3 370 93 371
3 369 100 370
3 371 102 369
3 365 343 370
3 370 100 365
3 343 93 370
3 365 29 343
3 372 364 369
3 369 102 372
3 364 100 369
3 372 31 364
3 344 373 371
3 371 93 344
3 373 102 371
3 344 2 373
3 376 374 375
3 375 103 376
3 374 99 375
3 376 98 374
3 367 377 375
3 375 99 367
3 377 103 375
3 367 30 377
3 356 366 374
3 374 98 356
3 366 99 374
3 356 29 366
3 378 359 376
3 376 103 378
3 359 98 376
3 378 1 359
3 381 379 380
3 380 105 381
3 379 101 380
3 381 104 379
3 363 382 380
3 380 101 363
3 382 105 380
3 363 31 382
3 383 368 379
3 379 104 383
3 368 101 379
3 383 30 368
3 385 384 381
3 381 105 385
3 384 104 381
3 385 6 384
3 388 386 387
3 387 108 388
3 386 107 387
3 388 106 386
3 390 389 387
3 387 107 390
3 389 108 387
3 390 34 389
3 392 391 386
3 386 106 392
3 391 107 386
3 392 33 391
3 394 393 388
3 388 108 394
3 393 106 388
3 394 32 393
3 397 395 396
3 396 110 397
3 395 107 396
3 397 109 395
3 391 398 396
3 396 107 391
3 398 110 396
3 391 33 398
3 399 390 395
3 395 109 399
3 390 107 395
3 399 34 390
3 401 400 397
3 397 110 401
3 400 109 397
3 401 8 400
3 404 402 403
3 403 112 404
3 402 106 403
3 404 111 402
3 393 405 403
3 403 106 393
3 405 112 403
3 393 32 405
3 406 392 402
3 402 111 406
3 392 106 402
3 406 33 392
3 408 407 404
3 404 112 408
3 407 111 404
3 408 0 407
3 411 409 410
3 410 114 411
3 409 108 410
3 411 113 409
3 389 412 410
3 410 108 389
3 412 114 410
3 389 34 412
3 413 394 409
3 409 113 413
3 394 108 409
3 413 32 394
3 415 414 411
3 411 114 415
3 414 113 411
3 415 11 414
3 418 416 417
3 417 117 418
3 416 116 417
3 418 115 416
3 420 419 417
3 417 116 420
3 419 117 417
3 420 36 419
3 422 421 416
3 416 115 422
3 421 116 416
3 422 34 421
3 424 423 418
3 418 117 424
3 423 115 418
3 424 35 423
3 427 425 426
3 426 109 427
3 425 116 426
3 427 118 425
3 421 399 426
3 426 116 421
3 399 109 426
3 421 34 399
3 428 420 425
3 425 118 428
3 420 116 425
3 428 36 420
3 400 429 427
3 427 109 400
3 429 118 427
3 400 8 429
3 432 430 431
3 431 119 432
3 430 115 431
3 432 114 430
3 423 433 431
3 431 115 423
3 433 119 431
3 423 35 433
3 412 422 430
3 430 114 412
3 422 115 430
3 412 34 422
3 434 415 432
3 432 119 434
3 415 114 432
3 434 11 415
3 437 435 436
3 436 121 437
3 435 117 436
3 437 120 435
3 419 438 436
3 436 117 419
3 438 121 436
3 419 36 438
3 439 424 435
3 435 120 439
3 424 117 435
3 439 35 424
3 441 440 437
3 437 121 441
3 440 120 437
3 441 1 440
3 444 442 443
3 443 124 444
3 442 123 443
3 444 122 442
3 446 445 443
3 443 123 446
3 445 124 443
3 446 39 445
3 448 447 442
3 442 122 448
3 447 123 442
3 448 38 447
3 450 449 444
3 444 124 450
3 449 122 444
3 450 37 449
3 453 451 452
3 452 126 453
3 451 123 452
3 453 125 451
3 447 454 452
3 452 123 447
3 454 126 452
3 447 38 454
3 455 446 451
3 451 125 455
3 446 123 451
3 455 39 446
3 457 456 453
3 453 126 457
3 456 125 453
3 457 9 456
3 460 458 459
3 459 128 460
3 458 122 459
3 460 127 458
3 449 461 459
3 459 122 449
3 461 128 459
3 449 37 461
3 462 448 458
3 458 127 462
3 448 122 458
3 462 38 448
3 464 463 460
3 460 128 464
3 463 127 460
3 464 10 463
3 467 465 466
3 466 130 467
3 465 124 466
3 467 129 465
3 445 468 466
3 466 124 445
3 468 130 466
3 445 39 468
3 469 450 465
3 465 129 469
3 450 124 465
3 469 37 450
3 471 470 467
3 467 130 471
3 470 129 467
3 471 3 470
3 474 472 473
3 473 133 474
3 472 132 473
3 474 131 472
3 476 475 473
3 473 132 476
3 475 133 473
3 476 38 475
3 478 477 472
3 472 131 478
3 477 132 472
3 478 41 477
3 480 479 474
3 474 133 480
3 479 131 474
3 480 40 479
3 483 481 482
3 482 134 483
3 481 132 482
3 483 126 481
3 477 484 482
3 482 132 477
3 484 134 482
3 477 41 484
3 454 476 481
3 481 126 454
3 476 132 481
3 454 38 476
3 485 457 483
3 483 134 485
3 457 126 483
3 485 9 457
3 488 486 487
3 487 136 488
3 486 131 487
3 488 135 486
3 479 489 487
3 487 131 479
3 489 136 487
3 479 40 489
3 490 478 486
3 486 135 490
3 478 131 486
3 490 41 478
3 492 491 488
3 488 136 492
3 491 135 488
3 492 2 491
3 495 493 494
3 494 127 495
3 493 133 494
3 495 137 493
3 475 462 494
3 494 133 475
3 462 127 494
3 475 38 462
3 496 480 493
3 493 137 496
3 480 133 493
3 496 40 480
3 463 497 495
3 495 127 463
3 497 137 495
3 463 10 497
3 500 498 499
3 499 140 500
3 498 139 499
3 500 138 498
3 502 501 499
3 499 139 502
3 501 140 499
3 502 33 501
3 504 503 498
3 498 138 504
3 503 139 498
3 504 13 503
3 506 505 500
3 500 140 506
3 505 138 500
3 506 23 505
3 509 507 508
3 508 47 509
3 507 139 508
3 509 110 507
3 503 182 508
3 508 139 503
3 182 47 508
3 503 13 182
3 398 502 507
3 507 110 398
3 502 139 507
3 398 33 502
3 183 401 509
3 509 47 183
3 401 110 509
3 183 8 401
3 512 510 511
3 511 79 512
3 510 138 511
3 512 46 510
3 505 294 511
3 511 138 505
3 294 79 511
3 505 23 294
3 174 504 510
3 510 46 174
3 504 138 510
3 174 13 504
3 295 177 512
3 512 79 295
3 177 46 512
3 295 4 177
3 515 513 514
3 514 111 515
3 513 140 514
3 515 78 513
3 501 406 514
3 514 140 501
3 406 111 514
3 501 33 406
3 286 506 513
3 513 78 286
3 506 140 513
3 286 23 506
3 407 289 515
3 515 111 407
3 289 78 515
3 407 0 289
3 518 516 517
3 517 143 518
3 516 142 517
3 518 141 516
3 520 519 517
3 517 142 520
3 519 143 517
3 520 19 519
3 522 521 516
3 516 141 522
3 521 142 516
3 522 32 521
3 524 523 518
3 518 143 524
3 523 141 518
3 524 26 523
3 527 525 526
3 526 113 527
3 525 142 526
3 527 66 525
3 521 413 526
3 526 142 521
3 413 113 526
3 521 32 413
3 244 520 525
3 525 66 244
3 520 142 525
3 244 19 520
3 414 247 527
3 527 113 414
3 247 66 527
3 414 11 247
3 530 528 529
3 529 86 530
3 528 141 529
3 530 112 528
3 523 316 529
3 529 141 523
3 316 86 529
3 523 26 316
3 405 522 528
3 528 112 405
3 522 141 528
3 405 32 522
3 317 408 530
3 530 86 317
3 408 112 530
3 317 0 408
3 533 531 532
3 532 61 533
3 531 143 532
3 533 89 531
3 519 231 532
3 532 143 519
3 231 61 532
3 519 19 231
3 326 524 531
3 531 89 326
3 524 143 531
3 326 26 524
3 232 329 533
3 533 61 232
3 329 89 533
3 232 5 329
3 536 534 535
3 535 146 536
3 534 145 535
3 536 144 534
3 538 537 535
3 535 145 538
3 537 146 535
3 538 22 537
3 540 539 534
3 534 144 540
3 539 145 534
3 540 16 539
3 542 541 536
3 536 146 542
3 541 144 536
3 542 39 541
3 545 543 544
3 544 54 545
3 543 145 544
3 545 80 543
3 539 204 544
3 544 145 539
3 204 54 544
3 539 16 204
3 293 538 543
3 543 80 293
3 538 145 543
3 293 22 538
3 205 296 545
3 545 54 205
3 296 80 545
3 205 4 296
3 548 546 547
3 547 125 548
3 546 144 547
3 548 57 546
3 541 455 547
3 547 144 541
3 455 125 547
3 541 39 455
3 214 540 546
3 546 57 214
3 540 144 546
3 214 16 540
3 456 217 548
3 548 125 456
3 217 57 548
3 456 9 217
3 551 549 550
3 550 81 551
3 549 146 550
3 551 130 549
3 537 301 550
3 550 146 537
3 301 81 550
3 537 22 301
3 468 542 549
3 549 130 468
3 542 146 549
3 468 39 542
3 302 471 551
3 551 81 302
3 471 130 551
3 302 3 471
3 554 552 553
3 553 149 554
3 552 148 553
3 554 147 552
3 556 555 553
3 553 148 556
3 555 149 553
3 556 21 555
3 558 557 552
3 552 147 558
3 557 148 552
3 558 25 557
3 560 559 554
3 554 149 560
3 559 147 554
3 560 37 559
3 563 561 562
3 562 88 563
3 561 148 562
3 563 70 561
3 557 327 562
3 562 148 557
3 327 88 562
3 557 25 327
3 260 556 561
3 561 70 260
3 556 148 561
3 260 21 556
3 328 261 563
3 563 88 328
3 261 70 563
3 328 5 261
3 566 564 565
3 565 129 566
3 564 147 565
3 566 87 564
3 559 469 565
3 565 147 559
3 469 129 565
3 559 37 469
3 321 558 564
3 564 87 321
3 558 147 564
3 321 25 558
3 470 322 566
3 566 129 470
3 322 87 566
3 470 3 322
3 569 567 568
3 568 71 569
3 567 149 568
3 569 128 567
3 555 266 568
3 568 149 555
3 266 71 568
3 555 21 266
3 461 560 567
3 567 128 461
3 560 149 567
3 461 37 560
3 267 464 569
3 569 71 267
3 464 128 569
3 267 10 464
3 572 570 571
3 571 152 572
3 570 151 571
3 572 150 570
3 574 573 571
3 571 151 574
3 573 152 571
3 574 27 573
3 576 575 570
3 570 150 576
3 575 151 570
3 576 12 575
3 578 577 572
3 572 152 578
3 577 150 572
3 578 36 577
3 581 579 580
3 580 49 581
3 579 151 580
3 581 96 579
3 575 189 580
3 580 151 575
3 189 49 580
3 575 12 189
3 349 574 579
3 579 96 349
3 574 151 579
3 349 27 574
3 190 352 581
3 581 49 190
3 352 96 581
3 190 7 352
3 584 582 583
3 583 118 584
3 582 150 583
3 584 48 582
3 577 428 583
3 583 150 577
3 428 118 583
3 577 36 428
3 181 576 582
3 582 48 181
3 576 150 582
3 181 12 576
3 429 184 584
3 584 118 429
3 184 48 584
3 429 8 184
3 587 585 586
3 586 97 587
3 585 152 586
3 587 121 585
3 573 357 586
3 586 152 573
3 357 97 586
3 573 27 357
3 438 578 585
3 585 121 438
3 578 152 585
3 438 36 578
3 358 441 587
3 587 97 358
3 441 121 587
3 358 1 441
3 590 588 589
3 589 155 590
3 588 154 589
3 590 153 588
3 592 591 589
3 589 154 592
3 591 155 589
3 592 17 591
3 594 593 588
3 588 153 594
3 593 154 588
3 594 30 593
3 596 595 590
3 590 155 596
3 595 153 590
3 596 35 595
3 599 597 598
3 598 104 599
3 597 154 598
3 599 64 597
3 593 383 598
3 598 154 593
3 383 104 598
3 593 30 383
3 237 592 597
3 597 64 237
3 592 154 597
3 237 17 592
3 384 240 599
3 599 104 384
3 240 64 599
3 384 6 240
3 602 600 601
3 601 120 602
3 600 153 601
3 602 103 600
3 595 439 601
3 601 153 595
3 439 120 601
3 595 35 439
3 377 594 600
3 600 103 377
3 594 153 600
3 377 30 594
3 440 378 602
3 602 120 440
3 378 103 602
3 440 1 378
3 605 603 604
3 604 65 605
3 603 155 604
3 605 119 603
3 591 245 604
3 604 155 591
3 245 65 604
3 591 17 245
3 433 596 603
3 603 119 433
3 596 155 603
3 433 35 596
3 246 434 605
3 605 65 246
3 434 119 605
3 246 11 434
3 608 606 607
3 607 158 608
3 606 157 607
3 608 156 606
3 610 609 607
3 607 157 610
3 609 158 607
3 610 15 609
3 612 611 606
3 606 156 612
3 611 157 606
3 612 28 611
3 614 613 608
3 608 158 614
3 613 156 608
3 614 41 613
3 617 615 616
3 616 95 617
3 615 157 616
3 617 55 615
3 611 350 616
3 616 157 611
3 350 95 616
3 611 28 350
3 209 610 615
3 615 55 209
3 610 157 615
3 209 15 610
3 351 210 617
3 617 95 351
3 210 55 617
3 351 7 210
3 620 618 619
3 619 135 620
3 618 156 619
3 620 94 618
3 613 490 619
3 619 156 613
3 490 135 619
3 613 41 490
3 342 612 618
3 618 94 342
3 612 156 618
3 342 28 612
3 491 345 620
3 620 135 491
3 345 94 620
3 491 2 345
3 623 621 622
3 622 56 623
3 621 158 622
3 623 134 621
3 609 215 622
3 622 158 609
3 215 56 622
3 609 15 215
3 484 614 621
3 621 134 484
3 614 158 621
3 484 41 614
3 216 485 623
3 623 56 216
3 485 134 623
3 216 9 485
3 626 624 625
3 625 161 626
3 624 160 625
3 626 159 624
3 628 627 625
3 625 160 628
3 627 161 625
3 628 31 627
3 630 629 624
3 624 159 630
3 629 160 624
3 630 20 629
3 632 631 626
3 626 161 632
3 631 159 626
3 632 40 631
3 635 633 634
3 634 73 635
3 633 160 634
3 635 105 633
3 629 272 634
3 634 160 629
3 272 73 634
3 629 20 272
3 382 628 633
3 633 105 382
3 628 160 633
3 382 31 628
3 273 385 635
3 635 73 273
3 385 105 635
3 273 6 385
3 638 636 637
3 637 137 638
3 636 159 637
3 638 72 636
3 631 496 637
3 637 159 631
3 496 137 637
3 631 40 496
3 265 630 636
3 636 72 265
3 630 159 636
3 265 20 630
3 497 268 638
3 638 137 497
3 268 72 638
3 497 10 268
3 641 639 640
3 640 102 641
3 639 161 640
3 641 136 639
3 627 372 640
3 640 161 627
3 372 102 640
3 627 31 372
3 489 632 639
3 639 136 489
3 632 161 639
3 489 40 632
3 373 492 641
3 641 102 373
3 492 136 641
3 373 2 492
