# vtk DataFile Version 3.0
this file was written using fslvtkio
ASCII
DATASET POLYDATA
POINTS 642 float
100.647 93.2975 -10.1646
109.245 96.5252 -5.83153
102.175 96.8073 -4.13775
91.3908 94.2264 -6.9293
100.282 89.5021 -6.02477
97.6897 97.6525 -9.08141
105.274 101.126 -6.39484
104.762 92.0186 -4.5615
108.525 91.1312 -9.04647
94.5304 93.4228 -3.79736
95.6757 98.5049 -4.52842
107.265 98.0288 -11.0909
107.729 89.2035 -5.19375
104.26 88.3883 -7.36099
102.897 88.7846 -4.19143
100.243 91.9644 -3.52677
96.2686 90.9641 -4.02408
106.079 99.0734 -8.15109
101.031 99.7896 -8.03274
102.21 97.8677 -10.7911
100.897 100.281 -5.55794
95.3828 96.8986 -6.41069
94.3493 91.0116 -6.32249
100.96 91.1524 -8.43631
96.4495 94.3672 -8.72825
94.0296 96.7122 -8.20875
98.5137 96.3357 -11.6482
108.369 92.9202 -5.25092
103.506 94.1426 -4.17755
107.066 97.4195 -3.7865
108.923 100.401 -5.76348
105.267 100.336 -3.9982
103.957 95.3581 -12.0059
105.413 91.9012 -10.6581
110.313 95.4213 -11.2727
110.162 98.1659 -8.29949
110.831 94.1467 -7.47063
88.728 98.8462 -5.8008
95.2545 97.1923 -3.58445
89.7239 93.4542 -4.40571
100.385 98.328 -4.15652
99.472 94.8834 -3.4482
105.99 88.5502 -6.17643
103.515 87.5481 -5.41991
105.781 88.7597 -4.1429
100.728 88.5009 -4.91126
102.866 88.9507 -6.98578
106.104 89.2846 -8.31572
108.175 90.4885 -7.12148
107.57 90.5317 -3.79071
104.326 90.0822 -3.44474
102.156 90.304 -3.50136
100.121 88.7485 -3.96273
98.433 91.0497 -3.95099
98.0803 89.7142 -4.9948
102.664 92.0668 -3.98641
97.7004 92.8417 -3.82464
95.1422 92.1746 -4.28683
103.881 100.014 -8.87319
101.494 99.5845 -10.0333
103.858 98.51 -9.39877
99.962 98.8003 -10.7087
99.3987 98.3756 -8.55105
102.763 100.577 -7.21382
105.441 100.871 -7.67619
106.164 97.9731 -9.1628
104.469 97.3323 -10.6508
98.2293 98.3263 -6.34912
99.0428 98.2637 -7.06865
101.107 100.094 -6.65657
97.2854 97.3328 -7.20639
96.1993 97.0566 -5.66226
98.3153 98.4314 -5.15233
102.91 100.695 -5.76374
97.3796 90.891 -7.55748
98.2728 92.2691 -8.41535
94.7868 91.9819 -7.67166
98.5181 93.7124 -9.22556
100.995 92.0468 -9.28554
100.226 90.1758 -7.22324
96.8979 89.8081 -6.38966
92.7034 92.3716 -6.41575
94.1218 93.7606 -7.78772
94.2451 95.2637 -8.99272
97.3844 94.651 -10.2656
96.0542 95.9514 -10.054
99.435 94.7367 -10.6667
92.9409 95.3283 -7.77995
95.8556 97.0342 -9.0686
98.0855 96.8804 -10.7888
106.079 93.5516 -4.33907
105.501 95.4303 -3.72767
107.229 95.0793 -4.58877
104.681 96.7642 -3.90142
103.122 95.2991 -3.66495
103.381 93.1132 -4.69441
106.624 92.4516 -4.5232
108.577 95.0306 -5.28814
108.123 97.1046 -4.93225
108.076 99.195 -4.11637
105.385 98.0841 -3.89365
107.052 100.581 -4.66538
103.53 98.7819 -3.50519
109.592 98.8624 -5.45491
107.697 102.016 -6.79437
105.035 101.222 -5.02669
105.255 93.6294 -11.608
108.464 92.682 -11.3563
108.215 95.2547 -12.0524
109.606 92.9122 -10.2851
106.971 91.4989 -9.67009
102.973 92.4764 -10.5126
102.304 94.4062 -10.745
105.561 97.0266 -11.847
109.085 97.385 -11.5719
110.488 97.45 -10.4702
110.967 94.7118 -9.60553
112.032 96.9172 -7.87896
110.056 92.2142 -8.1752
108.328 98.4139 -9.57825
110.126 97.1585 -6.62707
110.765 95.2583 -6.26542
91.0452 99.7122 -3.58935
90.1819 96.1525 -2.52837
87.4468 96.5697 -4.64032
91.5628 94.152 -3.32579
94.7337 95.3177 -3.74187
95.502 98.2784 -3.41041
93.1756 99.2631 -5.25497
89.8111 95.9757 -6.53799
90.7622 93.006 -5.87443
99.585 96.81 -3.65579
96.4324 95.7807 -4.11659
97.6249 97.3706 -4.02018
96.6209 94.2209 -3.77477
100.637 95.9744 -3.9277
101.462 97.7884 -3.54885
98.3119 98.1568 -4.63277
102.849 89.9925 -7.88319
104.785 90.0878 -9.0543
103.364 91.2759 -9.72976
100.855 95.8053 -11.0076
102.675 96.7141 -11.0985
99.4431 97.9397 -11.3275
93.3783 92.731 -4.287
95.7927 90.6227 -5.3179
92.0827 91.7865 -5.2931
91.1722 97.1059 -6.34229
95.2106 96.6394 -7.14947
92.3179 98.3154 -5.4923
109.053 91.9002 -6.51869
108.476 91.1939 -4.94349
110.257 94.0256 -6.01527
109.121 98.5442 -6.71539
107.286 100.189 -6.90998
107.879 98.441 -8.05724
101.622 94.6052 -4.24423
101.576 93.2643 -4.09925
99.3066 93.5851 -3.64245
100.853 100.066 -4.27637
102.94 100.28 -4.64764
102.728 99.6927 -3.74343
105.03 88.1596 -5.84214
104.798 87.976 -4.80731
105.82 88.4714 -5.0386
104.425 88.7103 -4.1811
103.719 88.147 -4.72574
104.102 87.6757 -6.44031
105.208 88.1814 -6.72738
107.036 88.6331 -5.64575
106.91 88.8198 -4.3692
102.666 88.4137 -5.37676
103.328 88.076 -6.35054
102.854 88.8179 -5.91532
103.742 88.5237 -7.04913
102.085 88.2115 -4.48411
101.193 88.8285 -5.66697
101.979 89.1523 -6.30737
105.967 88.695 -7.21324
107.052 89.38 -6.51872
106.953 90.1353 -7.72577
108.037 89.7402 -6.07546
105.168 88.7475 -7.92755
107.558 90.2498 -8.52779
108.438 90.2752 -7.88731
106.917 89.376 -3.94004
105.122 89.3645 -3.75267
105.915 90.2205 -3.74901
103.777 89.2869 -3.61465
107.523 89.7122 -4.34043
105.945 91.2059 -3.98839
104.96 90.8814 -3.74195
101.404 88.9993 -3.47263
99.8041 89.8586 -3.93209
100.486 90.0092 -3.45227
97.8004 90.4921 -3.98675
98.8288 89.7811 -4.09522
101.53 88.1626 -3.8877
102.59 89.2765 -3.52502
100.833 91.1124 -3.26223
99.4889 90.8547 -3.76389
98.8986 89.328 -4.44707
100.222 88.1782 -4.3897
99.565 89.2873 -5.13182
97.589 90.0389 -4.3444
99.1891 89.5572 -5.63714
103.216 90.2417 -3.45209
102.177 91.5035 -3.51213
103.876 91.3792 -3.68559
101.284 92.086 -3.32913
104.037 91.7733 -4.15722
97.8749 91.7979 -4.07791
96.6582 91.391 -3.84351
96.602 92.1924 -4.21268
95.4286 91.4735 -3.71514
98.9423 91.9521 -3.74377
96.0482 92.7328 -4.08418
94.8549 92.5112 -4.15245
102.547 99.8963 -9.5798
102.798 98.7923 -9.43375
103.733 99.0577 -8.83273
102.823 98.341 -9.96564
102.018 98.515 -9.97713
101.454 100.221 -9.48858
102.34 100.496 -9.13845
104.885 99.2165 -8.24731
104.742 98.759 -8.59915
100.871 99.3296 -10.5528
100.415 99.6134 -9.69052
99.4272 98.8469 -9.77225
100.418 99.0199 -8.44927
101.306 98.3946 -10.484
98.7006 98.1743 -9.79517
98.41 98.1685 -8.73899
103.048 100.977 -8.62982
104.53 100.47 -8.3097
103.959 101.199 -7.94481
105.436 99.9008 -7.8057
102.112 100.392 -7.98099
104.036 100.627 -6.81511
105.11 101.344 -7.35253
105.041 97.9919 -9.23006
104.035 97.8125 -10.0876
105.221 97.6789 -9.93435
103.381 97.4966 -10.4422
105.746 98.4287 -8.63121
106.671 98.1655 -10.1719
105.869 97.7925 -10.9834
98.5311 98.2031 -6.74005
100.144 98.9088 -6.76482
100.072 99.1791 -6.50584
101.244 99.9723 -7.5444
100.198 98.8566 -7.58259
97.6085 97.5444 -6.7932
96.8629 97.4596 -6.3983
99.6392 99.3117 -6.12658
100.783 100.081 -6.18064
99.4182 98.1887 -7.57933
98.056 97.7991 -7.10741
98.3217 98.1731 -7.94353
96.5683 97.033 -6.66544
97.5129 97.7274 -8.24625
97.2634 97.4949 -5.92848
98.7243 98.5199 -5.76302
97.0755 97.9213 -5.47185
99.7071 99.6278 -5.45138
95.8765 97.1512 -6.12676
95.7831 98.0067 -5.33902
96.84 97.8717 -5.05671
101.718 100.526 -6.06596
102.062 100.157 -7.0106
103.061 100.607 -6.46136
101.729 100.739 -5.67133
104.105 100.687 -6.0212
97.7762 91.7488 -7.92792
96.7736 92.562 -7.94668
96.2137 91.5514 -7.49399
96.0709 92.9713 -8.28396
97.1802 92.9697 -8.37909
99.551 91.5374 -8.54673
99.1704 91.2598 -8.13241
95.875 90.6412 -7.06714
94.9477 91.198 -7.04587
98.2625 92.955 -8.82611
99.5012 92.3036 -8.97191
99.7835 92.8221 -9.37561
100.741 91.7622 -8.86285
97.1006 93.7018 -8.85118
99.6899 93.4093 -9.80982
100.738 92.4781 -9.77193
98.7798 90.5527 -7.60211
96.9124 90.4328 -6.95483
98.8384 90.3029 -6.86137
95.2705 90.2878 -6.35417
100.269 90.7251 -7.87235
100.244 89.7675 -6.65555
98.5541 89.828 -6.17905
94.0057 92.0356 -7.15904
94.7259 92.8816 -8.02679
93.7592 93.1542 -7.21408
95.1754 93.6123 -8.46992
93.4663 91.437 -6.51314
92.3713 93.1429 -6.91068
93.1036 93.8343 -7.28727
96.2211 94.8962 -9.27405
96.7768 95.2861 -9.96089
95.4164 95.7124 -9.37464
96.7219 96.0144 -11.0478
97.7554 95.4016 -11.1374
96.9219 94.4641 -9.5125
95.0105 94.5786 -9.02957
94.1001 96.104 -8.74245
94.9652 96.3297 -9.5309
98.3722 94.8461 -10.2402
97.4817 93.8378 -9.63255
99.1423 94.1944 -9.91308
98.8773 95.5826 -11.0415
99.8493 93.8713 -10.318
94.2734 94.1159 -8.47358
94.0951 95.2755 -8.31869
93.2899 94.2476 -7.8412
93.533 96.2326 -8.03998
92.372 94.613 -7.4619
95.7305 96.695 -9.58077
96.6552 96.3933 -10.6219
97.0514 96.9641 -9.75843
97.9221 96.786 -11.4583
94.4618 97.007 -8.94978
96.7927 97.3319 -8.93621
97.9066 97.3024 -9.87451
105.844 94.3993 -3.71125
106.697 95.2582 -3.67411
106.621 94.247 -4.44719
107.068 96.1129 -3.98448
106.554 96.1359 -3.60154
104.733 94.3523 -4.04311
104.843 93.8866 -4.28247
107.295 93.6164 -4.75604
107.513 94.0645 -4.87988
105.162 96.0386 -3.97546
104.063 95.0031 -4.16372
103.808 95.7822 -4.01766
103.493 94.6112 -3.83438
105.973 96.8631 -3.81242
103.462 96.7028 -3.92006
102.546 96.1276 -4.08204
104.486 93.2658 -4.84053
106.359 93.1675 -4.69679
104.874 92.2823 -5.16043
107.376 92.926 -5.01309
103.563 93.6054 -4.3801
104.16 92.5901 -4.49661
105.879 91.8191 -4.44937
107.757 94.9341 -5.08443
107.343 96.121 -4.87096
108.25 96.0667 -5.1486
107.399 97.2676 -4.25103
108.326 93.8906 -5.32647
108.643 95.8794 -5.67376
108.806 96.9571 -5.26561
106.511 98.7706 -3.77565
105.971 99.2086 -4.27403
107.695 99.9161 -3.99285
105.956 100.21 -4.48994
105.13 99.0091 -4.01752
106.207 97.8434 -3.66257
107.538 98.4528 -3.9037
108.895 100.245 -4.49464
108.4 101.158 -4.80769
104.056 98.4846 -3.79566
105.204 97.2124 -3.94312
103.603 97.5771 -3.63825
104.104 99.7191 -3.65035
102.929 97.6344 -3.73367
108.039 97.9089 -4.2902
108.734 99.1386 -4.818
109.101 98.1879 -4.78683
109.262 99.7363 -5.31511
109.02 97.68 -5.55285
107.705 101.638 -5.74305
106.501 101.086 -5.23005
106.54 101.582 -5.94894
105.36 101.081 -4.4199
108.566 101.291 -6.10602
106.223 101.632 -6.66169
104.978 101.421 -5.50664
107.049 93.2033 -11.6225
108.403 94.0091 -12.1657
106.683 94.1474 -11.6454
109.368 95.4128 -12.1957
109.258 94.0329 -11.5929
106.806 92.2225 -11.371
105.706 92.5544 -11.3194
105.317 94.5119 -12.0704
106.328 95.1086 -11.8984
108.916 92.821 -10.8431
107.363 91.8655 -10.5228
108.387 91.8422 -9.97284
106.221 91.6062 -10.4325
110.033 93.8186 -10.9553
109.32 91.9141 -9.61813
107.729 91.4934 -9.5269
103.947 92.8043 -11.3667
104.091 93.9273 -11.7736
102.571 93.6015 -10.6966
103.615 94.6689 -11.5535
104.527 92.1649 -10.7603
102.007 92.8386 -10.1585
101.379 93.8191 -10.3816
106.694 95.9757 -11.5333
108.54 96.2638 -11.9426
107.535 97.4073 -11.7554
109.88 96.5608 -11.8315
105.054 95.8143 -11.8648
105.546 97.7095 -11.7327
107.998 97.9495 -11.2989
111.189 96.2218 -10.1812
111.557 96.1927 -9.12709
111.201 97.0597 -9.27656
111.632 95.7615 -7.92652
111.102 95.051 -8.64529
110.746 94.7351 -10.4872
110.908 96.6938 -11.1184
110.549 97.8122 -9.33345
111.429 97.5045 -8.29652
110.808 93.7637 -8.87393
110.151 93.5533 -9.87536
109.977 92.6082 -9.20896
110.542 93.5299 -8.00724
109.488 91.3786 -8.60482
109.701 97.2429 -11.3598
109.748 98.1933 -10.1429
108.734 98.4635 -10.8936
109.659 98.2508 -9.27907
107.757 98.2433 -10.0099
111.511 97.0905 -7.10361
111.556 95.9823 -6.87382
110.336 96.3163 -6.47466
111.148 94.8131 -7.02767
110.478 97.6085 -7.38779
109.156 96.8847 -6.3492
109.483 95.7989 -6.22486
90.199 97.8591 -2.68112
87.6198 96.4067 -2.78251
87.5614 98.7548 -3.40763
87.5346 95.1384 -3.69642
88.1456 95.0932 -3.05178
91.7913 97.4958 -2.97941
92.3076 98.3021 -2.67844
88.911 99.8197 -4.47743
87.0327 97.9371 -4.99347
90.2861 95.0253 -2.58747
92.3195 96.1358 -3.4069
92.8596 94.9324 -3.39671
94.035 96.4824 -3.50774
89.5681 94.4281 -3.49235
93.5684 93.5428 -3.4512
94.5359 94.3217 -3.95984
93.6848 98.4063 -3.27153
91.9536 99.5673 -4.34382
94.8341 99.4088 -4.26987
90.5186 99.4507 -4.99767
94.9129 97.5296 -3.19338
96.0212 98.8727 -4.09001
94.5576 98.9961 -4.89245
88.2855 96.4169 -5.6198
89.1455 94.5581 -4.81926
90.4048 94.3751 -6.13288
88.9809 93.3935 -4.79132
88.3407 97.4539 -6.17449
90.5002 95.1088 -6.84685
91.3694 93.2659 -6.47695
97.7788 96.2315 -4.1174
96.9064 96.6627 -3.95915
97.9018 96.9394 -4.35307
96.039 97.0307 -3.64389
95.6776 96.207 -3.52236
97.9178 95.6406 -4.07811
99.3279 95.9369 -3.59038
99.6868 97.3948 -3.71004
98.8161 97.3847 -4.48972
95.4234 95.4906 -3.94696
96.7658 95.2571 -4.5138
95.577 94.3936 -4.53156
98.2003 94.8371 -3.51627
95.4919 93.3566 -3.89964
100.541 96.5992 -3.21708
100.831 97.5316 -3.3445
101.002 96.7711 -4.03068
101.016 98.417 -3.32385
100.24 95.4291 -3.37462
101.287 96.26 -4.32782
101.729 97.2888 -4.04196
97.6749 97.6107 -4.30718
96.2746 97.5822 -3.48699
97.1167 98.3945 -4.07952
99.074 98.1179 -4.30237
97.3089 98.0488 -4.73483
103.705 90.0345 -8.4669
103.812 90.7101 -9.29109
102.901 91.1142 -8.56751
104.24 91.3121 -10.2366
105.037 91.0497 -9.77265
104.425 89.2636 -8.35479
103.745 89.3517 -7.59313
101.867 90.5519 -8.11289
102.467 91.5694 -8.73443
105.849 90.8562 -9.49625
105.266 89.2186 -8.85329
106.846 90.4071 -9.05999
102.766 89.8115 -7.30326
101.233 90.4049 -7.5552
101.277 89.7818 -6.94599
102.006 91.5759 -9.39862
103.185 91.567 -10.2783
101.899 91.8832 -10.0064
101.775 96.1219 -10.9083
101.024 97.1229 -11.1931
99.75 96.749 -11.4078
100.841 97.7591 -10.9433
102.304 97.3153 -10.923
103.203 96.1262 -11.5065
102.288 95.2432 -11.2595
99.2323 96.0233 -11.4207
98.6697 97.2845 -11.7557
103.234 97.0327 -10.7417
104.368 96.5786 -11.7706
104.655 97.4373 -11.4616
101.934 94.9788 -10.7031
99.9729 95.0952 -10.8893
100.81 94.3168 -10.2596
98.5795 97.7637 -11.3241
99.8494 98.5065 -10.7985
98.6736 98.054 -10.4043
94.8744 91.5689 -4.82493
93.8953 91.4005 -5.40279
92.6982 92.4383 -4.6261
93.4482 91.2645 -5.78808
94.8676 90.7569 -5.68149
96.029 90.9774 -4.32482
94.4286 91.8563 -4.18993
91.3087 93.3833 -3.9468
90.7634 92.5142 -4.66479
96.1708 89.9469 -5.81807
96.9044 90.1575 -4.87547
97.5117 89.4441 -5.65357
94.7446 92.546 -4.29845
92.3126 93.221 -3.60603
93.542 93.1218 -4.25036
90.4402 92.5353 -5.07639
92.587 92.0418 -5.69594
91.391 92.2626 -6.03026
92.7347 97.1208 -6.34666
93.3432 97.1034 -5.90937
91.1532 97.993 -5.83465
94.362 97.1843 -5.96048
95.3191 96.6345 -6.80061
94.4843 96.799 -7.23453
92.7306 96.8494 -7.09766
89.2178 97.6383 -6.16522
90.1849 98.8678 -5.61328
96.2732 96.8706 -7.17956
95.3675 96.8687 -8.17548
96.4713 97.3248 -8.34558
92.8444 95.9885 -7.59811
90.7557 96.5401 -6.77306
91.6003 95.0437 -7.37841
92.0731 98.7826 -5.481
94.9504 97.2256 -5.77064
94.5383 97.8592 -5.29868
108.846 91.1356 -5.51575
109.05 92.5975 -5.57337
109.355 92.9579 -6.39993
109.523 93.4377 -5.47029
108.401 92.2248 -5.08407
108.101 90.0204 -4.84508
108.587 90.248 -5.72806
109.813 93.1781 -7.21998
110.483 94.2166 -6.70944
107.519 92.5137 -4.86696
107.943 90.9308 -4.64085
106.972 91.68 -4.06459
108.843 91.2007 -6.889
109.801 92.3174 -7.51826
109.179 91.2764 -7.81982
110.38 94.7191 -6.0899
109.007 94.3669 -5.42816
109.13 95.3122 -5.82683
108.175 99.2029 -6.66027
107.224 99.1486 -7.51569
108.6 98.6133 -7.52846
106.894 98.853 -7.9549
106.549 99.6042 -7.51282
108.193 100.407 -6.40286
108.877 99.6128 -6.22367
109.479 97.9598 -7.41994
109.221 98.2043 -8.28049
106.17 100.192 -7.26104
107.178 101.107 -6.78256
106.017 101.401 -7.2684
109.482 98.8536 -6.11734
109.813 97.8252 -6.71996
108.91 97.53 -6.13593
108.262 98.3378 -8.77894
106.515 98.2621 -8.31052
106.998 97.9384 -9.229
101.214 93.8579 -4.29282
100.478 93.0991 -3.91489
100.241 93.9434 -4.06144
99.5345 92.8658 -3.72146
100.957 92.6217 -3.53322
102.5 93.8432 -4.35323
102.605 94.4445 -3.97654
100.665 94.6177 -3.71154
99.4989 94.3449 -3.29044
101.911 92.5411 -3.98689
102.531 93.3913 -4.62693
103.144 92.4433 -4.42291
102.357 94.9509 -3.74648
100.844 95.3418 -4.13762
101.756 95.7455 -4.29707
98.6093 94.4457 -3.16671
98.4511 93.4046 -3.63905
97.0214 93.6188 -3.71849
101.867 100.449 -4.5154
102.92 100.176 -4.27227
101.851 100.293 -3.8369
103.886 100.186 -3.83526
104.309 100.662 -4.1225
101.925 100.798 -5.02888
101.013 100.327 -4.83673
100.646 99.2978 -4.12798
102.011 99.3295 -3.59195
104.047 101.131 -4.64901
102.6 100.78 -5.07868
103.997 101.095 -5.39511
99.8579 99.4168 -5.1414
99.597 98.9315 -4.39387
98.4004 98.2829 -4.95634
101.84 98.6092 -3.64779
103.061 99.2925 -3.62927
102.327 98.119 -3.59669
POLYGONS 1280  5120
3 164 162 163
3 163 44 164
3 162 43 163
3 164 42 162
3 166 165 163
3 163 43 166
3 165 44 163
3 166 14 165
3 168 167 162
3 162 42 168
3 167 43 162
3 168 13 167
3 170 169 164
3 164 44 170
3 169 42 164
3 170 12 169
3 173 171 172
3 172 46 173
3 171 43 172
3 173 45 171
3 167 174 172
3 172 43 167
3 174 46 172
3 167 13 174
3 175 166 171
3 171 45 175
3 166 43 171
3 175 14 166
3 177 176 173
3 173 46 177
3 176 45 173
3 177 4 176
3 180 178 179
3 179 48 180
3 178 42 179
3 180 47 178
3 169 181 179
3 179 42 169
3 181 48 179
3 169 12 181
3 182 168 178
3 178 47 182
3 168 42 178
3 182 13 168
3 184 183 180
3 180 48 184
3 183 47 180
3 184 8 183
3 187 185 186
3 186 50 187
3 185 44 186
3 187 49 185
3 165 188 186
3 186 44 165
3 188 50 186
3 165 14 188
3 189 170 185
3 185 49 189
3 170 44 185
3 189 12 170
3 191 190 187
3 187 50 191
3 190 49 187
3 191 7 190
3 194 192 193
3 193 53 194
3 192 52 193
3 194 51 192
3 196 195 193
3 193 52 196
3 195 53 193
3 196 16 195
3 198 197 192
3 192 51 198
3 197 52 192
3 198 14 197
3 200 199 194
3 194 53 200
3 199 51 194
3 200 15 199
3 203 201 202
3 202 45 203
3 201 52 202
3 203 54 201
3 197 175 202
3 202 52 197
3 175 45 202
3 197 14 175
3 204 196 201
3 201 54 204
3 196 52 201
3 204 16 196
3 176 205 203
3 203 45 176
3 205 54 203
3 176 4 205
3 208 206 207
3 207 55 208
3 206 51 207
3 208 50 206
3 199 209 207
3 207 51 199
3 209 55 207
3 199 15 209
3 188 198 206
3 206 50 188
3 198 51 206
3 188 14 198
3 210 191 208
3 208 55 210
3 191 50 208
3 210 7 191
3 213 211 212
3 212 57 213
3 211 53 212
3 213 56 211
3 195 214 212
3 212 53 195
3 214 57 212
3 195 16 214
3 215 200 211
3 211 56 215
3 200 53 211
3 215 15 200
3 217 216 213
3 213 57 217
3 216 56 213
3 217 9 216
3 220 218 219
3 219 60 220
3 218 59 219
3 220 58 218
3 222 221 219
3 219 59 222
3 221 60 219
3 222 19 221
3 224 223 218
3 218 58 224
3 223 59 218
3 224 18 223
3 226 225 220
3 220 60 226
3 225 58 220
3 226 17 225
3 229 227 228
3 228 62 229
3 227 59 228
3 229 61 227
3 223 230 228
3 228 59 223
3 230 62 228
3 223 18 230
3 231 222 227
3 227 61 231
3 222 59 227
3 231 19 222
3 233 232 229
3 229 62 233
3 232 61 229
3 233 5 232
3 236 234 235
3 235 64 236
3 234 58 235
3 236 63 234
3 225 237 235
3 235 58 225
3 237 64 235
3 225 17 237
3 238 224 234
3 234 63 238
3 224 58 234
3 238 18 224
3 240 239 236
3 236 64 240
3 239 63 236
3 240 6 239
3 243 241 242
3 242 66 243
3 241 60 242
3 243 65 241
3 221 244 242
3 242 60 221
3 244 66 242
3 221 19 244
3 245 226 241
3 241 65 245
3 226 60 241
3 245 17 226
3 247 246 243
3 243 66 247
3 246 65 243
3 247 11 246
3 250 248 249
3 249 69 250
3 248 68 249
3 250 67 248
3 252 251 249
3 249 68 252
3 251 69 249
3 252 18 251
3 254 253 248
3 248 67 254
3 253 68 248
3 254 21 253
3 256 255 250
3 250 69 256
3 255 67 250
3 256 20 255
3 259 257 258
3 258 70 259
3 257 68 258
3 259 62 257
3 253 260 258
3 258 68 253
3 260 70 258
3 253 21 260
3 230 252 257
3 257 62 230
3 252 68 257
3 230 18 252
3 261 233 259
3 259 70 261
3 233 62 259
3 261 5 233
3 264 262 263
3 263 72 264
3 262 67 263
3 264 71 262
3 255 265 263
3 263 67 255
3 265 72 263
3 255 20 265
3 266 254 262
3 262 71 266
3 254 67 262
3 266 21 254
3 268 267 264
3 264 72 268
3 267 71 264
3 268 10 267
3 271 269 270
3 270 63 271
3 269 69 270
3 271 73 269
3 251 238 270
3 270 69 251
3 238 63 270
3 251 18 238
3 272 256 269
3 269 73 272
3 256 69 269
3 272 20 256
3 239 273 271
3 271 63 239
3 273 73 271
3 239 6 273
3 276 274 275
3 275 76 276
3 274 75 275
3 276 74 274
3 278 277 275
3 275 75 278
3 277 76 275
3 278 24 277
3 280 279 274
3 274 74 280
3 279 75 274
3 280 23 279
3 282 281 276
3 276 76 282
3 281 74 276
3 282 22 281
3 285 283 284
3 284 78 285
3 283 75 284
3 285 77 283
3 279 286 284
3 284 75 279
3 286 78 284
3 279 23 286
3 287 278 283
3 283 77 287
3 278 75 283
3 287 24 278
3 289 288 285
3 285 78 289
3 288 77 285
3 289 0 288
3 292 290 291
3 291 80 292
3 290 74 291
3 292 79 290
3 281 293 291
3 291 74 281
3 293 80 291
3 281 22 293
3 294 280 290
3 290 79 294
3 280 74 290
3 294 23 280
3 296 295 292
3 292 80 296
3 295 79 292
3 296 4 295
3 299 297 298
3 298 82 299
3 297 76 298
3 299 81 297
3 277 300 298
3 298 76 277
3 300 82 298
3 277 24 300
3 301 282 297
3 297 81 301
3 282 76 297
3 301 22 282
3 303 302 299
3 299 82 303
3 302 81 299
3 303 3 302
3 306 304 305
3 305 85 306
3 304 84 305
3 306 83 304
3 308 307 305
3 305 84 308
3 307 85 305
3 308 26 307
3 310 309 304
3 304 83 310
3 309 84 304
3 310 24 309
3 312 311 306
3 306 85 312
3 311 83 306
3 312 25 311
3 315 313 314
3 314 77 315
3 313 84 314
3 315 86 313
3 309 287 314
3 314 84 309
3 287 77 314
3 309 24 287
3 316 308 313
3 313 86 316
3 308 84 313
3 316 26 308
3 288 317 315
3 315 77 288
3 317 86 315
3 288 0 317
3 320 318 319
3 319 87 320
3 318 83 319
3 320 82 318
3 311 321 319
3 319 83 311
3 321 87 319
3 311 25 321
3 300 310 318
3 318 82 300
3 310 83 318
3 300 24 310
3 322 303 320
3 320 87 322
3 303 82 320
3 322 3 303
3 325 323 324
3 324 89 325
3 323 85 324
3 325 88 323
3 307 326 324
3 324 85 307
3 326 89 324
3 307 26 326
3 327 312 323
3 323 88 327
3 312 85 323
3 327 25 312
3 329 328 325
3 325 89 329
3 328 88 325
3 329 5 328
3 332 330 331
3 331 92 332
3 330 91 331
3 332 90 330
3 334 333 331
3 331 91 334
3 333 92 331
3 334 29 333
3 336 335 330
3 330 90 336
3 335 91 330
3 336 28 335
3 338 337 332
3 332 92 338
3 337 90 332
3 338 27 337
3 341 339 340
3 340 94 341
3 339 91 340
3 341 93 339
3 335 342 340
3 340 91 335
3 342 94 340
3 335 28 342
3 343 334 339
3 339 93 343
3 334 91 339
3 343 29 334
3 345 344 341
3 341 94 345
3 344 93 341
3 345 2 344
3 348 346 347
3 347 96 348
3 346 90 347
3 348 95 346
3 337 349 347
3 347 90 337
3 349 96 347
3 337 27 349
3 350 336 346
3 346 95 350
3 336 90 346
3 350 28 336
3 352 351 348
3 348 96 352
3 351 95 348
3 352 7 351
3 355 353 354
3 354 98 355
3 353 92 354
3 355 97 353
3 333 356 354
3 354 92 333
3 356 98 354
3 333 29 356
3 357 338 353
3 353 97 357
3 338 92 353
3 357 27 338
3 359 358 355
3 355 98 359
3 358 97 355
3 359 1 358
3 362 360 361
3 361 101 362
3 360 100 361
3 362 99 360
3 364 363 361
3 361 100 364
3 363 101 361
3 364 31 363
3 366 365 360
3 360 99 366
3 365 100 360
3 366 29 365
3 368 367 362
3 362 101 368
3 367 99 362
3 368 30 367
3 371 369 370
3 370 93 371
3 369 100 370
3 371 102 369
3 365 343 370
3 370 100 365
3 343 93 370
3 365 29 343
3 372 364 369
3 369 102 372
3 364 100 369
3 372 31 364
3 344 373 371
3 371 93 344
3 373 102 371
3 344 2 373
3 376 374 375
3 375 103 376
3 374 99 375
3 376 98 374
3 367 377 375
3 375 99 367
3 377 103 375
3 367 30 377
3 356 366 374
3 374 98 356
3 366 99 374
3 356 29 366
3 378 359 376
3 376 103 378
3 359 98 376
3 378 1 359
3 381 379 380
3 380 105 381
3 379 101 380
3 381 104 379
3 363 382 380
3 380 101 363
3 382 105 380
3 363 31 382
3 383 368 379
3 379 104 383
3 368 101 379
3 383 30 368
3 385 384 381
3 381 105 385
3 384 104 381
3 385 6 384
3 388 386 387
3 387 108 388
3 386 107 387
3 388 106 386
3 390 389 387
3 387 107 390
3 389 108 387
3 390 34 389
3 392 391 386
3 386 106 392
3 391 107 386
3 392 33 391
3 394 393 388
3 388 108 394
3 393 106 388
3 394 32 393
3 397 395 396
3 396 110 397
3 395 107 396
3 397 109 395
3 391 398 396
3 396 107 391
3 398 110 396
3 391 33 398
3 399 390 395
3 395 109 399
3 390 107 395
3 399 34 390
3 401 400 397
3 397 110 401
3 400 109 397
3 401 8 400
3 404 402 403
3 403 112 404
3 402 106 403
3 404 111 402
3 393 405 403
3 403 106 393
3 405 112 403
3 393 32 405
3 406 392 402
3 402 111 406
3 392 106 402
3 406 33 392
3 408 407 404
3 404 112 408
3 407 111 404
3 408 0 407
3 411 409 410
3 410 114 411
3 409 108 410
3 411 113 409
3 389 412 410
3 410 108 389
3 412 114 410
3 389 34 412
3 413 394 409
3 409 113 413
3 394 108 409
3 413 32 394
3 415 414 411
3 411 114 415
3 414 113 411
3 415 11 414
3 418 416 417
3 417 117 418
3 416 116 417
3 418 115 416
3 420 419 417
3 417 116 420
3 419 117 417
3 420 36 419
3 422 421 416
3 416 115 422
3 421 116 416
3 422 34 421
3 424 423 418
3 418 117 424
3 423 115 418
3 424 35 423
3 427 425 426
3 426 109 427
3 425 116 426
3 427 118 425
3 421 399 426
3 426 116 421
3 399 109 426
3 421 34 399
3 428 420 425
3 425 118 428
3 420 116 425
3 428 36 420
3 400 429 427
3 427 109 400
3 429 118 427
3 400 8 429
3 432 430 431
3 431 119 432
3 430 115 431
3 432 114 430
3 423 433 431
3 431 115 423
3 433 119 431
3 423 35 433
3 412 422 430
3 430 114 412
3 422 115 430
3 412 34 422
3 434 415 432
3 432 119 434
3 415 114 432
3 434 11 415
3 437 435 436
3 436 121 437
3 435 117 436
3 437 120 435
3 419 438 436
3 436 117 419
3 438 121 436
3 419 36 438
3 439 424 435
3 435 120 439
3 424 117 435
3 439 35 424
3 441 440 437
3 437 121 441
3 440 120 437
3 441 1 440
3 444 442 443
3 443 124 444
3 442 123 443
3 444 122 442
3 446 445 443
3 443 123 446
3 445 124 443
3 446 39 445
3 448 447 442
3 442 122 448
3 447 123 442
3 448 38 447
3 450 449 444
3 444 124 450
3 449 122 444
3 450 37 449
3 453 451 452
3 452 126 453
3 451 123 452
3 453 125 451
3 447 454 452
3 452 123 447
3 454 126 452
3 447 38 454
3 455 446 451
3 451 125 455
3 446 123 451
3 455 39 446
3 457 456 453
3 453 126 457
3 456 125 453
3 457 9 456
3 460 458 459
3 459 128 460
3 458 122 459
3 460 127 458
3 449 461 459
3 459 122 449
3 461 128 459
3 449 37 461
3 462 448 458
3 458 127 462
3 448 122 458
3 462 38 448
3 464 463 460
3 460 128 464
3 463 127 460
3 464 10 463
3 467 465 466
3 466 130 467
3 465 124 466
3 467 129 465
3 445 468 466
3 466 124 445
3 468 130 466
3 445 39 468
3 469 450 465
3 465 129 469
3 450 124 465
3 469 37 450
3 471 470 467
3 467 130 471
3 470 129 467
3 471 3 470
3 474 472 473
3 473 133 474
3 472 132 473
3 474 131 472
3 476 475 473
3 473 132 476
3 475 133 473
3 476 38 475
3 478 477 472
3 472 131 478
3 477 132 472
3 478 41 477
3 480 479 474
3 474 133 480
3 479 131 474
3 480 40 479
3 483 481 482
3 482 134 483
3 481 132 482
3 483 126 481
3 477 484 482
3 482 132 477
3 484 134 482
3 477 41 484
3 454 476 481
3 481 126 454
3 476 132 481
3 454 38 476
3 485 457 483
3 483 134 485
3 457 126 483
3 485 9 457
3 488 486 487
3 487 136 488
3 486 131 487
3 488 135 486
3 479 489 487
3 487 131 479
3 489 136 487
3 479 40 489
3 490 478 486
3 486 135 490
3 478 131 486
3 490 41 478
3 492 491 488
3 488 136 492
3 491 135 488
3 492 2 491
3 495 493 494
3 494 127 495
3 493 133 494
3 495 137 493
3 475 462 494
3 494 133 475
3 462 127 494
3 475 38 462
3 496 480 493
3 493 137 496
3 480 133 493
3 496 40 480
3 463 497 495
3 495 127 463
3 497 137 495
3 463 10 497
3 500 498 499
3 499 140 500
3 498 139 499
3 500 138 498
3 502 501 499
3 499 139 502
3 501 140 499
3 502 33 501
3 504 503 498
3 498 138 504
3 503 139 498
3 504 13 503
3 506 505 500
3 500 140 506
3 505 138 500
3 506 23 505
3 509 507 508
3 508 47 509
3 507 139 508
3 509 110 507
3 503 182 508
3 508 139 503
3 182 47 508
3 503 13 182
3 398 502 507
3 507 110 398
3 502 139 507
3 398 33 502
3 183 401 509
3 509 47 183
3 401 110 509
3 183 8 401
3 512 510 511
3 511 79 512
3 510 138 511
3 512 46 510
3 505 294 511
3 511 138 505
3 294 79 511
3 505 23 294
3 174 504 510
3 510 46 174
3 504 138 510
3 174 13 504
3 295 177 512
3 512 79 295
3 177 46 512
3 295 4 177
3 515 513 514
3 514 111 515
3 513 140 514
3 515 78 513
3 501 406 514
3 514 140 501
3 406 111 514
3 501 33 406
3 286 506 513
3 513 78 286
3 506 140 513
3 286 23 506
3 407 289 515
3 515 111 407
3 289 78 515
3 407 0 289
3 518 516 517
3 517 143 518
3 516 142 517
3 518 141 516
3 520 519 517
3 517 142 520
3 519 143 517
3 520 19 519
3 522 521 516
3 516 141 522
3 521 142 516
3 522 32 521
3 524 523 518
3 518 143 524
3 523 141 518
3 524 26 523
3 527 525 526
3 526 113 527
3 525 142 526
3 527 66 525
3 521 413 526
3 526 142 521
3 413 113 526
3 521 32 413
3 244 520 525
3 525 66 244
3 520 142 525
3 244 19 520
3 414 247 527
3 527 113 414
3 247 66 527
3 414 11 247
3 530 528 529
3 529 86 530
3 528 141 529
3 530 112 528
3 523 316 529
3 529 141 523
3 316 86 529
3 523 26 316
3 405 522 528
3 528 112 405
3 522 141 528
3 405 32 522
3 317 408 530
3 530 86 317
3 408 112 530
3 317 0 408
3 533 531 532
3 532 61 533
3 531 143 532
3 533 89 531
3 519 231 532
3 532 143 519
3 231 61 532
3 519 19 231
3 326 524 531
3 531 89 326
3 524 143 531
3 326 26 524
3 232 329 533
3 533 61 232
3 329 89 533
3 232 5 329
3 536 534 535
3 535 146 536
3 534 145 535
3 536 144 534
3 538 537 535
3 535 145 538
3 537 146 535
3 538 22 537
3 540 539 534
3 534 144 540
3 539 145 534
3 540 16 539
3 542 541 536
3 536 146 542
3 541 144 536
3 542 39 541
3 545 543 544
3 544 54 545
3 543 145 544
3 545 80 543
3 539 204 544
3 544 145 539
3 204 54 544
3 539 16 204
3 293 538 543
3 543 80 293
3 538 145 543
3 293 22 538
3 205 296 545
3 545 54 205
3 296 80 545
3 205 4 296
3 548 546 547
3 547 125 548
3 546 144 547
3 548 57 546
3 541 455 547
3 547 144 541
3 455 125 547
3 541 39 455
3 214 540 546
3 546 57 214
3 540 144 546
3 214 16 540
3 456 217 548
3 548 125 456
3 217 57 548
3 456 9 217
3 551 549 550
3 550 81 551
3 549 146 550
3 551 130 549
3 537 301 550
3 550 146 537
3 301 81 550
3 537 22 301
3 468 542 549
3 549 130 468
3 542 146 549
3 468 39 542
3 302 471 551
3 551 81 302
3 471 130 551
3 302 3 471
3 554 552 553
3 553 149 554
3 552 148 553
3 554 147 552
3 556 555 553
3 553 148 556
3 555 149 553
3 556 21 555
3 558 557 552
3 552 147 558
3 557 148 552
3 558 25 557
3 560 559 554
3 554 149 560
3 559 147 554
3 560 37 559
3 563 561 562
3 562 88 563
3 561 148 562
3 563 70 561
3 557 327 562
3 562 148 557
3 327 88 562
3 557 25 327
3 260 556 561
3 561 70 260
3 556 148 561
3 260 21 556
3 328 261 563
3 563 88 328
3 261 70 563
3 328 5 261
3 566 564 565
3 565 129 566
3 564 147 565
3 566 87 564
3 559 469 565
3 565 147 559
3 469 129 565
3 559 37 469
3 321 558 564
3 564 87 321
3 558 147 564
3 321 25 558
3 470 322 566
3 566 129 470
3 322 87 566
3 470 3 322
3 569 567 568
3 568 71 569
3 567 149 568
3 569 128 567
3 555 266 568
3 568 149 555
3 266 71 568
3 555 21 266
3 461 560 567
3 567 128 461
3 560 149 567
3 461 37 560
3 267 464 569
3 569 71 267
3 464 128 569
3 267 10 464
3 572 570 571
3 571 152 572
3 570 151 571
3 572 150 570
3 574 573 571
3 571 151 574
3 573 152 571
3 574 27 573
3 576 575 570
3 570 150 576
3 575 151 570
3 576 12 575
3 578 577 572
3 572 152 578
3 577 150 572
3 578 36 577
3 581 579 580
3 580 49 581
3 579 151 580
3 581 96 579
3 575 189 580
3 580 151 575
3 189 49 580
3 575 12 189
3 349 574 579
3 579 96 349
3 574 151 579
3 349 27 574
3 190 352 581
3 581 49 190
3 352 96 581
3 190 7 352
3 584 582 583
3 583 118 584
3 582 150 583
3 584 48 582
3 577 428 583
3 583 150 577
3 428 118 583
3 577 36 428
3 181 576 582
3 582 48 181
3 576 150 582
3 181 12 576
3 429 184 584
3 584 118 429
3 184 48 584
3 429 8 184
3 587 585 586
3 586 97 587
3 585 152 586
3 587 121 585
3 573 357 586
3 586 152 573
3 357 97 586
3 573 27 357
3 438 578 585
3 585 121 438
3 578 152 585
3 438 36 578
3 358 441 587
3 587 97 358
3 441 121 587
3 358 1 441
3 590 588 589
3 589 155 590
3 588 154 589
3 590 153 588
3 592 591 589
3 589 154 592
3 591 155 589
3 592 17 591
3 594 593 588
3 588 153 594
3 593 154 588
3 594 30 593
3 596 595 590
3 590 155 596
3 595 153 590
3 596 35 595
3 599 597 598
3 598 104 599
3 597 154 598
3 599 64 597
3 593 383 598
3 598 154 593
3 383 104 598
3 593 30 383
3 237 592 597
3 597 64 237
3 592 154 597
3 237 17 592
3 384 240 599
3 599 104 384
3 240 64 599
3 384 6 240
3 602 600 601
3 601 120 602
3 600 153 601
3 602 103 600
3 595 439 601
3 601 153 595
3 439 120 601
3 595 35 439
3 377 594 600
3 600 103 377
3 594 153 600
3 377 30 594
3 440 378 602
3 602 120 440
3 378 103 602
3 440 1 378
3 605 603 604
3 604 65 605
3 603 155 604
3 605 119 603
3 591 245 604
3 604 155 591
3 245 65 604
3 591 17 245
3 433 596 603
3 603 119 433
3 596 155 603
3 433 35 596
3 246 434 605
3 605 65 246
3 434 119 605
3 246 11 434
3 608 606 607
3 607 158 608
3 606 157 607
3 608 156 606
3 610 609 607
3 607 157 610
3 609 158 607
3 610 15 609
3 612 611 606
3 606 156 612
3 611 157 606
3 612 28 611
3 614 613 608
3 608 158 614
3 613 156 608
3 614 41 613
3 617 615 616
3 616 95 617
3 615 157 616
3 617 55 615
3 611 350 616
3 616 157 611
3 350 95 616
3 611 28 350
3 209 610 615
3 615 55 209
3 610 157 615
3 209 15 610
3 351 210 617
3 617 95 351
3 210 55 617
3 351 7 210
3 620 618 619
3 619 135 620
3 618 156 619
3 620 94 618
3 613 490 619
3 619 156 613
3 490 135 619
3 613 41 490
3 342 612 618
3 618 94 342
3 612 156 618
3 342 28 612
3 491 345 620
3 620 135 491
3 345 94 620
3 491 2 345
3 623 621 622
3 622 56 623
3 621 158 622
3 623 134 621
3 609 215 622
3 622 158 609
3 215 56 622
3 609 15 215
3 484 614 621
3 621 134 484
3 614 158 621
3 484 41 614
3 216 485 623
3 623 56 216
3 485 134 623
3 216 9 485
3 626 624 625
3 625 161 626
3 624 160 625
3 626 159 624
3 628 627 625
3 625 160 628
3 627 161 625
3 628 31 627
3 630 629 624
3 624 159 630
3 629 160 624
3 630 20 629
3 632 631 626
3 626 161 632
3 631 159 626
3 632 40 631
3 635 633 634
3 634 73 635
3 633 160 634
3 635 105 633
3 629 272 634
3 634 160 629
3 272 73 634
3 629 20 272
3 382 628 633
3 633 105 382
3 628 160 633
3 382 31 628
3 273 385 635
3 635 73 273
3 385 105 635
3 273 6 385
3 638 636 637
3 637 137 638
3 636 159 637
3 638 72 636
3 631 496 637
3 637 159 631
3 496 137 637
3 631 40 496
3 265 630 636
3 636 72 265
3 630 159 636
3 265 20 630
3 497 268 638
3 638 137 497
3 268 72 638
3 497 10 268
3 641 639 640
3 640 102 641
3 639 161 640
3 641 136 639
3 627 372 640
3 640 161 627
3 372 102 640
3 627 31 372
3 489 632 639
3 639 136 489
3 632 161 639
3 489 40 632
3 373 492 641
3 641 102 373
3 492 136 641
3 373 2 492
