# vtk DataFile Version 3.0
this file was written using fslvtkio
ASCII
DATASET POLYDATA
POINTS 642 float
141.271 98.7326 3.41432
148.828 100.033 4.61153
151.473 101.452 9.25915
139.035 98.0873 7.12084
145.077 95.6513 6.82632
140.164 102.555 4.48952
146.967 103.457 5.26624
148.779 97.1312 7.63449
148.064 96.3269 3.54309
147.237 97.7725 9.76377
145.91 101.063 7.98016
145.465 102.736 1.71411
149.114 95.0735 5.87074
145.629 94.6788 5.72468
147.595 94.7277 7.25512
148.551 96.9385 9.44541
144.994 95.2485 8.74427
145.792 103.202 2.57455
144.06 103.371 4.15538
141.725 102.146 2.9294
147.286 101.791 7.13895
141.391 103.083 5.01748
142.21 96.7186 6.83916
142.125 96.1075 5.1909
139.412 98.5754 5.06464
137.217 101.407 5.8664
138.8 100.629 3.36606
148.855 98.053 6.09077
150.012 99.004 9.00309
148.866 101.324 7.35294
147.011 101.877 4.6648
150.528 103.943 6.99993
142.935 101.169 2.78458
144.3 97.1002 2.73701
146.933 99.7858 1.7324
148.477 101.67 2.50437
148.476 98.0026 4.16937
143.149 100.277 6.62667
147.452 100.131 8.51074
144.416 97.2972 8.0323
149.14 101.834 9.2401
151.133 99.7165 10.1896
147.242 94.7325 5.95736
146.266 93.9589 7.13818
148.4 94.5426 7.04888
146.227 95.4988 7.35811
144.575 94.5494 6.56818
146.863 95.9235 4.26324
148.635 95.2379 4.91666
149.026 95.8696 6.83032
148.519 95.9605 7.43632
147.731 95.1354 8.3624
146.299 94.8565 8.63678
146.678 95.1954 9.41805
144.322 95.5195 8.1725
148.961 96.7201 8.81501
148.265 97.1427 9.25854
146.516 96.0983 9.15973
144.76 102.98 3.92225
142.785 102.465 4.01691
144.009 102.302 2.98619
141.083 102.144 4.19733
141.965 103.015 4.4074
145.753 103.616 4.73349
146.319 103.43 3.97555
145.709 103.183 1.85673
143.359 102.455 2.19497
144.841 102.082 6.18809
142.829 103.968 4.88744
144.982 103.27 5.56239
140.18 103.669 4.9726
144.485 100.97 6.19054
146.845 100.791 7.72609
146.823 103.255 6.37511
141.518 96.1063 6.03856
140.576 97.1502 5.07492
141.123 97.4143 5.79547
140.112 98.336 4.34707
141.451 96.92 4.22673
142.847 95.266 6.49153
144.329 96.5886 6.95083
140.561 97.4181 7.5448
139.576 98.1429 6.48471
138.121 99.3655 5.9774
139.252 99.5886 4.22722
138.377 101.079 5.08711
139.332 99.7638 3.22133
138.205 99.4057 6.69691
138.862 102.264 5.04841
140.015 101.272 4.52337
148.915 98.7968 7.44427
149.331 99.9822 7.9631
148.232 99.9594 6.66167
150.027 101.777 8.11154
151.033 100.195 9.85982
149.561 97.7642 8.52412
148.913 97.4282 6.86336
148.462 99.0797 5.50985
147.465 100.369 5.94022
147.954 101.607 6.07558
149.546 102.302 7.09348
149.081 103.307 5.89541
151.029 103.065 8.491
147.651 100.972 4.76519
147.649 103.234 5.13878
148.293 103.464 6.699
144.257 99.6351 2.091
146.233 98.3722 1.79057
145.683 100.914 1.21945
148.178 97.5648 2.7496
146.214 96.8147 3.028
142.713 98.1998 2.89714
141.596 99.3975 2.53408
143.846 102.502 2.08547
145.706 101.328 1.77335
146.468 100.652 2.62521
146.732 98.9056 3.20546
148.499 99.9775 3.22929
148.041 96.9639 4.17078
146.896 102.559 1.78204
149.701 100.648 3.6409
149.088 99.0245 4.62336
145.4 99.7169 7.86136
145.822 99.0883 8.22581
144.204 98.9221 7.55592
146.338 97.8869 8.87891
147.435 99.117 8.84869
146.593 101.07 8.5566
145.022 100.585 7.51106
140.652 98.9864 7.4011
141.388 98.0648 7.83249
150.853 102.323 10.7822
149.275 101.358 8.98565
147.589 102.034 9.71719
148.3 98.7328 10.5694
151.625 100.683 10.2374
151.325 101.919 9.6525
147.255 100.862 9.26579
144.201 95.4642 4.97751
145.05 96.2667 3.82477
143.319 96.9018 3.88345
139.955 101.031 2.52997
141.594 101.808 2.4582
140.186 101.529 2.69611
144.095 96.1363 8.85653
142.899 96.1945 8.24261
142.348 96.8482 7.70058
138.404 100.529 6.12598
137.579 102.797 5.1367
141.39 101.663 5.73042
149.199 96.6132 5.34989
149.907 96.4226 6.40051
149.185 97.7377 5.22667
148.46 101.644 3.24505
146.922 102.687 3.77516
147.171 102.781 2.3037
151.165 98.6184 10.8038
149.546 98.0079 9.44845
149.853 97.6624 11.2812
148.093 101.236 8.83706
148.84 103.517 7.11878
150.794 103.404 8.11119
146.887 94.2029 6.60049
147.602 94.2521 6.87886
147.784 94.3824 6.56859
147.859 94.5057 7.16084
147.136 94.265 7.15908
146.005 94.0863 6.5455
146.462 94.67 5.81496
148.27 94.8363 6.15632
148.955 94.7514 6.6175
146.327 94.8748 7.20519
145.18 93.9495 7.22177
145.329 94.5672 7.16149
145.21 94.5461 6.26878
146.952 95.1097 7.42025
145.639 95.3908 7.11335
144.574 94.7599 7.02353
146.895 95.2509 5.17492
147.84 95.0263 5.54475
147.527 95.9189 4.56542
148.899 95.0214 5.4945
146.16 95.4068 4.8419
147.305 95.9564 3.84596
148.237 95.6178 4.11697
149.15 95.1349 6.9421
148.728 95.0215 7.14066
148.803 96.0979 7.09483
148.143 95.2961 7.21116
149.313 95.3449 6.3964
148.751 96.652 7.10454
148.512 96.6562 7.60374
147.087 95.1263 8.41256
146.455 95.1142 8.94818
147.25 95.1306 8.98918
145.877 95.1002 9.03935
145.918 95.1368 8.74331
146.951 94.6398 8.09532
147.706 95.0875 7.70264
147.739 96.0438 8.7227
147.694 96.0365 9.23203
145.244 95.3913 8.46675
146.161 95.2817 8.27582
145.626 95.5818 7.98136
144.538 95.2174 8.55476
145.291 95.6678 7.43951
147.757 95.9566 7.95223
148.246 96.1817 8.48602
148.233 96.5196 8.14844
148.632 96.7381 9.12145
148.936 96.9856 8.31148
147.631 95.8307 9.6538
146.273 95.3971 9.51305
147.489 96.3654 9.31217
145.152 95.2449 9.12758
148.351 96.3999 9.789
148.134 97.6609 9.42123
147.197 96.8603 9.21756
143.773 102.822 3.8887
143.271 102.419 3.39158
144.191 102.588 3.47381
142.862 102.063 2.8721
142.197 102.378 3.18121
143.267 103.228 4.01873
144.339 103.277 3.95178
145.108 102.885 3.44893
144.991 102.635 2.69801
141.918 102.195 4.17217
142.442 103.1 4.13812
141.186 102.573 4.62258
142.946 103.541 4.16497
141.468 102.135 3.23146
140.337 102.808 4.50502
141.032 102.766 4.73174
145.311 103.334 4.10328
145.624 103.321 3.77891
146.125 103.527 4.27027
145.982 103.099 3.43815
144.849 103.371 4.32698
146.412 103.664 4.97892
146.649 103.565 4.4585
144.797 102.436 2.54954
143.586 101.878 2.98717
144.413 102.727 2.2102
142.472 102.18 2.81814
145.51 103.037 2.16138
145.419 103.307 1.55673
144.488 103.115 1.73948
143.502 103.127 5.36243
143.794 103.249 5.37638
144.991 102.54 5.87551
144.256 103.318 4.91722
143.473 103.865 4.63644
142.137 103.783 5.03463
143.174 102.675 5.534
145.956 101.79 6.73034
146.037 102.258 6.59796
142.478 103.362 4.79276
141.537 103.89 5.10991
141.43 103.29 4.84392
140.523 103.819 4.98129
140.43 102.906 4.77135
144.664 101.711 6.14344
145.948 101.171 6.91956
145.977 100.7 7.19646
147.011 101.204 7.39696
142.464 102.484 5.26382
146.03 100.442 7.31415
146.504 100.477 7.94698
145.909 103.146 6.05821
145.207 103.699 5.18394
146.015 103.597 5.53662
147.113 102.852 6.70746
146.759 103.098 5.98545
140.903 96.5182 5.64234
140.635 97.0934 5.71196
141.316 96.7571 6.12766
140.44 98.0516 5.39124
140.625 97.9074 4.98264
141.315 96.588 5.18027
141.459 95.9676 5.6172
142.576 96.6802 6.24052
142.107 97.3497 6.22113
140.618 97.6448 4.70208
141.022 96.9288 4.5848
140.599 97.4603 4.27471
141.866 96.6633 4.66539
140.086 98.4561 4.6185
140.279 98.4769 3.80978
141.298 98.0383 3.66032
141.812 95.5122 6.46783
142.906 96.2478 6.35133
143.589 95.8909 6.41906
143.368 96.6134 6.84188
142.93 95.7974 5.76242
144.062 95.3195 6.59304
144.747 96.1273 6.99249
141.154 97.4522 6.60801
140.69 98.0138 6.08538
139.922 97.4711 7.04901
139.614 98.3528 5.70226
141.477 97.131 7.07323
139.595 97.5999 7.38155
138.883 97.8368 7.15682
138.377 99.3464 5.17164
138.36 100.08 4.75804
137.755 100.113 5.35636
139.085 100.733 4.78082
139.001 100.376 4.03594
139.261 98.9823 4.70616
138.609 98.8402 5.71546
137.084 100.341 5.9904
137.519 101.132 5.41262
138.869 99.6434 3.66556
139.81 98.9817 4.28929
139.552 99.0887 3.8031
138.675 100.1 2.97255
140.551 99.4381 3.46437
139.057 98.6184 6.33717
137.83 99.4242 6.72135
138.623 98.6902 7.24498
137.399 100.245 6.2157
138.524 98.5066 7.05597
138.124 101.89 4.95256
139.366 101.42 4.68688
139.154 102.116 4.5511
139.356 100.994 4.14069
137.312 102.154 5.45726
139.66 102.399 4.67351
139.791 101.964 4.63502
149.565 99.2724 7.95327
148.832 99.94 7.35098
148.507 99.2602 6.9648
148.692 100.637 7.07156
148.992 100.674 7.73406
149.71 99.6225 8.59037
149.558 99.0126 8.32161
148.486 98.5701 6.60078
148.233 99.0485 6.46137
149.375 100.788 8.36689
150.146 100.338 8.7978
150.175 100.722 8.89065
150.57 99.7282 9.50584
149.297 101.393 7.86728
150.384 101.473 8.73465
150.998 100.806 9.42326
149.184 98.397 8.05911
148.925 98.2431 7.16784
149.216 97.7914 7.67029
148.776 97.861 6.51936
149.848 98.3729 8.71751
149.254 97.4319 8.17298
148.997 97.2496 7.32581
148.364 99.343 6.21112
147.678 100.19 6.34755
147.862 99.5703 5.64407
148.164 100.863 6.68537
148.348 98.702 5.78933
148.387 99.6716 5.08796
147.703 100.173 5.28395
148.698 101.9 6.72829
149.005 102.776 6.62467
149.089 102.283 5.94521
149.859 103.745 6.53044
150.304 103.331 7.04352
148.927 101.782 7.30737
148.436 101.334 6.66099
147.571 101.974 5.46516
148.594 103.005 5.50809
150.108 102.644 7.77315
149.988 102.091 7.73102
150.627 102.371 8.36321
150.508 103.32 7.65626
151.139 102.222 8.96731
147.65 100.922 6.17135
147.185 101.361 5.40088
147.001 100.656 5.46162
147.307 101.353 4.58987
148.172 100.43 4.72565
148.427 103.447 5.58301
149.135 103.907 6.17249
148.004 103.566 5.80681
149.43 104.121 6.76099
147.416 102.543 5.3196
147.204 103.395 5.32149
147.482 103.112 6.22579
145.123 99.2808 1.64107
146.009 99.6536 1.19496
144.591 100.069 1.2433
146.926 100.546 1.13895
147.179 99.0452 1.67891
145.3 98.1537 2.12643
144.417 98.7165 2.31412
143.462 100.546 2.37296
144.045 100.833 1.77475
147.57 97.7778 2.30179
146.068 97.9422 2.57008
147.273 96.8134 2.96302
145.374 97.0697 2.45128
147.503 98.5928 2.24733
148.37 96.9532 3.17757
146.904 96.5208 3.41918
143.109 98.8936 2.33921
142.514 99.5419 2.30821
142.115 98.9389 2.79477
142.194 100.456 2.56389
143.455 97.7429 2.89071
141.982 98.3327 3.17118
141.587 99.2064 3.09818
144.137 101.67 1.57719
145.778 101.525 1.19587
145.024 102.341 1.43639
146.441 100.728 1.7243
143.456 101.362 2.57098
144.531 102.775 1.85662
145.374 101.97 1.82784
146.445 99.7579 2.72364
147.163 99.4625 3.16368
147.163 100.268 2.8565
148.461 99.0451 3.58865
147.71 98.61 3.66198
146.666 99.0071 2.36599
146.596 100.018 2.1403
147.414 101.3 2.58478
148.503 100.966 2.97491
147.528 98.1159 3.57429
147.641 98.2852 2.73655
147.799 97.4439 3.21259
148.306 97.4601 4.33382
148.198 96.5446 3.92982
146.26 100.918 2.09133
146.801 101.583 2.32562
146.111 101.778 2.0953
147.44 102.076 2.01553
146.435 102.911 1.71866
149.141 100.363 3.5643
149.051 99.3701 3.78402
149.473 99.774 4.28366
148.746 98.6832 4.03477
149.198 101.205 3.06104
149.516 100.184 4.12928
149.727 99.5697 4.72575
145.496 99.4397 8.1857
145.933 98.9951 7.74482
145.311 99.4088 7.63981
144.596 98.177 7.82577
145.864 98.3187 7.96452
146.854 99.5947 8.21021
146.621 99.7468 8.26614
145.31 99.787 7.2822
143.971 99.626 7.16314
146.128 98.6672 8.60692
146.289 98.9476 8.76621
146.482 98.4468 9.02954
147.739 99.8535 8.24616
145.372 97.7304 8.47009
146.888 97.8857 9.46847
147.002 98.621 9.48902
146.396 100.343 8.36431
145.589 100.245 7.99368
145.78 100.73 8.33756
144.507 100.438 6.89278
146.883 100.4 8.58508
146.152 100.987 8.40494
145.603 100.712 7.87372
142.229 99.2052 7.46679
142.796 98.4302 7.65779
141.036 98.6116 7.47528
143.016 97.5778 8.03686
141.839 99.7107 7.07993
139.868 98.5666 7.0425
140.365 98.2617 7.40221
149.801 101.387 10.7208
148.163 101.416 9.6304
148.873 102.546 10.1458
147.153 100.816 9.27387
148.18 100.395 8.59901
150.57 100.246 10.018
151.398 101.06 10.7399
150.057 102.556 10.2158
148.259 102.203 9.70237
149.025 100.139 8.60117
148.891 100.144 9.03993
148.148 99.1568 9.28277
149.936 99.5562 9.93001
147.464 98.3394 10.0587
151.536 101.419 10.7824
151.037 102.122 10.4199
151.653 101.74 10.3206
149.989 102.053 9.57392
151.861 100.35 10.5101
151.696 100.983 9.80111
151.904 101.545 9.60245
147.655 101.495 9.7209
146.807 101.422 9.36856
146.579 101.11 9.14492
148.06 101.043 9.52487
146.577 100.731 8.65624
144.481 95.9883 4.50777
144.395 96.7421 3.66406
143.432 96.2124 4.36058
143.788 96.8655 3.4116
144.907 96.6202 3.1424
145.224 95.5833 4.76858
144.88 94.9463 5.45433
143.243 95.7954 5.1244
142.586 96.5254 4.62632
145.577 96.3077 3.26874
145.877 96.254 4.09029
146.482 95.9779 3.76362
144.841 95.3318 5.70061
143.821 95.372 5.72793
143.701 94.8658 6.57016
142.417 96.6922 4.05109
143.205 97.4977 3.38122
142.161 97.4392 3.44721
140.679 101.386 2.47125
140.829 101.545 2.83507
139.814 101.508 2.61652
141.062 101.604 2.8628
141.56 102.129 2.67736
142.03 101.532 2.61477
141.248 101.041 2.49658
139.065 100.913 2.49752
139.031 101.356 2.53615
142.272 102.293 2.33212
142.78 101.393 2.5342
143.384 102.457 1.99462
140.902 100.072 2.70157
139.53 100.313 2.648
140.498 99.6275 2.91886
140.07 101.492 3.64205
140.74 101.807 3.32
140.496 101.841 4.14398
143.465 96.3014 8.52449
142.654 96.6414 8.03121
143.008 96.6302 8.31768
141.992 96.5722 7.56711
142.339 96.3424 7.60642
143.958 95.7738 8.58413
144.37 95.8155 8.97052
144.054 96.6582 8.43783
143.182 96.9496 7.97881
143.564 96.5974 7.78796
143.367 95.8707 8.46832
144.416 96.2923 7.65686
145.096 96.3339 9.32327
145.209 97.1301 8.87321
146.147 97.0243 9.17272
141.95 97.6143 7.93976
141.641 97.3745 7.75171
141.064 97.7373 7.71253
137.625 101.695 5.57685
139.339 102.353 5.30438
139.809 101.219 5.77542
140.643 102.717 5.10784
139.617 102.977 5.03494
136.991 102.264 5.55791
137.183 100.976 5.92483
140.536 100.235 6.19666
142.434 100.76 5.89616
139.171 103.367 5.22328
138.014 102.941 5.20357
139.583 102.909 5.08027
138.059 99.9176 6.47442
139.63 99.5968 6.89096
138.952 99.144 6.88772
144.102 100.669 6.56753
142.744 101.571 5.99221
145.06 100.575 6.94578
149.483 96.5545 5.87645
149.647 97.2128 5.90345
148.965 97.4545 5.27871
149.353 97.8972 5.83961
149.151 97.2398 6.24538
149.46 95.7029 6.24349
148.83 96.0125 5.47143
148.687 97.3417 4.78897
148.613 98.0126 4.46017
149.252 96.9007 6.59671
149.579 95.9691 6.79472
148.795 96.701 6.91401
148.891 95.9159 5.22576
148.776 96.5533 4.73902
148.566 95.8835 4.51483
148.803 98.6282 4.85765
149.416 98.3345 5.40889
149.639 99.0537 4.99493
147.166 102.065 3.46401
146.953 102.494 3.04808
147.796 102.091 2.88032
146.363 103.237 2.45745
146.42 103.084 3.14762
146.904 102.055 4.31174
148.017 101.884 3.95505
149.079 101.655 2.67857
148.244 102.378 2.25198
146.59 103.034 4.03907
147.064 102.551 4.89032
147.007 103.117 4.77041
148.75 101.374 4.06767
149.683 101.277 3.4769
149.495 100.79 4.14509
147.376 102.687 2.02771
146.432 103.259 2.2411
146.775 103.441 1.39419
150.506 97.9456 10.2454
150.053 97.758 10.5495
151.006 97.945 11.0346
149.083 97.2549 10.2791
149.256 97.4188 9.59036
150.238 98.1824 9.41155
150.589 98.634 9.8807
151.908 98.9609 11.0208
150.82 98.5717 11.0959
149.349 97.3789 9.20211
149.833 97.788 9.06466
149.32 97.3316 8.75421
150.869 99.4366 10.4116
151.875 99.6173 10.8792
151.521 100.302 10.3458
149.083 98.2765 11.4321
148.397 97.4808 10.5896
148.129 98.1268 10.2999
148.673 101.979 8.20768
149.599 103.548 7.85053
149.305 102.78 8.31291
150.784 103.734 7.44156
149.584 103.829 7.1288
148.029 102.619 7.41251
147.934 100.758 8.23654
148.364 101.203 9.2025
149.776 102.123 8.764
148.714 103.928 6.63349
147.635 103.301 6.86274
147.508 103.2 6.51888
147.57 100.668 8.65405
147.641 100.65 9.5187
147.049 100.66 9.00994
150.87 102.684 8.96635
151.027 103.342 8.29196
151.391 102.25 8.99959
POLYGONS 1280  5120
3 164 162 163
3 163 44 164
3 162 43 163
3 164 42 162
3 166 165 163
3 163 43 166
3 165 44 163
3 166 14 165
3 168 167 162
3 162 42 168
3 167 43 162
3 168 13 167
3 170 169 164
3 164 44 170
3 169 42 164
3 170 12 169
3 173 171 172
3 172 46 173
3 171 43 172
3 173 45 171
3 167 174 172
3 172 43 167
3 174 46 172
3 167 13 174
3 175 166 171
3 171 45 175
3 166 43 171
3 175 14 166
3 177 176 173
3 173 46 177
3 176 45 173
3 177 4 176
3 180 178 179
3 179 48 180
3 178 42 179
3 180 47 178
3 169 181 179
3 179 42 169
3 181 48 179
3 169 12 181
3 182 168 178
3 178 47 182
3 168 42 178
3 182 13 168
3 184 183 180
3 180 48 184
3 183 47 180
3 184 8 183
3 187 185 186
3 186 50 187
3 185 44 186
3 187 49 185
3 165 188 186
3 186 44 165
3 188 50 186
3 165 14 188
3 189 170 185
3 185 49 189
3 170 44 185
3 189 12 170
3 191 190 187
3 187 50 191
3 190 49 187
3 191 7 190
3 194 192 193
3 193 53 194
3 192 52 193
3 194 51 192
3 196 195 193
3 193 52 196
3 195 53 193
3 196 16 195
3 198 197 192
3 192 51 198
3 197 52 192
3 198 14 197
3 200 199 194
3 194 53 200
3 199 51 194
3 200 15 199
3 203 201 202
3 202 45 203
3 201 52 202
3 203 54 201
3 197 175 202
3 202 52 197
3 175 45 202
3 197 14 175
3 204 196 201
3 201 54 204
3 196 52 201
3 204 16 196
3 176 205 203
3 203 45 176
3 205 54 203
3 176 4 205
3 208 206 207
3 207 55 208
3 206 51 207
3 208 50 206
3 199 209 207
3 207 51 199
3 209 55 207
3 199 15 209
3 188 198 206
3 206 50 188
3 198 51 206
3 188 14 198
3 210 191 208
3 208 55 210
3 191 50 208
3 210 7 191
3 213 211 212
3 212 57 213
3 211 53 212
3 213 56 211
3 195 214 212
3 212 53 195
3 214 57 212
3 195 16 214
3 215 200 211
3 211 56 215
3 200 53 211
3 215 15 200
3 217 216 213
3 213 57 217
3 216 56 213
3 217 9 216
3 220 218 219
3 219 60 220
3 218 59 219
3 220 58 218
3 222 221 219
3 219 59 222
3 221 60 219
3 222 19 221
3 224 223 218
3 218 58 224
3 223 59 218
3 224 18 223
3 226 225 220
3 220 60 226
3 225 58 220
3 226 17 225
3 229 227 228
3 228 62 229
3 227 59 228
3 229 61 227
3 223 230 228
3 228 59 223
3 230 62 228
3 223 18 230
3 231 222 227
3 227 61 231
3 222 59 227
3 231 19 222
3 233 232 229
3 229 62 233
3 232 61 229
3 233 5 232
3 236 234 235
3 235 64 236
3 234 58 235
3 236 63 234
3 225 237 235
3 235 58 225
3 237 64 235
3 225 17 237
3 238 224 234
3 234 63 238
3 224 58 234
3 238 18 224
3 240 239 236
3 236 64 240
3 239 63 236
3 240 6 239
3 243 241 242
3 242 66 243
3 241 60 242
3 243 65 241
3 221 244 242
3 242 60 221
3 244 66 242
3 221 19 244
3 245 226 241
3 241 65 245
3 226 60 241
3 245 17 226
3 247 246 243
3 243 66 247
3 246 65 243
3 247 11 246
3 250 248 249
3 249 69 250
3 248 68 249
3 250 67 248
3 252 251 249
3 249 68 252
3 251 69 249
3 252 18 251
3 254 253 248
3 248 67 254
3 253 68 248
3 254 21 253
3 256 255 250
3 250 69 256
3 255 67 250
3 256 20 255
3 259 257 258
3 258 70 259
3 257 68 258
3 259 62 257
3 253 260 258
3 258 68 253
3 260 70 258
3 253 21 260
3 230 252 257
3 257 62 230
3 252 68 257
3 230 18 252
3 261 233 259
3 259 70 261
3 233 62 259
3 261 5 233
3 264 262 263
3 263 72 264
3 262 67 263
3 264 71 262
3 255 265 263
3 263 67 255
3 265 72 263
3 255 20 265
3 266 254 262
3 262 71 266
3 254 67 262
3 266 21 254
3 268 267 264
3 264 72 268
3 267 71 264
3 268 10 267
3 271 269 270
3 270 63 271
3 269 69 270
3 271 73 269
3 251 238 270
3 270 69 251
3 238 63 270
3 251 18 238
3 272 256 269
3 269 73 272
3 256 69 269
3 272 20 256
3 239 273 271
3 271 63 239
3 273 73 271
3 239 6 273
3 276 274 275
3 275 76 276
3 274 75 275
3 276 74 274
3 278 277 275
3 275 75 278
3 277 76 275
3 278 24 277
3 280 279 274
3 274 74 280
3 279 75 274
3 280 23 279
3 282 281 276
3 276 76 282
3 281 74 276
3 282 22 281
3 285 283 284
3 284 78 285
3 283 75 284
3 285 77 283
3 279 286 284
3 284 75 279
3 286 78 284
3 279 23 286
3 287 278 283
3 283 77 287
3 278 75 283
3 287 24 278
3 289 288 285
3 285 78 289
3 288 77 285
3 289 0 288
3 292 290 291
3 291 80 292
3 290 74 291
3 292 79 290
3 281 293 291
3 291 74 281
3 293 80 291
3 281 22 293
3 294 280 290
3 290 79 294
3 280 74 290
3 294 23 280
3 296 295 292
3 292 80 296
3 295 79 292
3 296 4 295
3 299 297 298
3 298 82 299
3 297 76 298
3 299 81 297
3 277 300 298
3 298 76 277
3 300 82 298
3 277 24 300
3 301 282 297
3 297 81 301
3 282 76 297
3 301 22 282
3 303 302 299
3 299 82 303
3 302 81 299
3 303 3 302
3 306 304 305
3 305 85 306
3 304 84 305
3 306 83 304
3 308 307 305
3 305 84 308
3 307 85 305
3 308 26 307
3 310 309 304
3 304 83 310
3 309 84 304
3 310 24 309
3 312 311 306
3 306 85 312
3 311 83 306
3 312 25 311
3 315 313 314
3 314 77 315
3 313 84 314
3 315 86 313
3 309 287 314
3 314 84 309
3 287 77 314
3 309 24 287
3 316 308 313
3 313 86 316
3 308 84 313
3 316 26 308
3 288 317 315
3 315 77 288
3 317 86 315
3 288 0 317
3 320 318 319
3 319 87 320
3 318 83 319
3 320 82 318
3 311 321 319
3 319 83 311
3 321 87 319
3 311 25 321
3 300 310 318
3 318 82 300
3 310 83 318
3 300 24 310
3 322 303 320
3 320 87 322
3 303 82 320
3 322 3 303
3 325 323 324
3 324 89 325
3 323 85 324
3 325 88 323
3 307 326 324
3 324 85 307
3 326 89 324
3 307 26 326
3 327 312 323
3 323 88 327
3 312 85 323
3 327 25 312
3 329 328 325
3 325 89 329
3 328 88 325
3 329 5 328
3 332 330 331
3 331 92 332
3 330 91 331
3 332 90 330
3 334 333 331
3 331 91 334
3 333 92 331
3 334 29 333
3 336 335 330
3 330 90 336
3 335 91 330
3 336 28 335
3 338 337 332
3 332 92 338
3 337 90 332
3 338 27 337
3 341 339 340
3 340 94 341
3 339 91 340
3 341 93 339
3 335 342 340
3 340 91 335
3 342 94 340
3 335 28 342
3 343 334 339
3 339 93 343
3 334 91 339
3 343 29 334
3 345 344 341
3 341 94 345
3 344 93 341
3 345 2 344
3 348 346 347
3 347 96 348
3 346 90 347
3 348 95 346
3 337 349 347
3 347 90 337
3 349 96 347
3 337 27 349
3 350 336 346
3 346 95 350
3 336 90 346
3 350 28 336
3 352 351 348
3 348 96 352
3 351 95 348
3 352 7 351
3 355 353 354
3 354 98 355
3 353 92 354
3 355 97 353
3 333 356 354
3 354 92 333
3 356 98 354
3 333 29 356
3 357 338 353
3 353 97 357
3 338 92 353
3 357 27 338
3 359 358 355
3 355 98 359
3 358 97 355
3 359 1 358
3 362 360 361
3 361 101 362
3 360 100 361
3 362 99 360
3 364 363 361
3 361 100 364
3 363 101 361
3 364 31 363
3 366 365 360
3 360 99 366
3 365 100 360
3 366 29 365
3 368 367 362
3 362 101 368
3 367 99 362
3 368 30 367
3 371 369 370
3 370 93 371
3 369 100 370
3 371 102 369
3 365 343 370
3 370 100 365
3 343 93 370
3 365 29 343
3 372 364 369
3 369 102 372
3 364 100 369
3 372 31 364
3 344 373 371
3 371 93 344
3 373 102 371
3 344 2 373
3 376 374 375
3 375 103 376
3 374 99 375
3 376 98 374
3 367 377 375
3 375 99 367
3 377 103 375
3 367 30 377
3 356 366 374
3 374 98 356
3 366 99 374
3 356 29 366
3 378 359 376
3 376 103 378
3 359 98 376
3 378 1 359
3 381 379 380
3 380 105 381
3 379 101 380
3 381 104 379
3 363 382 380
3 380 101 363
3 382 105 380
3 363 31 382
3 383 368 379
3 379 104 383
3 368 101 379
3 383 30 368
3 385 384 381
3 381 105 385
3 384 104 381
3 385 6 384
3 388 386 387
3 387 108 388
3 386 107 387
3 388 106 386
3 390 389 387
3 387 107 390
3 389 108 387
3 390 34 389
3 392 391 386
3 386 106 392
3 391 107 386
3 392 33 391
3 394 393 388
3 388 108 394
3 393 106 388
3 394 32 393
3 397 395 396
3 396 110 397
3 395 107 396
3 397 109 395
3 391 398 396
3 396 107 391
3 398 110 396
3 391 33 398
3 399 390 395
3 395 109 399
3 390 107 395
3 399 34 390
3 401 400 397
3 397 110 401
3 400 109 397
3 401 8 400
3 404 402 403
3 403 112 404
3 402 106 403
3 404 111 402
3 393 405 403
3 403 106 393
3 405 112 403
3 393 32 405
3 406 392 402
3 402 111 406
3 392 106 402
3 406 33 392
3 408 407 404
3 404 112 408
3 407 111 404
3 408 0 407
3 411 409 410
3 410 114 411
3 409 108 410
3 411 113 409
3 389 412 410
3 410 108 389
3 412 114 410
3 389 34 412
3 413 394 409
3 409 113 413
3 394 108 409
3 413 32 394
3 415 414 411
3 411 114 415
3 414 113 411
3 415 11 414
3 418 416 417
3 417 117 418
3 416 116 417
3 418 115 416
3 420 419 417
3 417 116 420
3 419 117 417
3 420 36 419
3 422 421 416
3 416 115 422
3 421 116 416
3 422 34 421
3 424 423 418
3 418 117 424
3 423 115 418
3 424 35 423
3 427 425 426
3 426 109 427
3 425 116 426
3 427 118 425
3 421 399 426
3 426 116 421
3 399 109 426
3 421 34 399
3 428 420 425
3 425 118 428
3 420 116 425
3 428 36 420
3 400 429 427
3 427 109 400
3 429 118 427
3 400 8 429
3 432 430 431
3 431 119 432
3 430 115 431
3 432 114 430
3 423 433 431
3 431 115 423
3 433 119 431
3 423 35 433
3 412 422 430
3 430 114 412
3 422 115 430
3 412 34 422
3 434 415 432
3 432 119 434
3 415 114 432
3 434 11 415
3 437 435 436
3 436 121 437
3 435 117 436
3 437 120 435
3 419 438 436
3 436 117 419
3 438 121 436
3 419 36 438
3 439 424 435
3 435 120 439
3 424 117 435
3 439 35 424
3 441 440 437
3 437 121 441
3 440 120 437
3 441 1 440
3 444 442 443
3 443 124 444
3 442 123 443
3 444 122 442
3 446 445 443
3 443 123 446
3 445 124 443
3 446 39 445
3 448 447 442
3 442 122 448
3 447 123 442
3 448 38 447
3 450 449 444
3 444 124 450
3 449 122 444
3 450 37 449
3 453 451 452
3 452 126 453
3 451 123 452
3 453 125 451
3 447 454 452
3 452 123 447
3 454 126 452
3 447 38 454
3 455 446 451
3 451 125 455
3 446 123 451
3 455 39 446
3 457 456 453
3 453 126 457
3 456 125 453
3 457 9 456
3 460 458 459
3 459 128 460
3 458 122 459
3 460 127 458
3 449 461 459
3 459 122 449
3 461 128 459
3 449 37 461
3 462 448 458
3 458 127 462
3 448 122 458
3 462 38 448
3 464 463 460
3 460 128 464
3 463 127 460
3 464 10 463
3 467 465 466
3 466 130 467
3 465 124 466
3 467 129 465
3 445 468 466
3 466 124 445
3 468 130 466
3 445 39 468
3 469 450 465
3 465 129 469
3 450 124 465
3 469 37 450
3 471 470 467
3 467 130 471
3 470 129 467
3 471 3 470
3 474 472 473
3 473 133 474
3 472 132 473
3 474 131 472
3 476 475 473
3 473 132 476
3 475 133 473
3 476 38 475
3 478 477 472
3 472 131 478
3 477 132 472
3 478 41 477
3 480 479 474
3 474 133 480
3 479 131 474
3 480 40 479
3 483 481 482
3 482 134 483
3 481 132 482
3 483 126 481
3 477 484 482
3 482 132 477
3 484 134 482
3 477 41 484
3 454 476 481
3 481 126 454
3 476 132 481
3 454 38 476
3 485 457 483
3 483 134 485
3 457 126 483
3 485 9 457
3 488 486 487
3 487 136 488
3 486 131 487
3 488 135 486
3 479 489 487
3 487 131 479
3 489 136 487
3 479 40 489
3 490 478 486
3 486 135 490
3 478 131 486
3 490 41 478
3 492 491 488
3 488 136 492
3 491 135 488
3 492 2 491
3 495 493 494
3 494 127 495
3 493 133 494
3 495 137 493
3 475 462 494
3 494 133 475
3 462 127 494
3 475 38 462
3 496 480 493
3 493 137 496
3 480 133 493
3 496 40 480
3 463 497 495
3 495 127 463
3 497 137 495
3 463 10 497
3 500 498 499
3 499 140 500
3 498 139 499
3 500 138 498
3 502 501 499
3 499 139 502
3 501 140 499
3 502 33 501
3 504 503 498
3 498 138 504
3 503 139 498
3 504 13 503
3 506 505 500
3 500 140 506
3 505 138 500
3 506 23 505
3 509 507 508
3 508 47 509
3 507 139 508
3 509 110 507
3 503 182 508
3 508 139 503
3 182 47 508
3 503 13 182
3 398 502 507
3 507 110 398
3 502 139 507
3 398 33 502
3 183 401 509
3 509 47 183
3 401 110 509
3 183 8 401
3 512 510 511
3 511 79 512
3 510 138 511
3 512 46 510
3 505 294 511
3 511 138 505
3 294 79 511
3 505 23 294
3 174 504 510
3 510 46 174
3 504 138 510
3 174 13 504
3 295 177 512
3 512 79 295
3 177 46 512
3 295 4 177
3 515 513 514
3 514 111 515
3 513 140 514
3 515 78 513
3 501 406 514
3 514 140 501
3 406 111 514
3 501 33 406
3 286 506 513
3 513 78 286
3 506 140 513
3 286 23 506
3 407 289 515
3 515 111 407
3 289 78 515
3 407 0 289
3 518 516 517
3 517 143 518
3 516 142 517
3 518 141 516
3 520 519 517
3 517 142 520
3 519 143 517
3 520 19 519
3 522 521 516
3 516 141 522
3 521 142 516
3 522 32 521
3 524 523 518
3 518 143 524
3 523 141 518
3 524 26 523
3 527 525 526
3 526 113 527
3 525 142 526
3 527 66 525
3 521 413 526
3 526 142 521
3 413 113 526
3 521 32 413
3 244 520 525
3 525 66 244
3 520 142 525
3 244 19 520
3 414 247 527
3 527 113 414
3 247 66 527
3 414 11 247
3 530 528 529
3 529 86 530
3 528 141 529
3 530 112 528
3 523 316 529
3 529 141 523
3 316 86 529
3 523 26 316
3 405 522 528
3 528 112 405
3 522 141 528
3 405 32 522
3 317 408 530
3 530 86 317
3 408 112 530
3 317 0 408
3 533 531 532
3 532 61 533
3 531 143 532
3 533 89 531
3 519 231 532
3 532 143 519
3 231 61 532
3 519 19 231
3 326 524 531
3 531 89 326
3 524 143 531
3 326 26 524
3 232 329 533
3 533 61 232
3 329 89 533
3 232 5 329
3 536 534 535
3 535 146 536
3 534 145 535
3 536 144 534
3 538 537 535
3 535 145 538
3 537 146 535
3 538 22 537
3 540 539 534
3 534 144 540
3 539 145 534
3 540 16 539
3 542 541 536
3 536 146 542
3 541 144 536
3 542 39 541
3 545 543 544
3 544 54 545
3 543 145 544
3 545 80 543
3 539 204 544
3 544 145 539
3 204 54 544
3 539 16 204
3 293 538 543
3 543 80 293
3 538 145 543
3 293 22 538
3 205 296 545
3 545 54 205
3 296 80 545
3 205 4 296
3 548 546 547
3 547 125 548
3 546 144 547
3 548 57 546
3 541 455 547
3 547 144 541
3 455 125 547
3 541 39 455
3 214 540 546
3 546 57 214
3 540 144 546
3 214 16 540
3 456 217 548
3 548 125 456
3 217 57 548
3 456 9 217
3 551 549 550
3 550 81 551
3 549 146 550
3 551 130 549
3 537 301 550
3 550 146 537
3 301 81 550
3 537 22 301
3 468 542 549
3 549 130 468
3 542 146 549
3 468 39 542
3 302 471 551
3 551 81 302
3 471 130 551
3 302 3 471
3 554 552 553
3 553 149 554
3 552 148 553
3 554 147 552
3 556 555 553
3 553 148 556
3 555 149 553
3 556 21 555
3 558 557 552
3 552 147 558
3 557 148 552
3 558 25 557
3 560 559 554
3 554 149 560
3 559 147 554
3 560 37 559
3 563 561 562
3 562 88 563
3 561 148 562
3 563 70 561
3 557 327 562
3 562 148 557
3 327 88 562
3 557 25 327
3 260 556 561
3 561 70 260
3 556 148 561
3 260 21 556
3 328 261 563
3 563 88 328
3 261 70 563
3 328 5 261
3 566 564 565
3 565 129 566
3 564 147 565
3 566 87 564
3 559 469 565
3 565 147 559
3 469 129 565
3 559 37 469
3 321 558 564
3 564 87 321
3 558 147 564
3 321 25 558
3 470 322 566
3 566 129 470
3 322 87 566
3 470 3 322
3 569 567 568
3 568 71 569
3 567 149 568
3 569 128 567
3 555 266 568
3 568 149 555
3 266 71 568
3 555 21 266
3 461 560 567
3 567 128 461
3 560 149 567
3 461 37 560
3 267 464 569
3 569 71 267
3 464 128 569
3 267 10 464
3 572 570 571
3 571 152 572
3 570 151 571
3 572 150 570
3 574 573 571
3 571 151 574
3 573 152 571
3 574 27 573
3 576 575 570
3 570 150 576
3 575 151 570
3 576 12 575
3 578 577 572
3 572 152 578
3 577 150 572
3 578 36 577
3 581 579 580
3 580 49 581
3 579 151 580
3 581 96 579
3 575 189 580
3 580 151 575
3 189 49 580
3 575 12 189
3 349 574 579
3 579 96 349
3 574 151 579
3 349 27 574
3 190 352 581
3 581 49 190
3 352 96 581
3 190 7 352
3 584 582 583
3 583 118 584
3 582 150 583
3 584 48 582
3 577 428 583
3 583 150 577
3 428 118 583
3 577 36 428
3 181 576 582
3 582 48 181
3 576 150 582
3 181 12 576
3 429 184 584
3 584 118 429
3 184 48 584
3 429 8 184
3 587 585 586
3 586 97 587
3 585 152 586
3 587 121 585
3 573 357 586
3 586 152 573
3 357 97 586
3 573 27 357
3 438 578 585
3 585 121 438
3 578 152 585
3 438 36 578
3 358 441 587
3 587 97 358
3 441 121 587
3 358 1 441
3 590 588 589
3 589 155 590
3 588 154 589
3 590 153 588
3 592 591 589
3 589 154 592
3 591 155 589
3 592 17 591
3 594 593 588
3 588 153 594
3 593 154 588
3 594 30 593
3 596 595 590
3 590 155 596
3 595 153 590
3 596 35 595
3 599 597 598
3 598 104 599
3 597 154 598
3 599 64 597
3 593 383 598
3 598 154 593
3 383 104 598
3 593 30 383
3 237 592 597
3 597 64 237
3 592 154 597
3 237 17 592
3 384 240 599
3 599 104 384
3 240 64 599
3 384 6 240
3 602 600 601
3 601 120 602
3 600 153 601
3 602 103 600
3 595 439 601
3 601 153 595
3 439 120 601
3 595 35 439
3 377 594 600
3 600 103 377
3 594 153 600
3 377 30 594
3 440 378 602
3 602 120 440
3 378 103 602
3 440 1 378
3 605 603 604
3 604 65 605
3 603 155 604
3 605 119 603
3 591 245 604
3 604 155 591
3 245 65 604
3 591 17 245
3 433 596 603
3 603 119 433
3 596 155 603
3 433 35 596
3 246 434 605
3 605 65 246
3 434 119 605
3 246 11 434
3 608 606 607
3 607 158 608
3 606 157 607
3 608 156 606
3 610 609 607
3 607 157 610
3 609 158 607
3 610 15 609
3 612 611 606
3 606 156 612
3 611 157 606
3 612 28 611
3 614 613 608
3 608 158 614
3 613 156 608
3 614 41 613
3 617 615 616
3 616 95 617
3 615 157 616
3 617 55 615
3 611 350 616
3 616 157 611
3 350 95 616
3 611 28 350
3 209 610 615
3 615 55 209
3 610 157 615
3 209 15 610
3 351 210 617
3 617 95 351
3 210 55 617
3 351 7 210
3 620 618 619
3 619 135 620
3 618 156 619
3 620 94 618
3 613 490 619
3 619 156 613
3 490 135 619
3 613 41 490
3 342 612 618
3 618 94 342
3 612 156 618
3 342 28 612
3 491 345 620
3 620 135 491
3 345 94 620
3 491 2 345
3 623 621 622
3 622 56 623
3 621 158 622
3 623 134 621
3 609 215 622
3 622 158 609
3 215 56 622
3 609 15 215
3 484 614 621
3 621 134 484
3 614 158 621
3 484 41 614
3 216 485 623
3 623 56 216
3 485 134 623
3 216 9 485
3 626 624 625
3 625 161 626
3 624 160 625
3 626 159 624
3 628 627 625
3 625 160 628
3 627 161 625
3 628 31 627
3 630 629 624
3 624 159 630
3 629 160 624
3 630 20 629
3 632 631 626
3 626 161 632
3 631 159 626
3 632 40 631
3 635 633 634
3 634 73 635
3 633 160 634
3 635 105 633
3 629 272 634
3 634 160 629
3 272 73 634
3 629 20 272
3 382 628 633
3 633 105 382
3 628 160 633
3 382 31 628
3 273 385 635
3 635 73 273
3 385 105 635
3 273 6 385
3 638 636 637
3 637 137 638
3 636 159 637
3 638 72 636
3 631 496 637
3 637 159 631
3 496 137 637
3 631 40 496
3 265 630 636
3 636 72 265
3 630 159 636
3 265 20 630
3 497 268 638
3 638 137 497
3 268 72 638
3 497 10 268
3 641 639 640
3 640 102 641
3 639 161 640
3 641 136 639
3 627 372 640
3 640 161 627
3 372 102 640
3 627 31 372
3 489 632 639
3 639 136 489
3 632 161 639
3 489 40 632
3 373 492 641
3 641 102 373
3 492 136 641
3 373 2 492
